<svg viewBox="0 0 24 24" fill="none" xmlns="http://www.w3.org/2000/svg">
<g opacity="0.9">
<path fill-rule="evenodd" clip-rule="evenodd" d="M5.05602 3.05606C5.49928 2.61272 6.10049 2.36363 6.72741 2.36363H13.8178C13.9786 2.36363 14.1327 2.4275 14.2464 2.54118L19.459 7.75467C19.5727 7.86833 19.6365 8.02247 19.6365 8.18319V19.2724C19.6365 19.8993 19.3875 20.5006 18.9442 20.9439C18.501 21.3873 17.8998 21.6364 17.2729 21.6364H6.72741C6.10049 21.6364 5.49928 21.3873 5.05602 20.9439C4.61277 20.5006 4.36377 19.8993 4.36377 19.2724V4.72759C4.36377 4.10067 4.61277 3.4994 5.05602 3.05606ZM6.72741 3.57575C6.42204 3.57575 6.12916 3.69708 5.9132 3.91308C5.69724 4.12908 5.57589 4.42207 5.57589 4.72759V19.2724C5.57589 19.5779 5.69724 19.8709 5.9132 20.0869C6.12916 20.3029 6.42204 20.4242 6.72741 20.4242H17.2729C17.5782 20.4242 17.8711 20.3029 18.0871 20.0869C18.303 19.8709 18.4244 19.5779 18.4244 19.2724V8.4342L13.5667 3.57575H6.72741Z" fill="currentColor"/>
<path d="M8.70984 14.9258L9.02246 13.8873H10.8134L11.126 14.9258H12.7156L10.9247 9.5H8.91119L7.12025 14.9258H8.70984ZM9.35628 12.7852L9.89674 10.9942H9.93913L10.4796 12.7852H9.35628Z" fill="currentColor"/>
<path d="M14.8887 15C16.0173 15 16.7432 14.4595 16.881 13.6117H15.5458C15.461 13.8422 15.2199 13.9721 14.9205 13.9721C14.486 13.9721 14.2317 13.6859 14.2317 13.2938V13.2302H16.881V12.8911C16.881 11.5956 16.0862 10.8035 14.8569 10.8035C13.5959 10.8035 12.7905 11.6407 12.7905 12.9017C12.7905 14.2184 13.5853 15 14.8887 15ZM14.2317 12.4249C14.2396 12.0725 14.5311 11.8314 14.8887 11.8314C15.2517 11.8314 15.5272 12.0751 15.5352 12.4249H14.2317Z" fill="currentColor"/>
</g>
</svg>
