<svg viewBox="0 0 24 24" fill="none" xmlns="http://www.w3.org/2000/svg">
<g opacity="0.9">
<path d="M9.17279 9.66943H10.9724L11.9414 11.3883H11.9875L12.9681 9.66943H14.7561L12.9911 12.6226L14.8253 15.5758H12.9911L11.9875 13.8223H11.9414L10.9378 15.5758H9.11511L10.9262 12.6226L9.17279 9.66943Z" fill="currentColor"/>
<path fill-rule="evenodd" clip-rule="evenodd" d="M6.72741 2.36353C6.10049 2.36353 5.49928 2.61261 5.05602 3.05595C4.61277 3.49929 4.36377 4.10056 4.36377 4.72748V19.2723C4.36377 19.8992 4.61277 20.5005 5.05602 20.9438C5.49928 21.3872 6.10049 21.6363 6.72741 21.6363H17.2729C17.8998 21.6363 18.501 21.3872 18.9442 20.9438C19.3875 20.5005 19.6365 19.8992 19.6365 19.2723V8.18308C19.6365 8.02236 19.5727 7.86822 19.459 7.75457L14.2464 2.54107C14.1327 2.42739 13.9786 2.36353 13.8178 2.36353H6.72741ZM5.9132 3.91297C6.12916 3.69697 6.42204 3.57565 6.72741 3.57565H13.5667L18.4244 8.43409V19.2723C18.4244 19.5778 18.303 19.8708 18.0871 20.0868C17.8711 20.3028 17.5782 20.4241 17.2729 20.4241H6.72741C6.42204 20.4241 6.12916 20.3028 5.9132 20.0868C5.69724 19.8708 5.57589 19.5778 5.57589 19.2723V4.72748C5.57589 4.42196 5.69724 4.12898 5.9132 3.91297Z" fill="currentColor"/>
</g>
</svg>
