<svg viewBox="0 0 24 24" fill="none" xmlns="http://www.w3.org/2000/svg">
<g opacity="0.9">
<path fill-rule="evenodd" clip-rule="evenodd" d="M11.2585 15.5758H9.65503V9.66943H12.2044C13.5166 9.66943 14.3963 10.5 14.3963 11.7574C14.3963 13.0292 13.4936 13.8223 12.1468 13.8223H11.2585V15.5758ZM11.2585 10.9499V12.5765H11.8238C12.3861 12.5765 12.7236 12.2621 12.7236 11.7574C12.7236 11.2498 12.3861 10.9499 11.8238 10.9499H11.2585Z" fill="currentColor"/>
<path fill-rule="evenodd" clip-rule="evenodd" d="M6.72692 2.36353C6.10001 2.36353 5.49879 2.61261 5.05553 3.05595C4.61228 3.49929 4.36328 4.10056 4.36328 4.72748V19.2723C4.36328 19.8992 4.61228 20.5005 5.05553 20.9438C5.49879 21.3872 6.10001 21.6363 6.72692 21.6363H17.2724C17.8993 21.6363 18.5005 21.3872 18.9438 20.9438C19.387 20.5005 19.636 19.8992 19.636 19.2723V8.18308C19.636 8.02236 19.5722 7.86822 19.4585 7.75457L14.2459 2.54107C14.1322 2.42739 13.9781 2.36353 13.8173 2.36353H6.72692ZM5.91271 3.91297C6.12867 3.69697 6.42155 3.57565 6.72692 3.57565H13.5662L18.4239 8.43409V19.2723C18.4239 19.5778 18.3025 19.8708 18.0866 20.0868C17.8706 20.3028 17.5777 20.4241 17.2724 20.4241H6.72692C6.42155 20.4241 6.12867 20.3028 5.91271 20.0868C5.69675 19.8708 5.5754 19.5778 5.5754 19.2723V4.72748C5.5754 4.42196 5.69675 4.12898 5.91271 3.91297Z" fill="currentColor"/>
</g>
</svg>
