<svg viewBox="0 0 24 24" fill="none" xmlns="http://www.w3.org/2000/svg">
<g opacity="0.9">
<path fill-rule="evenodd" clip-rule="evenodd" d="M5.05602 3.05606C5.49928 2.61272 6.10049 2.36363 6.72741 2.36363H13.8178C13.9786 2.36363 14.1327 2.4275 14.2464 2.54118L19.459 7.75467C19.5727 7.86833 19.6365 8.02247 19.6365 8.18319V19.2724C19.6365 19.8993 19.3875 20.5006 18.9442 20.9439C18.501 21.3873 17.8998 21.6364 17.2729 21.6364H6.72741C6.10049 21.6364 5.49928 21.3873 5.05602 20.9439C4.61277 20.5006 4.36377 19.8993 4.36377 19.2724V4.72759C4.36377 4.10067 4.61277 3.4994 5.05602 3.05606ZM6.72741 3.57575C6.42204 3.57575 6.12916 3.69708 5.9132 3.91308C5.69724 4.12908 5.57589 4.42207 5.57589 4.72759V19.2724C5.57589 19.5779 5.69724 19.8709 5.9132 20.0869C6.12916 20.3029 6.42204 20.4242 6.72741 20.4242H17.2729C17.5782 20.4242 17.8711 20.3029 18.0871 20.0869C18.303 19.8709 18.4244 19.5779 18.4244 19.2724V8.4342L13.5667 3.57575H6.72741Z" fill="currentColor"/>
<path d="M7.63002 14.9258H9.10304V13.315H9.91903C11.1563 13.315 11.9855 12.5865 11.9855 11.4181C11.9855 10.263 11.1775 9.5 9.97202 9.5H7.63002V14.9258ZM9.10304 12.1705V10.6763H9.62231C10.1389 10.6763 10.4489 10.9518 10.4489 11.4181C10.4489 11.8817 10.1389 12.1705 9.62231 12.1705H9.10304Z" fill="currentColor"/>
<path d="M16.2668 12.1811C16.2297 11.3201 15.5144 10.8035 14.3381 10.8035C13.175 10.8035 12.4571 11.2803 12.4624 12.1281C12.4571 12.7693 12.873 13.1799 13.7023 13.3256L14.4229 13.4528C14.7408 13.5111 14.8839 13.5959 14.8892 13.7495C14.8839 13.9191 14.6905 14.0144 14.4229 14.0144C14.0917 14.0144 13.8586 13.8714 13.8188 13.6117H12.367C12.4465 14.4463 13.1671 15 14.4123 15C15.5382 15 16.3675 14.4516 16.3728 13.58C16.3675 12.9786 15.9648 12.6288 15.1329 12.4778L14.3063 12.3295C13.9963 12.2738 13.9089 12.1626 13.9142 12.0433C13.9089 11.8738 14.1182 11.7784 14.3699 11.7784C14.6587 11.7784 14.8998 11.9321 14.9209 12.1811H16.2668Z" fill="currentColor"/>
</g>
</svg>
