<svg viewBox="0 0 24 24" fill="none" xmlns="http://www.w3.org/2000/svg">
<g opacity="0.9">
<path d="M7.51489 15.9393C7.51489 15.069 8.22038 14.3635 9.09065 14.3635C9.21583 14.3635 9.33759 14.3781 9.45435 14.4057V10.4031C9.45435 10.1247 9.64395 9.88214 9.91407 9.81493L14.9444 8.56335C15.1254 8.51831 15.317 8.55912 15.464 8.67399C15.6109 8.78885 15.6968 8.96497 15.6968 9.15148V14.6272C15.6968 14.6331 15.6967 14.6389 15.6965 14.6448C15.6966 14.652 15.6967 14.6593 15.6967 14.6666C15.6967 15.5368 14.9912 16.2423 14.1209 16.2423C13.2507 16.2423 12.5452 15.5368 12.5452 14.6666C12.5452 13.7963 13.2507 13.0908 14.1209 13.0908C14.2461 13.0908 14.3679 13.1054 14.4846 13.133V9.92681L10.6665 10.8768V15.8787C10.6665 15.8869 10.6663 15.8949 10.666 15.903C10.6663 15.9151 10.6664 15.9272 10.6664 15.9393C10.6664 16.8096 9.96091 17.5151 9.09065 17.5151C8.22038 17.5151 7.51489 16.8096 7.51489 15.9393Z" fill="currentColor"/>
<path fill-rule="evenodd" clip-rule="evenodd" d="M6.72692 2.36353C6.10001 2.36353 5.49879 2.61261 5.05553 3.05595C4.61228 3.49929 4.36328 4.10056 4.36328 4.72748V19.2723C4.36328 19.8992 4.61228 20.5005 5.05553 20.9438C5.49879 21.3872 6.10001 21.6363 6.72692 21.6363H17.2724C17.8993 21.6363 18.5005 21.3872 18.9438 20.9438C19.387 20.5005 19.636 19.8992 19.636 19.2723V8.18308C19.636 8.02236 19.5722 7.86822 19.4585 7.75457L14.2459 2.54107C14.1322 2.42739 13.9781 2.36353 13.8173 2.36353H6.72692ZM5.91271 3.91297C6.12867 3.69697 6.42155 3.57565 6.72692 3.57565H13.5662L18.4239 8.43409V19.2723C18.4239 19.5778 18.3025 19.8708 18.0866 20.0868C17.8706 20.3028 17.5777 20.4241 17.2724 20.4241H6.72692C6.42155 20.4241 6.12867 20.3028 5.91271 20.0868C5.69675 19.8708 5.5754 19.5778 5.5754 19.2723V4.72748C5.5754 4.42196 5.69675 4.12898 5.91271 3.91297Z" fill="currentColor"/>
</g>
</svg>
