<svg viewBox="0 0 24 24" fill="none" xmlns="http://www.w3.org/2000/svg">
<g opacity="0.9">
<path fill-rule="evenodd" clip-rule="evenodd" d="M5.05602 3.05606C5.49928 2.61272 6.10049 2.36363 6.72741 2.36363H13.8178C13.9786 2.36363 14.1327 2.4275 14.2464 2.54118L19.459 7.75467C19.5727 7.86833 19.6365 8.02247 19.6365 8.18319V19.2724C19.6365 19.8993 19.3875 20.5006 18.9442 20.9439C18.501 21.3873 17.8998 21.6364 17.2729 21.6364H6.72741C6.10049 21.6364 5.49928 21.3873 5.05602 20.9439C4.61277 20.5006 4.36377 19.8993 4.36377 19.2724V4.72759C4.36377 4.10067 4.61277 3.4994 5.05602 3.05606ZM6.72741 3.57575C6.42204 3.57575 6.12916 3.69708 5.9132 3.91308C5.69724 4.12908 5.57589 4.42207 5.57589 4.72759V19.2724C5.57589 19.5779 5.69724 19.8709 5.9132 20.0869C6.12916 20.3029 6.42204 20.4242 6.72741 20.4242H17.2729C17.5782 20.4242 17.8711 20.3029 18.0871 20.0869C18.303 19.8709 18.4244 19.5779 18.4244 19.2724V8.4342L13.5667 3.57575H6.72741Z" fill="currentColor"/>
<path d="M8.83302 9.5H7.17344L8.79047 12.2234L7.12025 14.9468H8.80111L9.72664 13.3298H9.76919L10.6947 14.9468H12.3862L10.6947 12.2234L12.3224 9.5H10.6734L9.76919 11.0851H9.72664L8.83302 9.5Z" fill="currentColor"/>
<path d="M14.2479 15C14.8224 15 15.216 14.6915 15.3862 14.2766H15.4181V14.9468H16.8756V9.5H15.4075V11.5745H15.3862C15.2267 11.1596 14.8437 10.8085 14.2373 10.8085C13.4288 10.8085 12.6415 11.4255 12.6415 12.9043C12.6415 14.3191 13.3756 15 14.2479 15ZM14.7905 13.8723C14.3862 13.8723 14.1522 13.5106 14.1522 12.9043C14.1522 12.2979 14.3862 11.9362 14.7905 11.9362C15.1947 11.9362 15.4394 12.2979 15.4394 12.9043C15.4394 13.5 15.1947 13.8723 14.7905 13.8723Z" fill="currentColor"/>
</g>
</svg>
