<svg viewBox="0 0 24 24" fill="none" xmlns="http://www.w3.org/2000/svg">
<path d="M22.9991 7.87935C22.9991 2.67245 19.6466 1.14722 19.6466 1.14722C17.9568 0.357607 15.0548 0.0252005 12.0395 0H11.9652C8.94998 0.0252005 6.05029 0.357607 4.3593 1.14722C4.3593 1.14722 1.0068 2.67365 1.0068 7.87935C1.0068 9.07098 0.98439 10.4966 1.02095 12.0086C1.1424 17.1003 1.93837 22.1188 6.56443 23.3645C8.69763 23.9393 10.5289 24.0593 12.003 23.9765C14.6774 23.8253 16.1786 23.0056 16.1786 23.0056L16.0901 21.0304C16.0901 21.0304 14.1786 21.6436 12.0324 21.5692C9.90515 21.4948 7.6611 21.3364 7.31677 18.6784C7.28425 18.4314 7.26849 18.1824 7.2696 17.9331C7.2696 17.9331 9.35681 18.4528 12.003 18.5764C13.6208 18.652 15.1373 18.4804 16.6786 18.2932C19.6337 17.9343 22.2067 16.0815 22.5298 14.3883C23.0416 11.7206 22.9991 7.87935 22.9991 7.87935ZM19.0452 14.5875H16.5913V8.46856C16.5913 7.17854 16.0583 6.52453 14.9911 6.52453C13.8119 6.52453 13.2211 7.30094 13.2211 8.83697V12.1862H10.7813V8.83697C10.7813 7.30094 10.1905 6.52453 9.01012 6.52453C7.94293 6.52453 7.40993 7.17974 7.40993 8.46856V14.5875H4.95598V8.28376C4.95598 6.99494 5.27791 5.97131 5.92648 5.2141C6.59391 4.45689 7.46771 4.06808 8.55377 4.06808C9.80963 4.06808 10.7613 4.55889 11.3898 5.54171L12.0006 6.58453L12.6126 5.54171C13.2411 4.55889 14.1928 4.06808 15.4486 4.06808C16.5335 4.06808 17.4085 4.45689 18.0759 5.2141C18.7233 5.97131 19.0452 6.99494 19.0452 8.28376V14.5875Z" fill="#374151"/>
</svg>
