<svg viewBox="0 0 24 24" fill="none" xmlns="http://www.w3.org/2000/svg">
<path d="M12 -9.53674e-07C5.37261 -9.53674e-07 0 5.37261 0 12C0 17.0838 3.16299 21.4298 7.62689 23.1782C7.52203 22.2288 7.42721 20.7686 7.6685 19.7321C7.88658 18.7956 9.07564 13.7674 9.07564 13.7674C9.07564 13.7674 8.7167 13.0485 8.7167 11.9857C8.7167 10.3171 9.68385 9.07141 10.8881 9.07141C11.9119 9.07141 12.4064 9.84006 12.4064 10.7618C12.4064 11.7914 11.7508 13.3307 11.4126 14.7572C11.1298 15.9516 12.0115 16.9256 13.1896 16.9256C15.3223 16.9256 16.9618 14.6768 16.9618 11.4306C16.9618 8.55735 14.8973 6.5485 11.9493 6.5485C8.53492 6.5485 6.53079 9.10948 6.53079 11.7561C6.53079 12.7875 6.92809 13.8935 7.42386 14.4947C7.52194 14.6135 7.5363 14.7176 7.50708 14.8389C7.416 15.2179 7.21356 16.033 7.17381 16.1998C7.12148 16.4194 6.9999 16.4661 6.77248 16.3602C5.27376 15.6626 4.33671 13.4714 4.33671 11.7114C4.33671 7.92603 7.08705 4.44964 12.2656 4.44964C16.4284 4.44964 19.6634 7.41599 19.6634 11.3803C19.6634 15.5159 17.0558 18.8443 13.4365 18.8443C12.2204 18.8443 11.0773 18.2126 10.686 17.4664C10.686 17.4664 10.0843 19.7575 9.93842 20.319C9.66752 21.3613 8.93616 22.6678 8.44698 23.4649C9.56974 23.8125 10.7629 24 12 24C18.6275 24 24.0001 18.6274 24.0001 12C24.0001 5.37261 18.6275 -9.53674e-07 12 -9.53674e-07Z" fill="currentColor"/>
</svg>
