<svg viewBox="0 0 20 17" fill="none" xmlns="http://www.w3.org/2000/svg">
<path d="M12.4413 2.65873C12.6494 3.54092 13.4416 4.19811 14.3875 4.19811C15.4919 4.19811 16.3872 3.30279 16.3872 2.19842C16.3872 1.09404 15.4919 0.19873 14.3875 0.19873C13.4219 0.19873 12.6166 0.883106 12.4291 1.79342C10.8119 1.96686 9.5491 3.33842 9.5491 5.00061C9.5491 5.00436 9.5491 5.00717 9.5491 5.01092C7.79035 5.08498 6.18441 5.58561 4.90941 6.37592C4.43597 6.00936 3.8416 5.79092 3.1966 5.79092C1.64878 5.79092 0.394409 7.04529 0.394409 8.59311C0.394409 9.71623 1.05441 10.6837 2.00785 11.1309C2.10066 14.384 5.64535 17.0006 10.0057 17.0006C14.366 17.0006 17.9153 14.3812 18.0035 11.1253C18.9494 10.6753 19.6038 9.71061 19.6038 8.59404C19.6038 7.04623 18.3494 5.79186 16.8016 5.79186C16.1594 5.79186 15.5678 6.00842 15.0953 6.37217C13.8091 5.57623 12.1853 5.07561 10.4088 5.00904C10.4088 5.00623 10.4088 5.00436 10.4088 5.00154C10.4088 3.81092 11.2938 2.82279 12.4413 2.66061V2.65873ZM4.79691 10.3715C4.84378 9.35529 5.51878 8.57529 6.30347 8.57529C7.08816 8.57529 7.68816 9.39936 7.64128 10.4156C7.59441 11.4319 7.00847 11.8012 6.22285 11.8012C5.43722 11.8012 4.75003 11.3878 4.79691 10.3715ZM13.7088 8.57529C14.4944 8.57529 15.1694 9.35529 15.2153 10.3715C15.2622 11.3878 14.5741 11.8012 13.7894 11.8012C13.0047 11.8012 12.4178 11.4328 12.371 10.4156C12.3241 9.39936 12.9232 8.57529 13.7088 8.57529ZM12.775 12.7228C12.9222 12.7378 13.016 12.8906 12.9588 13.0275C12.476 14.1815 11.336 14.9925 10.0057 14.9925C8.67535 14.9925 7.53628 14.1815 7.05253 13.0275C6.99535 12.8906 7.0891 12.7378 7.23628 12.7228C8.09878 12.6356 9.0316 12.5878 10.0057 12.5878C10.9797 12.5878 11.9116 12.6356 12.775 12.7228Z" fill="#374151"/>
</svg>
