<svg viewBox="0 0 24 24" fill="none" xmlns="http://www.w3.org/2000/svg">
<path fill-rule="evenodd" clip-rule="evenodd" d="M10.0408 0.873521C7.83963 -0.402454 4.91658 -0.274348 2.8496 1.21717C1.48212 2.17491 0.49286 3.66033 0.149211 5.29521C-0.197488 6.89551 0.0658407 8.61477 0.878194 10.0372C0.541662 12.0136 0.719587 14.0796 1.42722 15.9575C2.40428 18.5857 4.40212 20.8123 6.9073 22.071C9.06273 23.1711 11.575 23.5259 13.9572 23.1161C16.0964 24.3545 18.9177 24.2762 20.9715 22.8955C22.4549 21.9266 23.5275 20.3497 23.8681 18.6101C24.1904 17.0332 23.9149 15.3505 23.1198 13.9525C23.4431 12.0787 23.2987 10.1236 22.6775 8.32501C21.7737 5.66732 19.8328 3.38684 17.3611 2.05901C15.1467 0.85217 12.5226 0.443452 10.0408 0.873521ZM15.3066 5.94989C13.8557 5.16295 12.1425 4.91386 10.5168 5.1599C9.38115 5.33478 8.21397 5.74146 7.42703 6.61685C6.56689 7.52071 6.37982 8.88615 6.64111 10.0696C6.79667 10.824 7.28063 11.4859 7.91912 11.9099C8.68094 12.4379 9.59074 12.6586 10.4805 12.8743C10.5466 12.8904 10.6126 12.9064 10.6785 12.9225C11.1309 13.042 11.5849 13.1553 12.0389 13.2687C12.4542 13.3724 12.8694 13.4761 13.2833 13.5844C13.753 13.7125 14.2441 13.9718 14.4352 14.4476C14.6681 14.9539 14.4779 15.5558 14.119 15.9513C13.5914 16.5369 12.7739 16.7728 12.0043 16.7525C11.2194 16.7718 10.3989 16.5573 9.81021 16.0174C9.57459 15.8124 9.38838 15.5627 9.20226 15.3131C8.99967 15.0415 8.79719 14.7699 8.53118 14.5564C7.8632 14.0287 6.68483 14.354 6.48047 15.2121C6.2934 16.0753 6.81497 16.9192 7.43517 17.4784C8.67149 18.5785 10.3907 18.9079 11.9992 18.9313C13.506 18.9221 15.1235 18.6374 16.2867 17.6075C17.7406 16.3671 18.0039 13.9646 16.8347 12.4497C16.1565 11.613 15.1195 11.1636 14.0926 10.9287C13.6796 10.8313 13.2654 10.74 12.8513 10.6487C12.2754 10.5217 11.6998 10.3947 11.1279 10.2516C10.6124 10.1082 10.0502 9.95167 9.68617 9.53177C9.30083 9.05696 9.44724 8.33408 9.84274 7.91214C10.2708 7.48106 10.8991 7.34787 11.4858 7.32245C12.2879 7.30822 13.145 7.44954 13.7815 7.97416C13.9875 8.12556 14.1588 8.31887 14.3298 8.51177C14.579 8.79298 14.8275 9.07332 15.1815 9.22167C15.697 9.38739 16.3243 9.26641 16.7086 8.87294C17.0634 8.49675 17.0421 7.91011 16.8499 7.46072C16.5551 6.77749 15.941 6.30167 15.3066 5.94989Z" fill="currentColor"/>
</svg>
