<svg viewBox="0 0 24 24" fill="none" xmlns="http://www.w3.org/2000/svg">
<path fill-rule="evenodd" clip-rule="evenodd" d="M12.9119 1.32339L12.4688 1.32845L12.4584 1.58206C12.4526 1.72154 12.4448 4.93052 12.441 8.71314C12.4343 15.3781 12.4288 16.1192 12.3799 16.8111C12.3567 17.1403 12.2807 17.3558 12.0412 17.7709C11.6279 18.4875 10.9097 19.0149 10.1233 19.1794C9.75733 19.2559 9.2331 19.2606 8.90879 19.1903C7.79958 18.9496 6.87011 17.981 6.63441 16.82C6.6119 16.7091 6.60507 16.5726 6.60365 16.2053C6.6016 15.6703 6.61822 15.5476 6.73767 15.2165C6.96904 14.575 7.3775 14.0454 7.93015 13.6702C8.4282 13.3321 9.00339 13.1732 9.6319 13.2C9.94067 13.2131 10.3138 13.2769 10.48 13.3449C10.5047 13.3551 10.5086 13.2859 10.519 12.656C10.5253 12.271 10.5356 11.3811 10.5418 10.6786L10.5531 9.40121L10.5115 9.3912C10.2552 9.32957 9.6531 9.28445 9.27773 9.29876C7.68967 9.35927 6.21679 9.9902 5.04102 11.1137C4.24018 11.8788 3.6343 12.8601 3.28883 13.9514C3.16116 14.3547 3.06313 14.8272 3.01343 15.2788C2.98592 15.5286 3.00363 16.6156 3.03981 16.8989C3.19383 18.1052 3.66785 19.2309 4.43922 20.2223C4.74758 20.6186 5.288 21.1453 5.69281 21.4441C6.41929 21.9803 7.2695 22.3656 8.14832 22.557C9.10643 22.7656 10.2761 22.7213 11.2424 22.4397C12.5948 22.0456 13.8233 21.1764 14.6517 20.0273C15.3611 19.0434 15.7626 18.0074 15.9325 16.722C15.9593 16.5189 15.9624 16.149 15.9676 12.5127C15.9708 10.32 15.9779 8.52606 15.9834 8.52606C15.9889 8.52606 16.1267 8.61331 16.2896 8.71993C17.2409 9.34263 18.0851 9.71228 19.1168 9.9579C19.6624 10.0878 20.4924 10.2009 20.8998 10.2009H21V8.41133V6.6218L20.9179 6.61032C19.3142 6.38613 18.1814 5.87746 17.3173 4.99342C16.607 4.26669 16.1353 3.29771 15.9303 2.14427C15.8949 1.94523 15.8343 1.43364 15.8343 1.33428C15.8343 1.31404 15.6302 1.31072 14.5946 1.31418C13.9129 1.31646 13.1557 1.32061 12.9119 1.32339Z" fill="currentColor"/>
</svg>
