<svg viewBox="0 0 24 25" fill="none" xmlns="http://www.w3.org/2000/svg">
<path d="M7.54764 22.7425C16.6043 22.7425 21.5579 15.2391 21.5579 8.73222C21.5579 8.5191 21.5579 8.30694 21.5435 8.09574C22.5072 7.39869 23.339 6.53562 24.0001 5.54694C23.1014 5.94515 22.1481 6.20629 21.172 6.32166C22.1999 5.70628 22.9692 4.7384 23.3368 3.59814C22.3702 4.1717 21.3127 4.57591 20.21 4.79334C19.4676 4.00392 18.4857 3.48118 17.4163 3.30602C16.3469 3.13087 15.2495 3.31305 14.2941 3.82439C13.3386 4.33573 12.5783 5.14771 12.1309 6.13469C11.6834 7.12166 11.5737 8.2286 11.8187 9.28422C9.861 9.18608 7.94585 8.67734 6.19754 7.79103C4.44923 6.90471 2.90685 5.66064 1.67052 4.13958C1.04085 5.22357 0.847995 6.50681 1.13122 7.728C1.41445 8.94919 2.15246 10.0165 3.195 10.7127C2.41139 10.6895 1.64487 10.4781 0.960122 10.0964C0.960122 10.1165 0.960122 10.1377 0.960122 10.1588C0.960433 11.2956 1.35397 12.3974 2.07399 13.2771C2.79401 14.1569 3.79618 14.7605 4.91052 14.9857C4.1856 15.1834 3.425 15.2123 2.68716 15.0701C3.00181 16.0485 3.61439 16.9041 4.43923 17.5173C5.26407 18.1304 6.25991 18.4704 7.28748 18.4897C5.54387 19.86 3.38994 20.6039 1.17228 20.6017C0.780509 20.6009 0.389118 20.5772 0.00012207 20.5306C2.25193 21.9757 4.87204 22.7422 7.54764 22.7386" fill="currentColor"/>
</svg>
