<svg viewBox="0 0 24 25" fill="none" xmlns="http://www.w3.org/2000/svg">
<path fill-rule="evenodd" clip-rule="evenodd" d="M21.3904 5.10531C22.4184 5.38208 23.2289 6.19262 23.5057 7.22062C24.0197 9.0987 23.9999 13.013 23.9999 13.013C23.9999 13.013 23.9999 16.9076 23.5057 18.7856C23.2289 19.8136 22.4184 20.6242 21.3904 20.901C19.5123 21.3952 11.9999 21.3952 11.9999 21.3952C11.9999 21.3952 4.50739 21.3952 2.60954 20.8812C1.58154 20.6044 0.771002 19.7939 0.494232 18.7659C0 16.9076 0 12.9932 0 12.9932C0 12.9932 0 9.0987 0.494232 7.22062C0.771002 6.19262 1.60131 5.36231 2.60954 5.08554C4.48762 4.59131 11.9999 4.59131 11.9999 4.59131C11.9999 4.59131 19.5123 4.59131 21.3904 5.10531ZM15.855 12.993L9.60791 16.591V9.39502L15.855 12.993Z" fill="currentColor"/>
</svg>
