<svg
                        className="svg"
                        viewBox="0 0 320 248"
                        fill="none"
                        xmlns="http://www.w3.org/2000/svg"
                    >
                        <path
                            d="M195.656 128.808C195.656 182.712 149.158 223.939 96.2507 223.939C43.3432 223.939 0.453125 174.126 0.453125 120.222C0.453125 66.3186 43.3432 28.7363 96.2507 28.7363C149.158 28.7363 195.656 74.9045 195.656 128.808Z"
                            fill="white"
                        />
                        <path
                            fill-rule="evenodd"
                            clip-rule="evenodd"
                            d="M96.2506 29.1892C43.562 29.1892 0.90603 66.5988 0.90603 120.222C0.90603 173.92 43.6355 223.486 96.2506 223.486C148.937 223.486 195.203 182.433 195.203 128.808C195.203 75.1536 148.907 29.1892 96.2506 29.1892ZM0 120.222C0 66.0382 43.1241 28.2832 96.2506 28.2832C149.409 28.2832 196.109 74.6551 196.109 128.808C196.109 182.99 149.379 224.392 96.2506 224.392C43.0506 224.392 0 174.332 0 120.222Z"
                            fill="#374151"
                        />
                        <path
                            d="M179.159 128.837C179.159 173.378 140.739 207.443 97.0219 207.443C53.3049 207.443 17.8652 166.283 17.8652 121.743C17.8652 77.2028 53.3049 46.1489 97.0219 46.1489C140.739 46.1489 179.159 84.2972 179.159 128.837Z"
                            fill="#E5E7EB"
                        />
                        <path
                            fill-rule="evenodd"
                            clip-rule="evenodd"
                            d="M97.0222 46.6018C53.5241 46.6018 18.3185 77.483 18.3185 121.743C18.3185 166.077 53.5976 206.99 97.0222 206.99C140.518 206.99 178.707 173.099 178.707 128.837C178.707 84.5463 140.488 46.6018 97.0222 46.6018ZM17.4125 121.743C17.4125 76.9224 53.0862 45.6958 97.0222 45.6958C140.99 45.6958 179.613 84.0479 179.613 128.837C179.613 173.656 140.96 207.896 97.0222 207.896C53.0127 207.896 17.4125 166.489 17.4125 121.743Z"
                            fill="#374151"
                        />
                        <path
                            d="M160.831 127.926C160.831 162.597 130.924 189.114 96.894 189.114C62.8643 189.114 35.2777 157.075 35.2777 122.404C35.2777 87.7337 62.8643 63.561 96.894 63.561C130.924 63.561 160.831 93.256 160.831 127.926Z"
                            fill="white"
                        />
                        <path
                            fill-rule="evenodd"
                            clip-rule="evenodd"
                            d="M96.8939 64.0144C63.0831 64.0144 35.7306 88.0144 35.7306 122.405C35.7306 156.869 63.1566 188.661 96.8939 188.661C130.703 188.661 160.377 162.319 160.377 127.927C160.377 93.5056 130.672 64.0144 96.8939 64.0144ZM34.8246 122.405C34.8246 87.4537 62.6452 63.1084 96.8939 63.1084C131.175 63.1084 161.283 93.0072 161.283 127.927C161.283 162.876 131.144 189.567 96.8939 189.567C62.5717 189.567 34.8246 157.281 34.8246 122.405Z"
                            fill="#374151"
                        />
                        <path
                            d="M141.585 127.44C141.585 151.481 120.847 169.869 97.2498 169.869C73.6526 169.869 54.5232 147.652 54.5232 123.61C54.5232 99.5687 73.6526 82.8066 97.2498 82.8066C120.847 82.8066 141.585 103.398 141.585 127.44Z"
                            fill="#E5E7EB"
                        />
                        <path
                            fill-rule="evenodd"
                            clip-rule="evenodd"
                            d="M97.2497 83.2595C73.8714 83.2595 54.9761 99.8489 54.9761 123.61C54.9761 147.446 73.9449 169.416 97.2497 169.416C120.626 169.416 141.132 151.203 141.132 127.44C141.132 103.647 120.596 83.2595 97.2497 83.2595ZM54.0701 123.61C54.0701 99.2883 73.4335 82.3535 97.2497 82.3535C121.098 82.3535 142.038 103.149 142.038 127.44C142.038 151.76 121.068 170.322 97.2497 170.322C73.36 170.322 54.0701 147.857 54.0701 123.61Z"
                            fill="#374151"
                        />
                        <path
                            d="M123.256 127.445C123.256 141.617 111.25 152.456 97.5884 152.456C83.9268 152.456 72.8519 139.36 72.8519 125.188C72.8519 111.016 83.9268 101.135 97.5884 101.135C111.25 101.135 123.256 113.273 123.256 127.445Z"
                            fill="white"
                        />
                        <path
                            fill-rule="evenodd"
                            clip-rule="evenodd"
                            d="M97.5883 101.589C84.1536 101.589 73.3048 111.289 73.3048 125.188C73.3048 139.162 84.2263 152.003 97.5883 152.003C111.021 152.003 122.803 141.346 122.803 127.446C122.803 113.515 110.991 101.589 97.5883 101.589ZM72.3988 125.188C72.3988 110.744 83.6998 100.683 97.5883 100.683C111.509 100.683 123.709 113.032 123.709 127.446C123.709 141.889 111.479 152.91 97.5883 152.91C83.6271 152.91 72.3988 139.558 72.3988 125.188Z"
                            fill="#374151"
                        />
                        <path
                            d="M108.593 126.605C108.593 132.425 103.573 136.877 97.8595 136.877C92.1465 136.877 87.5151 131.498 87.5151 125.678C87.5151 119.857 92.1465 115.799 97.8595 115.799C103.573 115.799 108.593 120.784 108.593 126.605Z"
                            fill="#E5E7EB"
                        />
                        <path
                            fill-rule="evenodd"
                            clip-rule="evenodd"
                            d="M97.8597 116.252C92.3657 116.252 87.9684 120.137 87.9684 125.677C87.9684 131.292 92.4391 136.424 97.8597 136.424C103.352 136.424 108.141 132.147 108.141 126.605C108.141 121.033 103.322 116.252 97.8597 116.252ZM87.0624 125.677C87.0624 119.577 91.9277 115.346 97.8597 115.346C103.824 115.346 109.047 120.535 109.047 126.605C109.047 132.704 103.794 137.33 97.8597 137.33C91.8543 137.33 87.0624 131.704 87.0624 125.677Z"
                            fill="#374151"
                        />
                        <path
                            d="M157.781 46.8839C157.183 48.1528 156.954 48.9436 156.782 50.3358C158.126 51.2116 158.741 51.9702 160.224 52.5783C163.148 53.7782 174.177 48.172 174.776 47.5141C174.31 44.8853 172.787 41.6652 172.787 41.6652C172.787 41.6652 159.505 43.2261 157.781 46.8839Z"
                            fill="#374151"
                        />
                        <path
                            fill-rule="evenodd"
                            clip-rule="evenodd"
                            d="M173.196 41.4718L172.787 41.6655L172.734 41.2155L173.057 41.1775L173.196 41.4718ZM156.714 50.8345C157.088 51.0877 157.4 51.3266 157.708 51.563C157.864 51.6827 158.019 51.8019 158.181 51.9219C158.706 52.3105 159.264 52.6747 160.051 52.9977C160.51 53.1861 161.083 53.2261 161.694 53.1844C162.313 53.1422 163.015 53.0126 163.757 52.8253C165.243 52.4504 166.937 51.8323 168.546 51.1613C170.157 50.4893 171.694 49.7592 172.868 49.1547C173.454 48.8526 173.953 48.5802 174.327 48.3608C174.514 48.2513 174.673 48.1528 174.798 48.0688C174.911 47.9934 175.032 47.9059 175.11 47.8194L175.261 47.6547L175.222 47.4352C174.981 46.0775 174.471 44.5831 174.029 43.4405C173.807 42.8665 173.599 42.3757 173.447 42.0281C173.371 41.8543 173.309 41.716 173.265 41.6208C173.244 41.5732 173.227 41.5364 173.215 41.5113L173.201 41.4824L173.197 41.4727C173.197 41.4727 173.196 41.4718 172.787 41.6655C172.734 41.2155 172.734 41.2155 172.734 41.2155L172.723 41.2168L172.694 41.2203C172.668 41.2235 172.63 41.2282 172.581 41.2344C172.481 41.2469 172.337 41.2657 172.152 41.2908C171.782 41.341 171.253 41.4168 170.613 41.5192C169.334 41.7238 167.607 42.0353 165.825 42.4626C164.045 42.8891 162.193 43.4347 160.669 44.1116C159.906 44.4501 159.214 44.8268 158.65 45.2462C158.089 45.6634 157.63 46.1414 157.371 46.691C156.795 47.9138 156.545 48.7241 156.37 49.9936L145.809 53.4217L146.089 54.2834L156.714 50.8345ZM157.268 50.1155C157.651 50.3775 157.983 50.632 158.288 50.8661C158.438 50.9806 158.581 51.0902 158.72 51.1935C159.209 51.5552 159.7 51.8743 160.395 52.1594C160.667 52.271 161.078 52.3183 161.633 52.2805C162.179 52.2432 162.823 52.1265 163.536 51.9468C164.96 51.5874 166.608 50.9879 168.197 50.3251C169.784 49.6632 171.299 48.9435 172.453 48.3492C173.03 48.0519 173.514 47.7878 173.869 47.5793C174.039 47.4795 174.176 47.3945 174.279 47.3262C174.037 46.125 173.589 44.8141 173.184 43.7677C172.967 43.2081 172.765 42.7295 172.617 42.3912C172.578 42.3031 172.544 42.2245 172.513 42.1566C172.443 42.1657 172.363 42.1764 172.274 42.1886C171.91 42.238 171.388 42.3127 170.756 42.4138C169.491 42.6162 167.789 42.9235 166.036 43.3437C164.279 43.7646 162.488 44.2951 161.036 44.9396C160.311 45.2618 159.683 45.6071 159.191 45.9732C158.695 46.3415 158.362 46.7124 158.19 47.0773C157.654 48.2162 157.43 48.9396 157.268 50.1155Z"
                            fill="#374151"
                        />
                        <path
                            d="M174.964 47.4833C174.489 44.8607 172.952 41.6461 172.952 41.6461L200.944 34.4182C203.578 29.1049 209.584 18.1953 212.543 17.0631C216.241 15.6477 227.449 20.9612 219.105 28.4882C224.11 29.6602 231.912 35.3776 223.817 40.6211C218.456 44.3721 207.336 40.2715 202.446 37.7523L174.964 47.4833Z"
                            fill="white"
                        />
                        <path
                            fill-rule="evenodd"
                            clip-rule="evenodd"
                            d="M216.176 17.6279C214.775 17.2227 213.495 17.1836 212.705 17.4862C212.414 17.5976 212.046 17.8472 211.61 18.2491C211.179 18.6458 210.707 19.1673 210.205 19.7897C209.201 21.0343 208.102 22.6529 207.006 24.4123C204.938 27.7326 202.903 31.5206 201.578 34.1619C202.117 34.3896 202.47 34.6764 202.698 34.9484C202.756 35.0173 202.805 35.0842 202.846 35.1478C202.989 35.0886 203.168 35.0147 203.376 34.9286C203.953 34.6891 204.758 34.3546 205.665 33.9748C207.479 33.2147 209.701 32.2743 211.338 31.5497C213.22 30.7159 215.114 29.8482 216.537 29.1887C217.248 28.859 217.842 28.5814 218.258 28.3863C218.465 28.2888 218.629 28.2119 218.74 28.1594L218.85 28.1074C220.848 26.2906 221.609 24.6681 221.667 23.3094C221.725 21.9443 221.076 20.7379 220.029 19.752C218.98 18.764 217.561 18.0285 216.176 17.6279ZM220 28.2625C221.724 26.5366 222.507 24.8812 222.572 23.3477C222.644 21.6438 221.825 20.199 220.65 19.0925C219.478 17.9883 217.924 17.1903 216.428 16.7575C214.947 16.3293 213.439 16.2349 212.381 16.64C211.932 16.8117 211.465 17.1507 210.996 17.5828C210.521 18.0202 210.018 18.5783 209.5 19.2209C208.463 20.5063 207.342 22.1596 206.237 23.9333C204.077 27.4008 201.959 31.365 200.63 34.0313L172.84 41.2073L172.306 41.345L172.544 41.8414L172.547 41.8495L172.56 41.8756C172.571 41.8989 172.587 41.9337 172.608 41.9792C172.65 42.0703 172.711 42.2039 172.786 42.3727C172.935 42.7104 173.139 43.1881 173.358 43.7466C173.798 44.8691 174.288 46.2961 174.518 47.564L174.613 48.0881L202.414 38.2444C204.898 39.5057 208.846 41.12 212.86 41.981C216.933 42.8547 221.222 42.9851 224.07 40.9969C226.142 39.6536 227.271 38.2322 227.639 36.7898C228.009 35.3346 227.578 33.9573 226.744 32.7678C225.262 30.6532 222.428 29.0094 220 28.2625ZM203.077 37.5637C205.519 38.7776 209.262 40.2826 213.05 41.0951C217.096 41.963 221.045 42.008 223.557 40.2499L223.564 40.2453L223.571 40.2409C225.542 38.9638 226.471 37.7058 226.76 36.5664C227.048 35.4382 226.733 34.3297 226.002 33.2879C224.552 31.219 221.561 29.5685 219.153 28.9662L219.127 28.9788C219.015 29.0316 218.851 29.1087 218.642 29.2065C218.226 29.4021 217.631 29.6803 216.918 30.0107C215.492 30.6714 213.594 31.5415 211.704 32.3781C210.059 33.1067 207.83 34.0501 206.015 34.8105C205.107 35.1908 204.301 35.5257 203.723 35.7656C203.499 35.8582 203.309 35.9367 203.161 35.9981C203.186 36.118 203.209 36.2585 203.222 36.4118C203.251 36.7356 203.24 37.1585 203.077 37.5637ZM202.195 35.8884L202.194 35.8874L202.181 35.8513L202.176 35.8224C202.176 35.822 202.176 35.8215 202.175 35.8209C202.173 35.8128 202.167 35.7946 202.156 35.7683C202.133 35.7161 202.088 35.6311 202.004 35.5305C201.848 35.3448 201.539 35.0833 200.934 34.8887L173.589 41.9496C173.597 41.9679 173.606 41.9868 173.614 42.006C173.768 42.353 173.977 42.8429 174.202 43.4159C174.592 44.4119 175.035 45.6757 175.304 46.8822L202.162 37.3723C202.313 37.1289 202.348 36.8109 202.32 36.4913C202.305 36.318 202.272 36.1633 202.243 36.0517C202.229 35.9964 202.216 35.9529 202.207 35.9244C202.204 35.9161 202.202 35.9091 202.2 35.9035C202.199 35.8996 202.198 35.8963 202.197 35.8938L202.195 35.8884Z"
                            fill="#374151"
                        />
                        <path
                            d="M203.175 190.528C201.954 191.218 201.311 191.732 200.366 192.768C200.957 194.26 201.02 195.234 201.879 196.587C203.572 199.256 215.813 201.053 216.682 200.863C217.82 198.448 218.438 194.94 218.438 194.94C218.438 194.94 206.696 188.539 203.175 190.528Z"
                            fill="#374151"
                        />
                        <path
                            fill-rule="evenodd"
                            clip-rule="evenodd"
                            d="M218.884 195.019L218.438 194.94L218.655 194.543L218.941 194.698L218.884 195.019ZM200.022 193.136C200.182 193.56 200.298 193.934 200.412 194.305C200.471 194.493 200.528 194.68 200.591 194.872C200.796 195.492 201.04 196.112 201.496 196.83C201.762 197.249 202.206 197.613 202.729 197.932C203.259 198.256 203.906 198.555 204.62 198.831C206.049 199.383 207.789 199.858 209.49 200.24C211.193 200.622 212.87 200.915 214.177 201.1C214.83 201.192 215.395 201.258 215.827 201.295C216.043 201.314 216.229 201.325 216.38 201.329C216.515 201.332 216.665 201.331 216.779 201.306L216.997 201.258L217.092 201.056C217.68 199.809 218.127 198.295 218.426 197.107C218.577 196.51 218.691 195.989 218.768 195.618C218.806 195.432 218.835 195.283 218.855 195.18C218.864 195.129 218.872 195.089 218.877 195.062L218.882 195.031L218.884 195.02C218.884 195.02 218.884 195.019 218.438 194.94C218.655 194.543 218.655 194.543 218.655 194.543L218.646 194.538L218.62 194.523C218.597 194.511 218.563 194.493 218.519 194.469C218.431 194.422 218.302 194.354 218.136 194.268C217.806 194.095 217.33 193.851 216.749 193.565C215.586 192.993 213.997 192.249 212.295 191.568C210.597 190.888 208.77 190.263 207.135 189.935C206.317 189.771 205.534 189.678 204.831 189.694C204.132 189.711 203.481 189.835 202.953 190.134C201.776 190.799 201.104 191.316 200.227 192.251L189.627 188.947L189.358 189.812L200.022 193.136ZM200.889 192.87C201.051 193.305 201.175 193.705 201.289 194.072C201.345 194.252 201.398 194.424 201.452 194.589C201.642 195.166 201.858 195.711 202.261 196.345C202.418 196.593 202.727 196.869 203.201 197.159C203.668 197.444 204.262 197.721 204.947 197.986C206.317 198.516 208.009 198.979 209.689 199.356C211.366 199.733 213.018 200.021 214.304 200.202C214.947 200.293 215.494 200.357 215.904 200.392C216.101 200.409 216.262 200.419 216.385 200.423C216.882 199.302 217.274 197.974 217.548 196.886C217.694 196.304 217.806 195.796 217.88 195.435C217.9 195.34 217.917 195.256 217.931 195.183C217.869 195.15 217.798 195.113 217.717 195.071C217.392 194.901 216.923 194.66 216.348 194.378C215.199 193.812 213.632 193.079 211.959 192.409C210.282 191.738 208.513 191.135 206.956 190.823C206.178 190.667 205.466 190.586 204.853 190.6C204.235 190.614 203.749 190.725 203.398 190.923C202.302 191.543 201.701 192.004 200.889 192.87Z"
                            fill="#374151"
                        />
                        <path
                            d="M216.853 200.947C217.981 198.532 218.584 195.02 218.584 195.02L245.606 205.295C250.826 202.481 262.032 197.047 265.101 197.833C268.937 198.815 275.014 209.627 263.854 210.949C267.263 214.798 270.326 223.972 260.69 223.574C254.147 223.538 247.441 213.766 244.906 208.885L216.853 200.947Z"
                            fill="white"
                        />
                        <path
                            fill-rule="evenodd"
                            clip-rule="evenodd"
                            d="M267.74 200.393C266.831 199.253 265.809 198.482 264.989 198.272C264.687 198.194 264.243 198.186 263.654 198.262C263.074 198.337 262.387 198.49 261.618 198.708C260.079 199.143 258.247 199.829 256.336 200.632C252.729 202.147 248.88 204.063 246.272 205.453C246.58 205.95 246.703 206.388 246.732 206.742C246.739 206.831 246.74 206.914 246.737 206.99C246.889 207.024 247.077 207.067 247.296 207.117C247.906 207.255 248.756 207.447 249.716 207.661C251.636 208.09 253.993 208.606 255.747 208.96C257.765 209.367 259.812 209.753 261.354 210.037C262.126 210.179 262.77 210.296 263.222 210.377C263.448 210.417 263.626 210.449 263.747 210.47L263.867 210.491C266.547 210.163 268.107 209.279 268.939 208.203C269.775 207.122 269.942 205.763 269.657 204.353C269.372 202.941 268.639 201.52 267.74 200.393ZM264.716 211.282C267.12 210.87 268.716 209.971 269.655 208.757C270.699 207.408 270.865 205.756 270.546 204.174C270.227 202.595 269.419 201.046 268.448 199.828C267.488 198.623 266.311 197.675 265.213 197.394C264.748 197.275 264.171 197.282 263.538 197.363C262.898 197.446 262.165 197.611 261.371 197.836C259.782 198.286 257.911 198.987 255.985 199.796C252.218 201.378 248.199 203.39 245.574 204.798L218.746 194.597L218.231 194.401L218.138 194.944L218.136 194.952L218.131 194.981C218.127 195.006 218.12 195.044 218.111 195.093C218.092 195.192 218.065 195.336 218.028 195.517C217.955 195.879 217.846 196.387 217.702 196.969C217.412 198.14 216.988 199.588 216.443 200.755L216.217 201.238L244.595 209.267C245.894 211.733 248.184 215.331 250.962 218.353C253.781 221.42 257.206 224.004 260.68 224.027C263.147 224.128 264.89 223.621 266.023 222.656C267.166 221.682 267.611 220.309 267.617 218.856C267.629 216.274 266.266 213.295 264.716 211.282ZM245.53 209.095C246.821 211.497 249.007 214.888 251.629 217.74C254.43 220.786 257.626 223.105 260.693 223.121L260.701 223.122L260.709 223.122C263.056 223.219 264.541 222.728 265.436 221.966C266.322 221.211 266.705 220.125 266.711 218.852C266.723 216.326 265.235 213.25 263.619 211.367L263.589 211.362C263.468 211.341 263.289 211.309 263.063 211.268C262.61 211.187 261.963 211.071 261.19 210.928C259.645 210.644 257.593 210.257 255.568 209.848C253.804 209.492 251.439 208.974 249.518 208.546C248.557 208.331 247.706 208.139 247.096 208.001C246.86 207.947 246.66 207.902 246.503 207.866C246.454 207.978 246.392 208.106 246.314 208.239C246.15 208.52 245.897 208.859 245.53 209.095ZM245.778 207.218L245.778 207.217L245.788 207.18L245.8 207.153C245.801 207.153 245.801 207.152 245.801 207.152C245.804 207.144 245.809 207.126 245.815 207.098C245.827 207.042 245.839 206.946 245.829 206.816C245.809 206.574 245.708 206.182 245.326 205.674L218.929 195.636C218.925 195.656 218.921 195.676 218.916 195.697C218.841 196.068 218.729 196.589 218.581 197.187C218.325 198.225 217.956 199.512 217.478 200.653L244.894 208.41C245.158 208.299 245.37 208.06 245.531 207.782C245.619 207.632 245.682 207.487 245.723 207.379C245.743 207.326 245.758 207.283 245.767 207.254C245.769 207.246 245.772 207.239 245.773 207.233C245.775 207.229 245.775 207.226 245.776 207.224L245.778 207.218Z"
                            fill="#374151"
                        />
                        <path
                            d="M225.436 120.065C225.065 121.418 224.976 122.236 225.046 123.637C226.521 124.269 227.257 124.91 228.822 125.254C231.909 125.933 241.808 118.512 242.285 117.761C241.373 115.251 239.32 112.341 239.32 112.341C239.32 112.341 226.504 116.165 225.436 120.065Z"
                            fill="#374151"
                        />
                        <path
                            fill-rule="evenodd"
                            clip-rule="evenodd"
                            d="M239.69 112.08L239.32 112.342L239.19 111.907L239.502 111.814L239.69 112.08ZM225.065 124.14C225.477 124.325 225.825 124.507 226.169 124.687C226.344 124.778 226.517 124.869 226.697 124.959C227.282 125.251 227.894 125.514 228.725 125.697C229.209 125.803 229.781 125.744 230.375 125.598C230.978 125.45 231.647 125.201 232.346 124.889C233.744 124.264 235.307 123.364 236.776 122.426C238.248 121.486 239.636 120.503 240.688 119.705C241.214 119.307 241.659 118.952 241.99 118.672C242.155 118.532 242.295 118.407 242.403 118.303C242.501 118.209 242.605 118.102 242.668 118.004L242.787 117.816L242.711 117.606C242.24 116.31 241.481 114.926 240.849 113.876C240.531 113.349 240.242 112.901 240.032 112.585C239.928 112.427 239.842 112.301 239.783 112.215C239.754 112.172 239.731 112.139 239.715 112.116L239.697 112.09L239.69 112.081C239.69 112.081 239.69 112.08 239.32 112.342C239.19 111.907 239.19 111.907 239.19 111.907L239.18 111.91L239.152 111.919C239.127 111.927 239.09 111.938 239.042 111.952C238.947 111.982 238.807 112.025 238.63 112.082C238.274 112.195 237.766 112.361 237.153 112.572C235.928 112.993 234.281 113.597 232.599 114.325C230.919 115.052 229.188 115.908 227.803 116.837C227.111 117.302 226.494 117.792 226.01 118.302C225.529 118.81 225.159 119.36 224.999 119.946C224.642 121.249 224.535 122.091 224.581 123.371L214.768 128.566L215.192 129.367L225.065 124.14ZM225.487 123.337C225.91 123.529 226.28 123.722 226.621 123.9C226.788 123.988 226.948 124.071 227.103 124.149C227.647 124.421 228.185 124.651 228.919 124.812C229.206 124.875 229.62 124.851 230.159 124.718C230.691 124.587 231.306 124.361 231.976 124.062C233.317 123.463 234.838 122.588 236.289 121.662C237.738 120.737 239.107 119.767 240.141 118.983C240.659 118.591 241.089 118.247 241.404 117.981C241.554 117.853 241.675 117.746 241.764 117.661C241.319 116.519 240.652 115.305 240.073 114.344C239.763 113.83 239.481 113.393 239.277 113.086C239.224 113.006 239.176 112.934 239.135 112.872C239.068 112.893 238.991 112.918 238.904 112.945C238.555 113.056 238.053 113.22 237.448 113.428C236.237 113.845 234.613 114.441 232.958 115.157C231.3 115.874 229.627 116.705 228.308 117.589C227.649 118.032 227.09 118.48 226.668 118.925C226.243 119.373 225.979 119.796 225.873 120.185C225.54 121.399 225.444 122.151 225.487 123.337Z"
                            fill="#374151"
                        />
                        <path
                            d="M242.466 117.698C241.547 115.197 239.48 112.294 239.48 112.294L265.809 100.356C267.489 94.669 271.528 82.8884 274.248 81.2637C277.647 79.2329 289.602 82.5379 282.678 91.3889C287.811 91.6818 296.48 95.971 289.408 102.53C284.773 107.147 273.114 105.022 267.863 103.382L242.466 117.698Z"
                            fill="white"
                        />
                        <path
                            fill-rule="evenodd"
                            clip-rule="evenodd"
                            d="M277.924 81.1945C276.474 81.0365 275.207 81.2183 274.48 81.6525C274.212 81.8123 273.893 82.1215 273.533 82.5924C273.177 83.0574 272.802 83.6523 272.414 84.3519C271.64 85.7507 270.835 87.5343 270.058 89.4561C268.593 93.0828 267.241 97.1645 266.39 99.9945C266.96 100.126 267.357 100.348 267.628 100.576C267.697 100.634 267.757 100.692 267.809 100.747C267.94 100.664 268.103 100.561 268.292 100.44C268.82 100.105 269.555 99.637 270.383 99.1067C272.04 98.0456 274.067 96.7369 275.554 95.7414C277.265 94.596 278.981 93.4153 280.269 92.5207C280.913 92.0734 281.45 91.6979 281.826 91.4341C282.014 91.3023 282.162 91.1984 282.262 91.1275L282.362 91.0574C284.017 88.9239 284.488 87.1944 284.311 85.8461C284.133 84.4915 283.286 83.4147 282.085 82.6238C280.882 81.831 279.357 81.3508 277.924 81.1945ZM283.521 91.0122C284.922 89.0153 285.409 87.2498 285.209 85.728C284.987 84.0371 283.931 82.755 282.583 81.8672C281.239 80.9812 279.57 80.4627 278.022 80.2939C276.49 80.1268 274.988 80.2934 274.015 80.8747C273.603 81.121 273.201 81.5354 272.813 82.0418C272.421 82.5543 272.022 83.1907 271.622 83.9129C270.822 85.3576 270.001 87.1793 269.218 89.1166C267.688 92.9042 266.283 97.1738 265.434 100.029L239.293 111.881L238.791 112.109L239.111 112.557L239.116 112.564L239.132 112.588C239.147 112.609 239.169 112.641 239.198 112.682C239.255 112.764 239.338 112.885 239.44 113.039C239.646 113.346 239.929 113.781 240.241 114.294C240.868 115.324 241.596 116.645 242.04 117.854L242.224 118.354L267.916 103.872C270.58 104.687 274.747 105.598 278.849 105.755C283.012 105.915 287.259 105.305 289.722 102.856C291.532 101.176 292.4 99.5815 292.514 98.0974C292.628 96.6002 291.967 95.3176 290.94 94.2894C289.116 92.4615 286.042 91.33 283.521 91.0122ZM268.452 103.088C271.066 103.863 275.013 104.701 278.884 104.85C283.019 105.008 286.916 104.373 289.089 102.208L289.094 102.203L289.1 102.197C290.823 100.6 291.521 99.2008 291.61 98.0285C291.699 96.8677 291.198 95.83 290.299 94.9294C288.514 93.141 285.283 92.0301 282.808 91.8511L282.784 91.8682C282.683 91.9394 282.535 92.0436 282.347 92.1758C281.97 92.4403 281.431 92.8167 280.786 93.2649C279.495 94.1611 277.775 95.345 276.058 96.4943C274.563 97.4953 272.529 98.8082 270.872 99.8697C270.043 100.401 269.307 100.869 268.778 101.205C268.574 101.335 268.401 101.445 268.265 101.531C268.31 101.645 268.357 101.779 268.397 101.928C268.481 102.242 268.543 102.66 268.452 103.088ZM267.295 101.589L267.294 101.588L267.275 101.555L267.264 101.527C267.264 101.527 267.264 101.526 267.264 101.526C267.26 101.518 267.251 101.501 267.235 101.478C267.204 101.43 267.145 101.354 267.045 101.269C266.859 101.113 266.51 100.909 265.88 100.821L240.159 112.484C240.17 112.5 240.182 112.517 240.193 112.535C240.404 112.85 240.695 113.297 241.015 113.823C241.571 114.737 242.225 115.905 242.697 117.048L267.518 103.056C267.624 102.791 267.604 102.471 267.521 102.161C267.477 101.993 267.418 101.847 267.37 101.742C267.347 101.69 267.326 101.649 267.313 101.623C267.308 101.615 267.305 101.608 267.302 101.603C267.3 101.599 267.299 101.596 267.297 101.594L267.295 101.589Z"
                            fill="#374151"
                        />
                        <path
                            d="M252.414 55.1844C254.636 58.7055 259.695 65.634 262.161 65.1787C265.243 64.6096 250.703 51.2676 252.414 55.1844Z"
                            fill="#374151"
                        />
                        <path
                            d="M276.405 60.2512C275.929 59.1632 273.747 51.824 276.519 51.1313C279.291 50.4386 277.811 61.7101 276.405 60.2512Z"
                            fill="#374151"
                        />
                        <path
                            fill-rule="evenodd"
                            clip-rule="evenodd"
                            d="M262.947 65.1301C262.803 65.4209 262.533 65.5705 262.243 65.6241C261.821 65.702 261.381 65.616 260.956 65.4444C260.528 65.272 260.085 65.001 259.639 64.6669C258.746 63.9989 257.789 63.0386 256.855 61.9709C254.984 59.8323 253.15 57.1992 252.031 55.4261L252.013 55.3971L251.999 55.3657C251.888 55.1121 251.8 54.8417 251.825 54.5997C251.838 54.4636 251.891 54.3029 252.028 54.178C252.163 54.0551 252.324 54.0182 252.45 54.0132C252.68 54.0042 252.925 54.0951 253.135 54.1934C253.362 54.2999 253.62 54.4519 253.898 54.6354C255.006 55.3666 256.59 56.7068 258.115 58.1726C259.641 59.639 261.14 61.2603 262.066 62.5636C262.522 63.2042 262.876 63.8169 262.997 64.3189C263.058 64.5701 263.078 64.8647 262.947 65.1301ZM252.885 55.0815C253.032 55.1593 253.204 55.2628 253.399 55.3916C254.439 56.0782 255.977 57.3746 257.487 58.8259C258.997 60.2765 260.449 61.8526 261.328 63.0887C261.776 63.7177 262.039 64.2101 262.116 64.5313C262.142 64.6386 262.139 64.695 262.136 64.7178C262.125 64.7221 262.107 64.7278 262.078 64.7331C261.884 64.769 261.627 64.7381 261.295 64.6042C260.965 64.4711 260.591 64.248 260.182 63.9416C259.362 63.3285 258.453 62.4219 257.537 61.3743C255.754 59.337 253.995 56.8259 252.885 55.0815ZM262.149 64.7104C262.15 64.7105 262.148 64.7117 262.145 64.7137C262.147 64.7112 262.149 64.7103 262.149 64.7104ZM276.711 59.7912C276.789 59.6657 276.881 59.4706 276.978 59.195C277.254 58.4036 277.479 57.1947 277.577 55.9431C277.675 54.6883 277.641 53.4452 277.428 52.5767C277.321 52.1371 277.18 51.8479 277.036 51.6923C276.919 51.5666 276.805 51.5266 276.629 51.5707C276.178 51.6834 275.868 52.0661 275.707 52.7934C275.546 53.5203 275.567 54.4758 275.694 55.4865C275.913 57.2368 276.434 59.0215 276.711 59.7912ZM276.589 59.9444C276.588 59.9452 276.588 59.9455 276.588 59.9454L276.589 59.9444ZM274.823 52.5974C275.017 51.7198 275.474 50.9253 276.409 50.6917C276.926 50.5626 277.372 50.7233 277.7 51.0757C277.999 51.3983 278.187 51.8646 278.308 52.3615C278.554 53.366 278.581 54.7197 278.48 56.0138C278.379 57.3111 278.143 58.6033 277.833 59.4934C277.683 59.9232 277.493 60.3272 277.245 60.5723C277.115 60.7002 276.925 60.8281 276.68 60.8344C276.425 60.8409 276.222 60.7148 276.078 60.5655L276.022 60.507L275.989 60.4325C275.733 59.845 275.058 57.6956 274.795 55.5994C274.663 54.5526 274.628 53.4754 274.823 52.5974Z"
                            fill="#374151"
                        />
                        <path
                            d="M318.819 104.496C314.995 102.848 306.904 99.9961 305.128 101.766C302.909 103.978 322.446 106.758 318.819 104.496Z"
                            fill="#374151"
                        />
                        <path
                            d="M296.168 113.886C297.176 114.514 303.126 119.333 301.232 121.472C299.338 123.611 294.184 113.478 296.168 113.886Z"
                            fill="#374151"
                        />
                        <path
                            fill-rule="evenodd"
                            clip-rule="evenodd"
                            d="M304.508 102.25C304.462 101.929 304.6 101.654 304.809 101.445C305.113 101.142 305.524 100.964 305.972 100.865C306.422 100.766 306.941 100.739 307.498 100.762C308.612 100.808 309.944 101.058 311.319 101.411C314.071 102.116 317.073 103.25 318.999 104.08L319.03 104.093L319.059 104.111C319.294 104.258 319.519 104.431 319.636 104.644C319.702 104.764 319.749 104.927 319.707 105.108C319.665 105.285 319.553 105.406 319.452 105.482C319.268 105.619 319.014 105.683 318.786 105.721C318.538 105.761 318.239 105.782 317.906 105.788C316.579 105.811 314.515 105.602 312.428 105.256C310.34 104.91 308.187 104.42 306.686 103.869C305.947 103.599 305.309 103.293 304.925 102.948C304.733 102.775 304.55 102.543 304.508 102.25ZM318.489 104.847C318.324 104.866 318.124 104.878 317.89 104.882C316.644 104.904 314.642 104.705 312.576 104.362C310.51 104.02 308.422 103.541 306.997 103.019C306.273 102.753 305.777 102.496 305.532 102.275C305.45 102.201 305.42 102.153 305.41 102.132C305.416 102.123 305.428 102.108 305.449 102.087C305.589 101.947 305.818 101.827 306.168 101.75C306.515 101.673 306.95 101.646 307.461 101.667C308.483 101.709 309.745 101.943 311.094 102.288C313.716 102.96 316.588 104.036 318.489 104.847ZM305.403 102.146C305.403 102.146 305.403 102.144 305.405 102.14C305.404 102.144 305.403 102.146 305.403 102.146ZM296.176 114.439C296.183 114.586 296.217 114.799 296.294 115.081C296.514 115.89 297.012 117.014 297.639 118.101C298.267 119.192 298.999 120.198 299.665 120.794C300.003 121.095 300.282 121.255 300.489 121.301C300.656 121.339 300.773 121.308 300.893 121.171C301.201 120.823 301.24 120.333 300.962 119.642C300.684 118.951 300.126 118.175 299.45 117.413C298.279 116.094 296.84 114.917 296.176 114.439ZM296.19 114.243C296.191 114.242 296.191 114.241 296.191 114.241L296.19 114.243ZM301.802 119.303C302.138 120.137 302.211 121.051 301.572 121.772C301.219 122.171 300.76 122.291 300.29 122.185C299.861 122.088 299.442 121.81 299.061 121.469C298.29 120.779 297.502 119.679 296.854 118.554C296.204 117.427 295.667 116.228 295.419 115.319C295.3 114.879 295.228 114.439 295.294 114.096C295.329 113.917 295.413 113.704 295.612 113.56C295.818 113.411 296.057 113.4 296.26 113.442L296.34 113.458L296.409 113.501C296.953 113.841 298.725 115.232 300.128 116.811C300.828 117.6 301.466 118.469 301.802 119.303Z"
                            fill="#374151"
                        />
                    </svg>