<svg width="106" height="120" viewBox="0 0 106 120" fill="none" xmlns="http://www.w3.org/2000/svg">
<path d="M0.775696 21.9291C0.34729 18.6845 2.63059 15.7091 5.87559 15.2835L77.1125 5.93897C80.3575 5.5133 83.3354 7.79853 83.7638 11.0432L95.9369 103.239C96.3653 106.484 94.082 109.459 90.837 109.885L19.6001 119.229C16.3551 119.655 13.3772 117.37 12.9488 114.125L0.775696 21.9291Z" fill="#F9FAFB"/>
<path fill-rule="evenodd" clip-rule="evenodd" d="M77.2095 6.67333L5.97255 16.0178C3.13318 16.3903 1.13529 18.9937 1.51014 21.8328L13.6832 114.029C14.0581 116.868 16.6637 118.867 19.5031 118.495L90.74 109.15C93.5794 108.778 95.5773 106.174 95.2025 103.335L83.0294 11.1395C82.6545 8.30046 80.0489 6.30088 77.2095 6.67333ZM5.87559 15.2835C2.63059 15.7091 0.34729 18.6845 0.775696 21.9291L12.9488 114.125C13.3772 117.37 16.3551 119.655 19.6001 119.229L90.837 109.885C94.082 109.459 96.3653 106.484 95.9369 103.239L83.7638 11.0432C83.3354 7.79853 80.3575 5.5133 77.1125 5.93897L5.87559 15.2835Z" fill="#9CA3AF"/>
<path d="M22.2227 5.92593C22.2227 2.65314 24.8758 0 28.1486 0H86.9241C87.7083 0 88.4604 0.310841 89.0158 0.864412L104.184 15.983C105.299 17.0948 105.926 18.6051 105.926 20.1801V98.9161C105.926 102.189 103.273 104.842 100 104.842H28.1486C24.8758 104.842 22.2227 102.189 22.2227 98.9161V5.92593Z" fill="white"/>
<path fill-rule="evenodd" clip-rule="evenodd" d="M105.186 98.9161V20.1801C105.186 18.8019 104.637 17.4805 103.661 16.5076L88.4929 1.38905C88.0764 0.973872 87.5122 0.740741 86.9241 0.740741H28.1486C25.2849 0.740741 22.9634 3.06223 22.9634 5.92593V98.9161C22.9634 101.78 25.2849 104.101 28.1486 104.101H100C102.864 104.101 105.186 101.78 105.186 98.9161ZM28.1486 0C24.8758 0 22.2227 2.65314 22.2227 5.92593V98.9161C22.2227 102.189 24.8758 104.842 28.1486 104.842H100C103.273 104.842 105.926 102.189 105.926 98.9161V20.1801C105.926 18.6051 105.299 17.0948 104.184 15.983L89.0158 0.864412C88.4604 0.310841 87.7083 0 86.9241 0H28.1486Z" fill="#9CA3AF"/>
<path fill-rule="evenodd" clip-rule="evenodd" d="M86.2969 14.7472V0H87.0376V14.7472C87.0376 17.8154 89.5249 20.3027 92.5932 20.3027H105.927V21.0435H92.5932C89.1158 21.0435 86.2969 18.2245 86.2969 14.7472Z" fill="#9CA3AF"/>
<path fill-rule="evenodd" clip-rule="evenodd" d="M91.1122 31.7481L37.0381 31.7481V31.0073L91.1122 31.0073V31.7481Z" fill="#6B7280"/>
<path fill-rule="evenodd" clip-rule="evenodd" d="M91.1122 43.5612L37.0381 43.5612V42.8204L91.1122 42.8204V43.5612Z" fill="#6B7280"/>
<path fill-rule="evenodd" clip-rule="evenodd" d="M91.1122 55.3744L37.0381 55.3744V54.6337L91.1122 54.6337V55.3744Z" fill="#6B7280"/>
<path fill-rule="evenodd" clip-rule="evenodd" d="M91.1122 67.1875L37.0381 67.1875V66.4468L91.1122 66.4468V67.1875Z" fill="#6B7280"/>
<path fill-rule="evenodd" clip-rule="evenodd" d="M64.4455 79.0008L37.0381 79.0008V78.26L64.4455 78.26V79.0008Z" fill="#6B7280"/>
</svg>
