<svg viewBox="0 0 24 24" fill="none" xmlns="http://www.w3.org/2000/svg">
<path fill-rule="evenodd" clip-rule="evenodd" d="M0.0703125 1.71921C0.0703125 0.769972 0.859331 0 1.83268 0H22.1566C23.13 0 23.919 0.769972 23.919 1.71921V22.2808C23.919 23.2303 23.13 24 22.1566 24H1.83268C0.859331 24 0.0703125 23.2303 0.0703125 22.2808V1.71921ZM7.29944 20.0903V9.25299H3.69731V20.0903H7.29944ZM5.49836 7.77333C6.7545 7.77333 7.53634 6.94114 7.53634 5.90115C7.51293 4.83775 6.7545 4.02865 5.52219 4.02865C4.29001 4.02865 3.48438 4.83775 3.48438 5.90115C3.48438 6.94114 4.26605 7.77333 5.47488 7.77333H5.49836ZM12.8951 20.0903H9.29307C9.29307 20.0903 9.34034 10.2699 9.29307 9.25299H12.8952V10.7874C12.887 10.7999 12.879 10.8123 12.8711 10.8247H12.8952V10.7874C13.3739 10.0489 14.2306 8.99868 16.1414 8.99868C18.5113 8.99868 20.2884 10.5476 20.2884 13.8764V20.0903H16.6866V14.2926C16.6866 12.8357 16.1652 11.8419 14.8618 11.8419C13.8667 11.8419 13.274 12.5121 13.0136 13.1593C12.9185 13.3908 12.8951 13.7144 12.8951 14.0383V20.0903Z" fill="currentColor"/>
</svg>
