<svg viewBox="0 0 24 24" fill="none" xmlns="http://www.w3.org/2000/svg">
<path fill-rule="evenodd" clip-rule="evenodd" d="M23.9993 12C23.9993 18.6274 18.6267 24 11.9993 24C5.37191 24 -0.000671387 18.6274 -0.000671387 12C-0.000671387 5.37258 5.37191 0 11.9993 0C18.6267 0 23.9993 5.37258 23.9993 12ZM12.4294 8.85893C11.2622 9.3444 8.92947 10.3492 5.43122 11.8733C4.86316 12.0992 4.56559 12.3202 4.5385 12.5363C4.49271 12.9015 4.95004 13.0453 5.5728 13.2411C5.65751 13.2678 5.74528 13.2954 5.83527 13.3246C6.44797 13.5238 7.27215 13.7568 7.70062 13.766C8.08927 13.7744 8.52306 13.6142 9.00197 13.2853C12.2705 11.079 13.9577 9.96381 14.0636 9.93977C14.1384 9.92281 14.2419 9.90148 14.3121 9.96385C14.3823 10.0262 14.3754 10.1443 14.3679 10.176C14.3226 10.3691 12.5275 12.0381 11.5984 12.9018C11.3088 13.171 11.1034 13.362 11.0614 13.4056C10.9673 13.5033 10.8715 13.5958 10.7793 13.6846C10.2101 14.2333 9.78324 14.6448 10.8029 15.3168C11.293 15.6397 11.6851 15.9067 12.0763 16.1731C12.5035 16.4641 12.9296 16.7543 13.4809 17.1157C13.6214 17.2077 13.7556 17.3034 13.8862 17.3965C14.3834 17.751 14.8301 18.0694 15.3819 18.0186C15.7026 17.9891 16.0338 17.6876 16.202 16.7884C16.5995 14.6631 17.381 10.0585 17.5615 8.16097C17.5774 7.99473 17.5575 7.78197 17.5415 7.68857C17.5255 7.59518 17.4921 7.46211 17.3707 7.3636C17.2269 7.24694 17.005 7.22234 16.9057 7.22408C16.4544 7.23203 15.7619 7.47282 12.4294 8.85893Z" fill="#374151"/>
</svg>
