<svg viewBox="0 0 24 24" fill="none" xmlns="http://www.w3.org/2000/svg">
<path d="M-0.000671387 24L1.68632 17.837C0.645327 16.033 0.0983284 13.988 0.0993284 11.891C0.102328 5.33502 5.43732 3.05176e-05 11.9923 3.05176e-05C15.1733 0.00103052 18.1593 1.24003 20.4053 3.48802C22.6503 5.73602 23.8863 8.72401 23.8853 11.902C23.8823 18.459 18.5473 23.794 11.9923 23.794C10.0023 23.793 8.04131 23.294 6.30431 22.346L-0.000671387 24ZM6.59631 20.193C8.27231 21.188 9.87231 21.784 11.9883 21.785C17.4363 21.785 21.8743 17.351 21.8773 11.9C21.8793 6.43802 17.4623 2.01003 11.9963 2.00803C6.54431 2.00803 2.10932 6.44202 2.10732 11.892C2.10632 14.117 2.75832 15.783 3.85332 17.526L2.85432 21.174L6.59631 20.193ZM17.9833 14.729C17.9093 14.605 17.7113 14.531 17.4133 14.382C17.1163 14.233 15.6553 13.514 15.3823 13.415C15.1103 13.316 14.9123 13.266 14.7133 13.564C14.5153 13.861 13.9453 14.531 13.7723 14.729C13.5993 14.927 13.4253 14.952 13.1283 14.803C12.8313 14.654 11.8733 14.341 10.7383 13.328C9.85531 12.54 9.25831 11.567 9.08531 11.269C8.91231 10.972 9.06731 10.811 9.21531 10.663C9.34931 10.53 9.51231 10.316 9.66131 10.142C9.81231 9.97001 9.86131 9.84601 9.96131 9.64701C10.0603 9.44901 10.0113 9.27501 9.93631 9.12601C9.86131 8.97801 9.26731 7.51501 9.02031 6.92002C8.77831 6.34102 8.53331 6.41902 8.35131 6.41002L7.78131 6.40002C7.58331 6.40002 7.26131 6.47402 6.98931 6.77202C6.71731 7.07001 5.94932 7.78801 5.94932 9.25101C5.94932 10.714 7.01431 12.127 7.16231 12.325C7.31131 12.523 9.25731 15.525 12.2383 16.812C12.9473 17.118 13.5013 17.301 13.9323 17.438C14.6443 17.664 15.2923 17.632 15.8043 17.556C16.3753 17.471 17.5623 16.837 17.8103 16.143C18.0583 15.448 18.0583 14.853 17.9833 14.729Z" fill="#374151"/>
</svg>
