<svg viewBox="0 0 13 12" fill="none" xmlns="http://www.w3.org/2000/svg">
<path fill-rule="evenodd" clip-rule="evenodd" d="M3.41027 6.59551L5.52994 4.47582C5.82283 4.18292 5.82283 3.70811 5.52994 3.41521C5.23705 3.12231 4.76217 3.12231 4.46928 3.41521L1.06928 6.81518C0.776387 7.10808 0.776386 7.58295 1.06928 7.87585L4.46928 11.2758C4.76217 11.5687 5.23705 11.5687 5.52994 11.2758C5.82283 10.983 5.82283 10.5081 5.52994 10.2152L3.41027 8.09552H8.19961C10.3811 8.09552 12.1496 6.32706 12.1496 4.14551V2.14552C12.1496 1.73131 11.8138 1.39552 11.3996 1.39552C10.9854 1.39552 10.6496 1.73131 10.6496 2.14552V4.14551C10.6496 5.49862 9.55269 6.59551 8.19961 6.59551H3.41027Z" fill="currentColor"/>
</svg>
