<svg viewBox="0 0 24 24" fill="none" xmlns="http://www.w3.org/2000/svg">
<path fill-rule="evenodd" clip-rule="evenodd" d="M11.6464 4.57519C11.4382 4.79859 11.3249 5.09409 11.3303 5.39941C11.3357 5.70473 11.4594 5.99604 11.6753 6.21198C11.8912 6.4279 12.1825 6.55158 12.4879 6.55697C12.7932 6.56236 13.0887 6.44904 13.3121 6.24086L15.2763 4.27663C15.5683 3.98463 15.9149 3.75299 16.2965 3.59497C16.678 3.43694 17.0869 3.35561 17.4998 3.35561C17.9128 3.35561 18.3217 3.43694 18.7032 3.59497C19.0847 3.75299 19.4314 3.98463 19.7233 4.27663C20.0153 4.56862 20.2469 4.91527 20.405 5.29677C20.5629 5.67829 20.6443 6.08719 20.6443 6.50014C20.6443 6.91308 20.5629 7.32197 20.405 7.70349C20.2469 8.08499 20.0153 8.43164 19.7233 8.72365L15.7949 12.6521C15.5029 12.9443 15.1564 13.1761 14.7749 13.3343C14.3933 13.4924 13.9844 13.5738 13.5714 13.5738C13.1583 13.5738 12.7494 13.4924 12.3679 13.3343C11.9863 13.1761 11.6397 12.9443 11.3479 12.6521C11.1244 12.4439 10.8289 12.3306 10.5236 12.336C10.2183 12.3414 9.927 12.4651 9.71106 12.681C9.49513 12.8969 9.37145 13.1882 9.36606 13.4935C9.36067 13.7989 9.47402 14.0944 9.68219 14.3178C10.1929 14.8285 10.7992 15.2337 11.4665 15.5101C12.1338 15.7866 12.8491 15.9288 13.5714 15.9288C14.2937 15.9288 15.0089 15.7866 15.6762 15.5101C16.3435 15.2337 16.9499 14.8285 17.4606 14.3178L21.389 10.3893C22.4205 9.35783 23 7.95885 23 6.50014C23 5.0414 22.4205 3.64243 21.389 2.61096C20.3576 1.57947 18.9586 1 17.4998 1C16.0411 1 14.6421 1.57947 13.6106 2.61096L11.6464 4.57519ZM4.27663 19.7233C3.98441 19.4314 3.7526 19.0849 3.59446 18.7034C3.4363 18.3218 3.35488 17.9128 3.35488 17.4998C3.35488 17.0869 3.4363 16.6778 3.59446 16.2963C3.7526 15.9148 3.98441 15.5681 4.27663 15.2763L8.20509 11.3479C8.49696 11.0556 8.84358 10.8238 9.22509 10.6657C9.60662 10.5075 10.0156 10.4261 10.4286 10.4261C10.8416 10.4261 11.2506 10.5075 11.6321 10.6657C12.0136 10.8238 12.3602 11.0556 12.6521 11.3479C12.8755 11.556 13.171 11.6694 13.4763 11.664C13.7817 11.6586 14.073 11.5349 14.2889 11.319C14.5048 11.103 14.6285 10.8117 14.6339 10.5064C14.6393 10.2011 14.526 9.9056 14.3178 9.68219C13.8071 9.17141 13.2007 8.76625 12.5334 8.48983C11.8661 8.2134 11.1509 8.07111 10.4286 8.07111C9.7063 8.07111 8.99107 8.2134 8.32376 8.48983C7.65646 8.76625 7.05014 9.17141 6.53942 9.68219L2.61096 13.6106C1.57947 14.6421 1 16.0411 1 17.4998C1 18.9586 1.57947 20.3576 2.61096 21.389C3.64243 22.4205 5.0414 23 6.50014 23C7.95885 23 9.35783 22.4205 10.3893 21.389L12.3535 19.4248C12.5617 19.2013 12.6751 18.9059 12.6697 18.6006C12.6643 18.2953 12.5406 18.0039 12.3247 17.788C12.1087 17.5721 11.8174 17.4483 11.5121 17.443C11.2068 17.4376 10.9113 17.5509 10.6879 17.7591L8.72365 19.7233C8.43176 20.0155 8.08515 20.2474 7.70363 20.4055C7.3221 20.5637 6.91314 20.6451 6.50014 20.6451C6.08711 20.6451 5.67816 20.5637 5.29663 20.4055C4.91511 20.2474 4.5685 20.0155 4.27663 19.7233Z" fill="currentColor"/>
</svg>
