<svg width="18" height="18" viewBox="0 0 18 18" fill="none" xmlns="http://www.w3.org/2000/svg">
<path opacity="0.9" fill-rule="evenodd" clip-rule="evenodd" d="M6.61159 0C5.69141 0 4.99269 0.76362 4.99269 1.64634V1.77486H4.21754C3.5656 1.77486 2.93962 2.03263 2.4775 2.49266C2.01525 2.95281 1.75488 3.57771 1.75488 4.23009V15.5448C1.75488 16.1971 2.01525 16.822 2.4775 17.2822C2.93962 17.7422 3.5656 18 4.21754 18H13.78C14.432 18 15.058 17.7422 15.5201 17.2822C15.9823 16.822 16.2427 16.1971 16.2427 15.5448V4.23009C16.2427 3.57771 15.9823 2.95281 15.5201 2.49266C15.058 2.03263 14.432 1.77486 13.78 1.77486H13.0049V1.64634C13.0049 0.76362 12.3062 0 11.386 0H6.61159ZM6.63903 3.45732V1.64634H11.3585V3.45732H6.63903ZM13.0049 3.4212V3.45732C13.0049 4.34004 12.3062 5.10366 11.386 5.10366H6.61159C5.69141 5.10366 4.99269 4.34004 4.99269 3.45732V3.4212H4.21754C3.99983 3.4212 3.7918 3.50732 3.63899 3.65943C3.48632 3.81142 3.40122 4.01676 3.40122 4.23009V15.5448C3.40122 15.7581 3.48632 15.9634 3.63899 16.1154C3.7918 16.2675 3.99984 16.3537 4.21754 16.3537H13.78C13.9977 16.3537 14.2058 16.2675 14.3586 16.1154C14.5113 15.9634 14.5963 15.7581 14.5963 15.5448V4.23009C14.5963 4.01676 14.5113 3.81142 14.3586 3.65943C14.2058 3.50732 13.9977 3.4212 13.78 3.4212H13.0049Z" fill="currentColor"/>
</svg>
