<svg width="10" height="18" viewBox="0 0 10 18" fill="none" xmlns="http://www.w3.org/2000/svg">
<path d="M0.806624 8.91133C0.668553 8.91133 0.556624 8.7994 0.556624 8.66133L0.556623 0.250001C0.556623 0.11193 0.668551 7.96401e-07 0.806622 7.84331e-07L9.52832 2.18557e-08C9.66639 9.78513e-09 9.77832 0.111929 9.77832 0.25L9.77832 9.86453C9.77832 14.2586 6.25631 17.8628 1.89334 17.9962C1.75533 18.0004 1.64281 17.8881 1.64281 17.75L1.64281 13.75C1.64281 13.6119 1.75511 13.5009 1.89286 13.4915C3.79215 13.3626 5.27836 11.7765 5.27836 9.86453L5.27836 9.16133C5.27836 9.02326 5.16643 8.91133 5.02836 8.91133L0.806624 8.91133Z" fill="currentColor"/>
</svg>
