<svg xmlns="http://www.w3.org/2000/svg" width="1200" height="600"><clipPath id="a"><path d="M0 0v150h700v150H600zm600 0H300v350H0v-50z"/></clipPath><path fill="#012169" d="M0 0h1200v600H0z"/><path stroke="#fff" stroke-width="60" d="m0 0 600 300m0-300L0 300"/><path stroke="#c8102e" stroke-width="40" d="m0 0 600 300m0-300L0 300" clip-path="url(#a)"/><path stroke="#fff" stroke-width="100" d="M300 0v350M0 150h700"/><path stroke="#c8102e" stroke-width="60" d="M300 0v350M0 150h700"/><path fill="#012169" d="M0 300h600V0h200v400H0z"/><path fill="#fff" d="M784.8 156c0 151.011 17.51 203.045 52.565 238.1C858.27 414.853 867.539 422.662 900 444c32.461-21.337 41.729-29.146 62.636-49.9 35.053-35.055 52.564-87.089 52.564-238.1-25.497 10.917-40.026 16.209-61.051 15.885-18.809-.29-38.737-9.024-54.149-15.885-15.412 6.86-35.34 15.595-54.148 15.885-21.026.324-35.555-4.968-61.052-15.885"/><g transform="matrix(3.50845 0 0 3.34488 -47.153 -59.398)"><path fill="#f90" d="M271 87c1.543 3.63 6.49 7.637 7.85 9.601-1.731 1.964-2.077 1.75-1.85 5.399 3.01-3.15 3.064-3.478 5-3 4.241 4.232.759 13.321-2.746 15.297-3.504 2.108-2.868-.073-8.12 2.569 2.408 2.059 5.198-.302 7.478.329 1.239 1.47-.589 4.149.374 6.672 2.015-.194 1.773-4.262 2.242-5.737C282.7 112.726 291.55 108.957 292 104c1.866-.876 3.731-.274 6 1-1.13-4.644-4.868-4.594-5.87-6.044-2.385-3.645-4.499-7.803-9.593-8.881-3.867-.82-3.578.246-6.056-1.444-1.543-1.202-6.231-3.474-5.481-1.631"/><circle cx="281.317" cy="91.128" r=".806" fill="#fff"/></g><g transform="matrix(-1.639 -2.95744 3.10207 -1.56258 1034.545 1220.517)"><path fill="#f90" d="M271 87c1.543 3.63 6.49 7.637 7.85 9.601-1.731 1.964-2.077 1.75-1.85 5.399 3.01-3.15 3.064-3.478 5-3 4.241 4.232.759 13.321-2.746 15.297-3.504 2.108-2.868-.073-8.12 2.569 2.408 2.059 5.198-.302 7.478.329 1.239 1.47-.589 4.149.374 6.672 2.015-.194 1.773-4.262 2.242-5.737C282.7 112.726 291.55 108.957 292 104c1.866-.876 3.731-.274 6 1-1.13-4.644-4.868-4.594-5.87-6.044-2.385-3.645-4.499-7.803-9.593-8.881-3.867-.82-3.578.246-6.056-1.444-1.543-1.202-6.231-3.474-5.481-1.631"/><circle cx="281.317" cy="91.128" r=".806" fill="#fff"/></g><g transform="matrix(-1.80698 2.86712 -3.00733 -1.72273 1682.51 -336.808)"><path fill="#f90" d="M271 87c1.543 3.63 6.49 7.637 7.85 9.601-1.731 1.964-2.077 1.75-1.85 5.399 3.01-3.15 3.064-3.478 5-3 4.241 4.232.759 13.321-2.746 15.297-3.504 2.108-2.868-.073-8.12 2.569 2.408 2.059 5.198-.302 7.478.329 1.239 1.47-.589 4.149.374 6.672 2.015-.194 1.773-4.262 2.242-5.737C282.7 112.726 291.55 108.957 292 104c1.866-.876 3.731-.274 6 1-1.13-4.644-4.868-4.594-5.87-6.044-2.385-3.645-4.499-7.803-9.593-8.881-3.867-.82-3.578.246-6.056-1.444-1.543-1.202-6.231-3.474-5.481-1.631"/><circle cx="281.317" cy="91.128" r=".806" fill="#fff"/></g><path fill="#9cf" d="M813.698 362.055c6.72 12.755 14.602 22.979 23.668 32.044C858.272 414.854 867.539 422.663 900 444c32.461-21.337 41.73-29.146 62.637-49.9 9.065-9.066 16.945-19.29 23.665-32.045z"/></svg>