<svg xmlns="http://www.w3.org/2000/svg" viewBox="0 0 1000 500"><path fill="#012169" d="M0 0h1000v500H0z"/><path fill="#0db02b" d="M0 0h1000v500z"/><circle cx="500" cy="250" r="90.3" fill="#f7d116"/><path fill="#fff" d="M188.2 190.9 175.4 179l-12.9 11.8 1.4-17.4-17.2-2.8 14.5-9.8-8.6-15.2 16.7 5.2 6.5-16.2 6.3 16.3 16.7-5L190 161l14.3 10-17.3 2.5zm45.2 144.6-13.8-9.2-13.4 9.7 4.7-15.6-13.6-9.4 16.7-.4 5-15.5 5.6 15.3 16.7-.2-13.2 9.9zM190.7 460l-12.8-11.9-12.9 11.7 1.4-17.4-17.2-2.8 14.5-9.8-8.6-15.2 16.7 5.2 6.5-16.2 6.3 16.3 16.7-5-8.8 15.1 14.3 10-17.3 2.5zM76.1 314.2l-12.8-11.9L50.4 314l1.4-17.4-17.2-2.8 14.5-9.8-8.6-15.2 16.7 5.2 6.5-16.2 6.3 16.3 16.7-5-8.8 15.1 14.3 10-17.3 2.5zM296.6 276l-12.8-12-12.9 11.8 1.4-17.4-17.2-2.8 14.5-9.8-8.6-15.2 16.7 5.2 6.5-16.2 6.3 16.3 16.7-5-8.8 15.1 14.3 10-17.3 2.5z"/><path fill="#f7d116" d="M941.2 188c-3.5-2-5.9-.4-10.6-2-3.9-1.3-3.2-2.7-6.6-3.8-4-1.3-5.9.4-12.8 1.1-2.4.2-6.2.5-8.4.2-8.9-1.2-15.9-15-18.8-25.5-3.9-13.6-1.2-22.9-3-42.5-.4-4.4-1.4-10.8-3.8-17.9-1.7-5.1-5.1-13.1-21.6-32.3-18.3-21.2-32.9-33-36.8-36.1-6.2-5-11.7-8.8-15.7-11.5.6 6.2 2 15.4 5.4 25.9 3.9 12.2 8.7 20.9 13.3 29.2 7.7 13.8 27.1 48.1 24.4 58.1-.2.6-.8 2.7-1.4 5.8-.8 4.1-1 7.5-1.1 9.8-2.5-.8-6.3-2.2-10.8-4.4-8.3-4.1-13.7-8.4-16.4-10.5-7.4-5.6-14.6-8.1-28.9-13.3-19-6.9-36.8-9.6-51.1-10.5 9 13.1 17.8 21.9 24.3 27.4 12.1 10.4 24.9 17.5 31.2 21 7.7 4.3 10.9 5.5 18.9 10.6 12.3 7.9 17 13 20 17 3.7 4.9 7.1 9.4 7.9 16 .8 6.4-1 13.3-6.4 21.9-15.6 24.7-45.5 38.3-54.6 42.2-11.4 4.9-29.3 12.5-56 16.3-20.2 2.9-52.3 4.5-91.5-6.1 4.1 1.8 8.7 3.6 13.7 5.2 5.4 1.7 10.4 2.9 15 3.8.3.1-6.4.3-13.2-1.2-8.2-1.8-14.7-5-19.2-7.7 3.4 2.7 8.7 6.4 15.5 9.4 8.8 3.9 17.8 5.7 44.4 5.8 16 .1 24 .1 31.9-.7 22.6-2.3 39.5-7.8 55.5-13.3 13.5-4.6 25-8.5 39.9-16.2 21.5-11.2 31.7-20.8 55.6-30.5 7.5-3 11.3-4.6 16.1-6 14.2-4.2 19.6-3.1 29.4-8.6 8.8-4.9 11.6-9.9 12.4-11.4 1.3-2.4 1.5-3.9 2.9-5.7 3.7-4.7 10.2-4.9 15.2-4.3-.6-1.3-2-3.3-4.2-4.7m-19.2 4.6c-.6.8-1.7 1.1-2.6.9-1.3-.4-2.2-1.8-2.1-3.5l-3-1.6h7.7c.9 1.3.8 3.1 0 4.2"/><path fill="#0db02b" d="M552.382 194.511c-3.299.583-6.495 2.174-9.895 2.139-1.946-.02-4.527-1.438-6.31-.221-2.51 1.712-1.75 5.684-3.136 8.07a3.66 3.66 0 0 1-2.839 1.847c-1.085.118-2.333-.214-3.13.748-.825.995-.578 2.36-.63 3.547-.064 1.462-.423 2.927-1.34 4.088-.937 1.184-2.327 1.92-3.428 2.936-1.478 1.363-2.651 3.024-4.267 4.253-2.343 1.782-5.088 2.782-7.678 4.122-1.832.948-3.395 2.291-5.289 3.144-1.478.666-3.082 1.005-4.607 1.537-1.884.657-3.705 1.485-5.63 2.026-1.5.422-3.077.552-4.606.828-1.255.227-2.485.576-3.754.732-2.807.344-5.644-1.387-8.36-1.93-1.962-.393-3.979-.6-5.971-.736-.986-.067-1.927.003-2.9-.226-2.176-.512-3.683-2.18-5.631-3.155-2.186-1.096-4.812-1.368-6.825-2.784-2.868-2.017-3.402-5.92-6.312-7.86-1.309-.87-3.304-1.502-4.775-.624-1.142.683-1.526 1.979-1.777 3.203-.52 2.544-1.01 5.318-.184 7.848.877 2.687 3.033 3.838 4.843 5.801 1.344 1.457 2.397 3.951 2.122 5.971-.28 2.06-1.781 3.585-2.54 5.46-1.008 2.486-.777 5.794-2.688 7.82-1.284 1.36-3.01 2.847-4.556 3.89-1.71 1.157-3.347 1.976-4.663 3.645-1.782 2.263-5.088 6.61-2.295 9.328 2.78 2.706 7.746.725 10.014-1.653 1.34-1.406 2.295-3.112 3.769-4.402.95-.832 2.145-1.338 3.412-1.39 2.043-.082 4.078.419 6.142.328 3.877-.17 8.334-1.039 12.114.24 2.786.942 4.03 4.246 6.995 4.806 2.22.418 4.566-.401 6.824-.246 1.84.125 3.642.654 5.46.936 3.188.494 6.315.904 9.384 1.95 4.023 1.37 7.663 4.975 8.66 9.212.469 1.988.169 4.122.431 6.142.285 2.188 1.44 4.148 1.777 6.312.42 2.693-.074 5.321.585 8.02 1.064 4.361 2.676 9.626 7.485 11.053.878.261 1.816.373 2.73.377 1.85.01 3.638-.127 5.459-.478 1.877-.362 4.28-.65 5.54-2.254 1.718-2.189.525-4.901.29-7.334-.264-2.731.357-5.49.68-8.19.22-1.841.637-3.633.954-5.459.217-1.247.247-2.563.713-3.753 1.365-3.486 3.906-6.487 4.701-10.237.385-1.812-.386-3.394-.762-5.118-.446-2.048-.54-4.396-.314-6.484.279-2.567 2.388-4.193 3.811-6.142.841-1.152 1.398-2.5 2.377-3.554.98-1.055 2.338-1.715 3.148-2.93.53-.792.823-1.714 1.257-2.558 1.075-2.093 2.7-4.636 4.733-5.892 1.415-.874 3.03-.942 4.606-1.314 1.282-.303 2.45-.89 3.583-1.544 1.162-.67 2.442-1.526 2.476-3.022.036-1.566-1.548-2.653-2.41-3.754-.753-.963-1.075-2.207-1.089-3.412-.016-1.267-.173-2.701.208-3.924.396-1.272 1.263-2.35 1.761-3.583.568-1.406.685-2.934.574-4.436-.156-2.12-1.645-3.923-2.49-5.8-.54-1.197-.74-2.49-1.056-3.754-.286-1.143-.686-2.255-.908-3.413-.39-2.041.305-4.142-.072-6.142-.281-1.492-1.203-2.643-2.794-2.723-.564-.028-1.15-.026-1.707.072z"/></svg>