<svg xmlns="http://www.w3.org/2000/svg" viewBox="0 0 2880 1920" width="100%" height="100%" preserveAspectRatio="xMidYMid meet"><path fill="#d31624" d="M0 0h2880v1920H0z"/><path fill="#fff" d="M0 480h2880v960H0z"/><path fill="#008c3e" d="M1426 480c-13.412 24.696-28.26 49.468-51.5 66.25a259 259 0 0 0-11.78 8.484l-2.22 1.703a720 720 0 0 0-6.225 4.778L1352 563c-7.239 5.649-13.934 11.652-20.414 18.14a937 937 0 0 1-4.83 4.844c-7.764 7.703-17.223 15.927-21.756 26.016 2.262 0 2.263 0 8.73-1.83l2.77-.795a363 363 0 0 0 21.313-6.75c5.659-2.095 10.123-2.91 16.187-2.625-.268 2.01-.61 4.01-1 6-11.256 16.884-34.148 30.385-52.375 38.25-5.47 2.35-10.766 4.66-15.805 7.863L1282 654c-12.722 8.4-25.305 16.18-34 29l2 4q2.568.03 5.137.049l2.113.014c3.327.04 6.6.205 9.86-.555 2.028-.613 2.028-.613 4.765-.676l3.125-.02c3.086-.09 3.086-.09 6 .188 2.887.93 3.858 1.813 5.703 4.25 3.49 6.206 5.762 11.552 4.297 18.75-4.876 4.876-11.25 5.272-17.813 5.625-6.048.255-10.143 1.267-15.632 3.85-12.188 5.905-25.198 14.933-29.868 28.275L1227 750c-18.72 22.114-18.72 22.114-46.383 34.164-7.794 3.826-15.32 7.879-22.715 12.434a426 426 0 0 1-6.02 3.664c-13.998 8.286-27.927 17.014-40.007 27.988-3.09 3.238-4.456 5.297-4.563 9.813C1108 842 1108 842 1109 843c4.02 2.427 7.149 3.344 11.857 3.316l2.143-.066q2.299-.05 4.598-.105 2.2-.078 4.402-.145c15.97.057 31.572-5.076 46.559-10.23 4.563-1.62 7.686-2.323 12.441-.77 5.915 4.961 5.915 4.961 9.35 11.99l1.463 3.072c1.992 3.917 3.836 7.75 5.187 11.938 1.005 7.567.067 14.458-3.813 21.105l-2.187 3.082c-3.964 5.587-8.216 10.887-12.66 16.098L1186 905c-4.274 5.13-8.694 9.772-13.77 14.125L1170 921c-8.168 7.276-18.344 11.033-28.897 13.432-5.73 1.284-11.153 2.795-16.543 5.16l-2.122.97c-13.891 6.103-25.244 16.653-35.667 27.418a1287 1287 0 0 1-6.923 7.098l-1.688 1.719c-3.437 3.51-6.882 6.945-10.594 10.168-1.75 1.484-3.486 2.962-5.168 4.525-5.456 5.231-10.918 10.322-17.01 14.817l-1.825 1.318c-3.208 2.34-6.221 4.247-9.973 5.648l-2.59.727c.125 2.188.125 2.188 1 5 5.804 6.118 14.38 10.29 22.5 12.375 18.953 3.383 35.2-6.089 50.332-16.5 4.182-2.89 8.376-5.762 12.615-8.568l2.928-1.932c5.071-3.482 9.335-6.753 15.664-6.836 6.203.722 9.821 3.938 13.77 8.594 6.79 9.082 10.813 19.397 9.191 30.867-3.362 7.865-9.973 13.487-17.205 17.701l-2.67 1.486c-7.29 4.192-14.672 8.2-22.092 12.157-22.145 11.793-42.823 25.354-61.783 41.863q-1.614 1.41-3.25 2.793c-9.148 7.186-17.204 15.055-25.313 23.375-14.001 14.411-28.197 30.918-49.519 31.42l-3.793.017c-3.655.072-7.308.143-10.963.176L960 1168c1.926 3.055 3.896 6.064 6 9 7.44 7.643 15.628 12.062 26.29 12.459l2.273.041c12.426.343 12.425.344 40.476-8.814l2.086-.686c29.73-9.7 60.759-20.274 86.836-37.875 5.563-3.89 11.074-7.865 17.039-11.125 14.08-6.523 28.817-7.076 43.438-1.875 5.552 2.197 9.94 4.296 12.562 9.875.831 3.763.442 6.895-1 10.5-56.008 42.418-56.008 42.418-125.416 61.355-19.237 5.394-38.588 11.37-56.584 20.145l-.313 3c.05 4.944 1.976 8.422 5.313 12 9.532 6.744 21.427 8.357 32.807 8.367l3.818-.054c10.41-.094 20.755-.238 31.047-1.915L1089 1252c13.455-2.244 26.145-5.31 38.785-10.457a711 711 0 0 1 12.442-4.984c25.428-9.9 50.858-19.9 75.736-31.127l2.728-1.237c4.437-2.008 8.874-4.017 13.295-6.058 10.412-4.814 21.869-11.215 33.576-11.45 14.402 1.31 28.627 9.37 38.876 19.25 9.656 10.3 14.669 20.557 14.878 34.866-.065 40.28-32.878 82.86-60.035 110.238l-2.656 2.647c-9.07 9.237-18.402 16.871-29.855 22.978l-2.832 1.459c-8.4 4.353-16.732 7.91-25.782 10.648-8.195 2.413-16.508 4.84-24.281 8.415-16.188 8.644-33.624 25.226-39.875 42.812h12.732c.883-.273 1.562-.604 2.18-1.14 12.93-16.854 29.471-30.055 51.088-33.86 3.29-.285 6.574-.361 9.875-.438 34.339-1.366 68.678-13.493 94.164-36.968 18.25-15.987 45.403-37.871 70.586-22.594 10.466 5.374 21.754 4.415 32.629.969l3.309-1.094c7.26-2.316 13.884-3.588 20.937-.188 3.908 3.615 5.512 6.216 5.875 11.5.69 7.686 4.063 13.722 9.688 18.938 4.357 3.602 9.024 6.67 13.761 9.746 5.609 3.76 10.886 7.938 16.176 12.129l2.773 2.18c6.049 4.842 11.734 9.989 17.282 15.392 5.124 4.894 9.771 7.574 16.945 8.428-1.978-11.065-6.684-20.301-12.727-29.68-2.02-3.682-1.681-6.171-1.273-10.32 10.771-7.18 32.986-1.306 45.375.188l2.574.296c10.588 1.241 19.921 3.165 28.461 6.514 5.886 1.91 11.353 4.69 15.96 8.795 4.076 3.071 7.989 6.725 11.782 11.14 2.756 3.083 5.717 5.947 8.664 8.844 1.989 2.024 3.808 4.106 5.621 6.285 3.368 3.944 7.22 7.031 11.329 10.176 2.214 1.746 2.261 1.791 5.181 4.711.12.036.382.017.504.051H1663v-1c-8.747-12.806-19.783-24.12-31.813-33.875-2.71-2.131-5.348-4.27-7.917-6.57-3.552-3.276-7.064-6.571-10.81-9.625-5.991-4.761-11.596-9.788-17.148-15.055-3.428-3.274-6.832-6.567-10.384-9.707-17.113-14.844-30.41-30.735-38.803-52.133L1545 1309c-2.98-7.627-4.23-14.95-4.857-23.072l-.24-3.479c-.902-12.936-1.184-25.834-1.176-38.799.012-3.958.025-7.916.011-11.875-.01-2.653-.01-5.307-.01-7.96l.006-3.795c-.03-8.64.436-16.232 3.055-24.516 4.41-10.243 11.678-19.244 22.211-23.504 9.197-1.363 17.116.589 25.541 4.309l2.084.941a369 369 0 0 1 15.563 7.328q1.855.93 3.714 1.854 2.834 1.404 5.66 2.818c17.241 8.88 32.462 11.252 51.708 11.254 4.59-.02 9.178-.037 13.77-.022 8.455.031 16.91.03 25.366.02a6366 6366 0 0 1 27.64.008c4.002.014 8.002.021 12.003.004 12.626-.057 24.632-.177 36.814 3.426L1787 1205c24.998 10.922 24.998 10.922 47.996 25.875 2.4 1.501 4.8 3 7.211 4.48 6.926 4.233 13.733 8.545 20.344 13.258 8.919 6.387 18.173 13.755 28.812 16.961 7.412 1.197 16.773 2.101 23.074-2.262 3.805-3.432 5.256-6.537 6.126-11.562-1.993-13.283-14.782-24.584-24.84-32.418L1894 1218c-20.547-15.98-42.237-31.011-65.375-43a555 555 0 0 1-20.625-11.188c-5.715-3.256-11.43-6.508-17.193-9.681-17.606-9.677-40.277-19.015-50.807-37.131-.726-3.457-.348-6.782.625-10.188 3.285-4.33 7.867-7.305 12.576-9.894l1.861-.98c4.826-2.544 9.62-4.723 14.813-6.438 20.505-.546 20.505-.546 38.875 10.375 11.329 6.23 23.559 14.368 36.629 15.941l2.621.184c10.556 1.078 10.556 1.078 37-5v-2l-1.473-1.283a230 230 0 0 1-12.41-9.46q-2.055-1.684-4.113-3.364l-2.113-1.725a672 672 0 0 0-6.657-5.367c-4.82-3.807-9.519-7.73-14.171-11.738-3.314-2.86-6.63-5.708-10.016-8.481-4.638-3.744-9.158-7.547-13.547-11.582-2.63-2.425-5.248-4.798-8.04-7.035-5.296-4.153-10.165-8.531-14.948-13.266l-2.262-2.262c-4.132-4.127-8.172-8.293-12-12.706A606 606 0 0 0 1780 1017c-15.558-15.933-38.078-22.945-59.875-23.625-8.373-.14-18.573.663-25.125-5.375-1.248-3.405-1.248-3.405-1-7 5.19-6.265 15.389-8.388 23.094-9.672l3.093-.453c21.763-2.41 21.762-2.41 43.66-3.174l3.104-.105q2.967-.103 5.936-.201c4.847-.14 9.646-.285 14.459-.905 2.043-.274 4.092-.52 6.148-.664l2.092-.072 2.363-.096c6.536-.26 12.992-.467 19.375-1.998 1.556-.384 3.116-.751 4.686-1.078q2.295-.468 4.586-.955l2.341-.502A68 68 0 0 0 1837 959c2.066-1.883 2.066-1.883 3-4 .004-2.04.004-2.04-1-4-9.688-7.673-9.688-7.673-37.234-15.883a829 829 0 0 1-6.182-1.855c-4.83-1.483-9.662-2.96-14.498-4.422L1775 927c-10.621-3.266-21.257-6.353-32.05-8.996l-2.934-.715c-4.965-1.216-9.928-2.436-14.903-3.611q-2.865-.677-5.728-1.37l-2.725-.66c-8.846-2.028-17.98-5.137-23.66-12.648-.377-3.204-.444-5.111 1-8 3.477-3.598 6.187-4.518 11.174-4.605l2.514.043c10.301.091 20.373 1.56 30.529 3.148 10.935 1.717 21.863 3.237 32.865 4.465l2.355.261c9.022 1.037 18.5 2.73 27.563 1.688 2.521-1.017 3.684-1.432 5.016-3.824-.016-2.176-.016-2.176-1.72-4.508l-2.546-2.48c-6.707-6.718-6.708-6.718-25.844-17.323-9.786-5.394-19.531-10.834-29.039-16.709L1745 850c-24.374-14.949-49.572-30.88-70.445-50.55-12.52-12.003-25.429-23.63-39.32-34.032q-1.62-1.206-3.235-2.418c-8.485-6.647-17.163-11.778-26.813-16.625-4.142-2.005-8.228-4.024-12.187-6.375-4.106-2.989-8.459-5.6-9.621-10.746-.172-3.398-.266-6.039 1.793-8.86 5.05-3.851 9.251-4.783 15.467-4.863l2.861.032c12.09.102 21.437 2.22 32.25 7.875 4.632 2.422 9.09 4.305 14.105 5.785l2.332.652c9.126 2.602 18.304 3.24 27.768 3.238l2.744-.015q4.465-.006 8.93-.022 3.088-.014 6.176-.021 9.098-.018 18.195-.055c-1.1-2.198-1.1-2.197-6.877-4.51-23.324-9.237-45.249-22.137-65.33-37.146L1642 690c-10.03-7.448-25.544-15.972-30-28a6878 6878 0 0 1 20.313-.063c12.806-.057 25.541.07 38.328.846L1674 663c-1-3-.999-3-2.559-4.467l-2.02-1.537-2.247-1.728-2.424-1.83q-3.726-2.858-7.463-5.7a1137 1137 0 0 1-5.74-4.39L1648.5 641a931 931 0 0 1-8.53-6.594c-10.062-7.924-20.18-15.711-30.77-22.922L1607 610c-11.196-7.57-22.39-14.147-34.951-19.19L1570 590c-6.463-2.587-12.912-4.816-19.693-6.422l-2.06-.476a587 587 0 0 0-16.259-3.555q-3.55-.72-7.097-1.45-2.383-.488-4.766-.972c-9.599-1.88-18.435-3.526-26.91-8.68L1491 567c-12.635-7.662-22.654-17.561-31.797-29.121L1457 535c-10.708-13.875-19.234-28.828-25.563-45.188l-.976-2.628-.902-2.414c-.956-2.648-.999-3.49-3.559-4.77m-106.56 181.637c1.754.003 3.585.187 5.56.363 4.239.968 7.888 1.888 11 5-.785 7.786-9.224 14.522-14.793 19.266-7.471 5.871-7.471 5.871-11.582 5.547C1308 691 1308 691 1307 690c-.307-3.22-.278-6.455-.313-9.688l-.087-2.724c-.055-5.714.486-9.11 4.4-13.588 2.806-1.87 5.516-2.368 8.44-2.363m158.472 15.629c2.9-.009 5.874.635 8.791 1.98 3.564 2.305 5.927 4.198 8.297 7.754.406 2.34.406 2.34.5 4.938l.156 2.59c-.654 2.472-.656 2.472-3.058 4.765-4.721 2.24-8.51 2.225-13.66 2.082l-2.682-.004c-5.593-.075-10.114-.23-14.256-4.371-.605-4.441-.493-8.665 1.063-12.875 4.054-4.446 9.314-6.843 14.85-6.86zm62.713 4.273c3.998.546 5.628 1.54 8.375 4.461 2.052 6.435-1.063 14.29-4 20-3.214 4.039-7.99 6.841-13 8-11.292 1.132-11.292 1.132-15.363-1.566-2.26-3.361-2.17-5.785-2.137-9.809l-.031-3.898c.757-5.324 3.308-9.111 7.468-12.477 5.009-3.68 8.859-4.558 15.063-4.625zm-108.51.018c1.256.029 2.547.17 3.885.443 3.107 1.719 5.387 3.774 7 7 .529 6.704.911 13.3-3 19-7.123 5.968-15.102 8.764-24 11l-2.344.684c-5.975 1.525-12.023 1.553-18.156 1.629l-2.72.054-2.561-.004-2.315.01L1386 721c-2.073-3.11-2.612-5.035-2.496-8.754 1.667-7.547 8.616-12.33 14.633-16.437 4.942-3.122 10.104-5.706 15.363-8.246l3.223-1.64c5.167-2.507 9.951-4.491 15.392-4.366m-70.87 33.338q.877.023 1.755.105c2.5 1.5 2.5 1.5 4 4 1.455 7.859-2.114 15.28-6 22-9.279 13.34-23.953 19.984-39 25-2.018.12-4.04.175-6.063.188l-3.222.042C1310 766 1310 766 1308 764c-.775-6.051.141-9.118 3.809-13.936l1.629-2.001 1.662-2.116c10.388-13.029 28.023-31.53 46.144-31.052zm132.109 60.974q.823 0 1.646.131c2.923 1.831 5.433 3.866 7 7 .657 7.608.947 14.802-4 21-5.745 5.948-14.378 8.03-22.438 8.375-3.562-.375-3.562-.375-6.124-1.313-2.057-2.95-1.802-4.984-1.231-8.472 2.872-9.38 13.977-26.736 25.146-26.72zm-54.743 1.86c3.758.066 6.693 1.684 11.389 4.271 2 3 2 3 1.938 6.375-1.7 6.571-6.654 9.278-12.168 12.61-5.499 3.155-11.595 3.059-17.77 2.015-7.198-2.093-14.122-5.039-21-8v-2c22.799-11.187 31.348-15.383 37.611-15.271m116.553 16.279c8.655-.128 17.825 2.649 26.996 7.55 3.377 2.647 4.667 5.37 5.344 9.57.15 8.845-1.204 15.635-6.504 22.872-6.04 4.627-14.694 3.904-22 3-6.132-1.188-12.075-3.047-18-5l-3.41-1.117c-11.28-3.917-11.28-3.917-14.59-8.883-.747-4.667-.004-7.521 2.438-11.438 8.324-11.424 18.599-16.39 29.726-16.554m-256.709 4.582 3.983.035 3.97-.035 3.838.012 3.49.01c3.844.456 7.452 1.576 10.264 4.388.78 3.99.576 5.997-1.469 9.559-19.451 27.21-19.452 27.21-29.406 28.941-3.553-.569-4.788-1.588-6.898-4.46-5.369-8.925-9.99-19.444-8.227-30.04 4.394-5.9 9.354-8.377 16.621-8.398zm-66.635 9.96c5.253.007 10.548 1.388 14.946 3.93 8.117 5.52 12.36 13.234 17.132 21.592a569 569 0 0 0 3.23 5.569q2.449 4.173 4.872 8.359c-3.946 4.73-10.382 6.016-16 8l-2.762.988c-5.296 1.755-10.689 3.364-16.238 2.012-9.75-5.533-16.259-17.235-21.563-26.813l-1.05-1.847c-2.26-4.26-2.88-7.552-2.387-12.34 4.558-6.533 12.143-9.459 19.82-9.45m396.504 61.735c3.307.059 6.601.685 9.453 1.848 4.471 2.842 8.122 5.933 10.223 10.867.861 6.42.78 12.645-2.625 18.309-3.396 4.177-6.937 6.32-12.281 7.132-9.836.385-15.158-2.65-22.594-8.754-4.356-4.1-4.356-4.1-5.375-8.25 2.116-8.31 6.37-14.878 13.676-19.601 2.899-1.102 6.217-1.61 9.523-1.55zm-224.861 32.055c.783-.009 1.612.038 2.517.12 2.918.78 4.3 2.102 6.02 4.54 2.619 5.237 1.103 11.452-.625 16.75-1.964 4.94-3.739 7.6-8.375 10.25-2.625.125-2.625.125-5-1-4.52-4.649-6.302-9.39-6.563-15.813.112-5.646 1.376-8.864 5.422-12.812 2.322-1.49 4.255-2.01 6.604-2.035m-73.764 13.469c9.225.535 17.731 5.969 24.301 12.191 2.977 3.413 4.229 5.793 4.438 10.25L1358 942c-3.083 2.055-4.943 2.605-8.625 2.504-9.611-2.04-17.513-10.705-23.438-18.067-1.315-3.42-.748-5.92.063-9.437 1-1 1-1 3.7-1.191zM1446 919c6.835 1.474 9.957 4.082 14.063 9.945A408 408 0 0 1 1466 939l1.625 2.8c3.691 7.079 4.791 14.29 3.375 22.2-2.17 3.349-3.19 4.73-7 6-8.313 1.415-14.634-3.967-21.188-8.52-5.153-4.032-8.113-8.536-9.261-15.015-.62-9.572 3.757-17.55 9.824-24.715zm42 24c3.76.104 4.93.93 7.625 3.625 5.333 7.133 6.3 13.562 5.375 22.375-1.02 2.867-1.02 2.867-2 5-4.012.478-5.716.179-9.188-2-4.913-4.617-5.973-10.07-6.187-16.625.125-4.74.876-8.876 4.375-12.375m-263.57 24.047c16.468.067 32.631 2.788 43.57 9.953 2 3 2 3 1.938 5.813-2.468 8.387-9.701 12.07-16.93 16.1-17.603 9.543-35.9 16.56-56.008 18.087l-3.156.285c-6.888.361-6.888.361-10.903-2.351-3.295-2.974-5.09-6.322-6.941-10.309l-1.008-2.102c-9.082-19.211-9.082-19.21-8.902-23.843.91-1.68.91-1.68 2.73-2.657l2.305-.648 2.258-.664L1176 974l3.023-.984c12.164-3.45 28.938-6.036 45.407-5.97zm407.826 60.174c7.566-.03 14.76 1.7 20.744 5.779 2.91 3.924 3.651 6.876 3.477 11.668-.887 4.337-3.537 7.15-6.477 10.332l-1.605 1.844c-7.652 8.287-18.122 14.005-29.48 14.59a212 212 0 0 1-5.29.004l-2.8-.026c-11.326-.28-19.538-3.562-27.825-11.412-2.164-3.246-2.525-4.234-2-8 10.159-13.15 31.92-24.706 51.256-24.78zm84.443 18.404c1.866.04 3.733.545 6.043 1.453 6.853 3.174 16.728 7.862 20.258 14.922.578 5.854-.474 8.513-4.125 13.063l-1.318 1.648c-13.936 16.98-13.936 16.978-20.557 20.289-14.333-.093-31.859-1.247-42.625-11.5-1.375-2.5-1.375-2.5-1.375-4.938 5.803-14.87 23.888-26.652 37.66-33.59 2.308-.959 4.173-1.386 6.04-1.347zm-424.199 25.938c7.977.152 14.307 2.786 19.875 8.562 8.602 11.534 7.906 26.082 6.117 39.758-.946 4.426-1.901 7.379-4.742 10.93-3.869 1.67-5.746 1.522-9.75.187-13.007-10.443-16.973-33.314-19-49-.178-2.729-.15-5.254 0-8 2.609-2.609 3.862-2.358 7.5-2.438zm118.586 9.218c.676-.013 1.407.038 2.226.032 11.708.165 25.785 2.585 35.688 9.187-1.58 4.444-3.879 8.336-6.375 12.313l-1.31 2.093c-3.358 5.273-6.943 10.342-10.69 15.344l-1.514 2.022c-2.519 3.307-5.07 6.374-8.111 9.228-12.612-36.77-12.612-36.77-13-49 .984-.984 1.96-1.194 3.086-1.219m-55.03 11.014c5.56.005 9.956 1.397 14.944 5.205 4.666 4.392 6.738 7.636 7.238 14.059l.074 3.379.114 3.37c-.518 3.879-1.634 5.495-4.426 8.192-3.313.375-3.313.375-7-1-7.515-6.965-13.273-18.229-16-28 .375-2.875.375-2.875 1-5a43 43 0 0 1 4.057-.205z"/></svg>