<svg xmlns="http://www.w3.org/2000/svg" xml:space="preserve" width="675" height="450"><path fill="#173d89" d="M0 0h675v450H0z"/><path fill="#ba0c0c" d="M0 0h675v225H0z"/><path fill="#fff" d="M0 0v450l300-225z"/><path fill="#f7d417" d="M180.52 223.368c5.172 15.524 2.762 21.495 2.76 21.455l11.735 1.823s1.979-10.553-3.087-25.848zM110.14 294.488c11.121.036 28.8-2.234 35.206-5.547l10.072-1.745.28 17.167c-11.92 6.571-39.444 7.984-45.499 7.936-6.061.048-33.925-1.388-45.898-7.984l.155-17.179 10.102 1.769c6.407 3.296 24.502 5.583 35.612 5.583z"/><path fill="#f7b017" d="m155.7 304.358-14.513-3.52 14.463-1.868zM195.01 246.648l-7.624-10.517-4.112 8.695z"/><g fill="none" stroke="#000" stroke-linejoin="round" stroke-width=".4"><path d="M180.52 223.368c5.172 15.524 2.762 21.495 2.76 21.455l11.735 1.823s1.979-10.553-3.087-25.848zM155.7 304.358l-14.513-3.52M187.39 236.128l-4.113 8.695"/></g><path fill="#f7b017" d="m64.3 304.358 14.512-3.52-14.463-1.868z"/><path fill="none" stroke="#000" stroke-linejoin="round" stroke-width=".4" d="M110.14 294.488c11.121.036 28.8-2.234 35.206-5.547l10.072-1.745.28 17.167c-11.92 6.571-39.444 7.984-45.499 7.936-6.061.048-33.925-1.388-45.898-7.984l.155-17.179 10.102 1.769c6.407 3.296 24.502 5.583 35.612 5.583h-.03"/><path fill="#f7d417" stroke="#000" stroke-linejoin="round" stroke-width=".4" d="m199.34 235.268-11.95.864c-.27 10.124-1.497 48.76-47.64 50.857l1.437 13.856c56.167.583 60.434-47.188 58.151-65.576z"/><path fill="#f7d417" d="M39.484 223.368c-5.173 15.524-2.763 21.495-2.761 21.455l-11.735 1.823s-1.979-10.553 3.087-25.848z"/><path fill="#f7b017" d="m24.988 246.648 7.623-10.517 4.112 8.695z"/><g fill="none" stroke="#000" stroke-linejoin="round" stroke-width=".4"><path d="M39.484 223.368c-5.173 15.524-2.763 21.495-2.761 21.455l-11.735 1.823s-1.979-10.553 3.087-25.848zM64.3 304.358l14.512-3.52M32.61 236.128l4.112 8.695"/></g><path fill="#f7d417" stroke="#000" stroke-linejoin="round" stroke-width=".4" d="m20.661 235.268 11.95.864c.268 10.124 1.496 48.76 47.64 50.857l-1.437 13.856c-56.168.583-60.435-47.188-58.152-65.576z"/><g fill="#173d89"><path d="m97.75 299.478-.058.684.192.012c.173.012.294.03.398.1.088.053.152.14.182.237v.002c.038.12.033.258.018.479l-.278 3.873c-.015.212-.032.351-.093.465v.004a.44.44 0 0 1-.23.195c-.123.045-.264.039-.48.024l-.095-.008-.049.683 3.143.227.048-.684-.212-.015c-.159-.012-.276-.032-.375-.088v-.002a.45.45 0 0 1-.184-.215v-.002c-.05-.114-.034-.214-.023-.385l.091-1.316a.146.146 0 0 1 .157-.137l1.2.088c.791.056 1.404-.097 1.86-.446v-.002c.466-.352.708-.794.748-1.359a1.9 1.9 0 0 0-.115-.799 1.85 1.85 0 0 0-.436-.68v-.001a2 2 0 0 0-.72-.46q-.425-.168-1.117-.218zm21.784.059a5 5 0 0 0-.398.014c-1.105.079-1.954.469-2.582 1.173-.626.705-.9 1.561-.827 2.602v.002c.081 1.12.525 1.966 1.342 2.574.674.502 1.506.717 2.52.645.769-.055 1.404-.247 1.914-.57a3.14 3.14 0 0 0 1.168-1.32c.264-.555.374-1.176.324-1.872-.075-1.035-.463-1.838-1.176-2.443-.62-.53-1.375-.798-2.283-.805zm-13.52.53v.712h.112l.141-.004q.179 0 .33.066c.096.036.17.122.203.217.042.102.051.218.051.38l-.012 3.974c0 .108-.01.195-.01.263 0 .07.001.11-.027.172v.008a.5.5 0 0 1-.223.227c-.11.055-.24.065-.416.064h-.166v.686l3.16.01v-.686h-.18c-.186 0-.31-.007-.421-.062l-.01-.004a.45.45 0 0 1-.188-.215v-.004c-.05-.122-.048-.27-.048-.518v-1.408a.146.146 0 0 1 .146-.146l.588.002a.15.15 0 0 1 .115.06l2.215 2.99 2.045.007v-.686h-.16a1.3 1.3 0 0 1-.366-.043 1 1 0 0 1-.273-.137v-.002a1.7 1.7 0 0 1-.283-.285v-.002l-.059-.074-1.447-1.693a.146.146 0 0 1 .084-.237q.748-.142 1.29-.611c.359-.308.53-.692.53-1.194q0-.46-.2-.82a1.7 1.7 0 0 0-.577-.603 2.1 2.1 0 0 0-.844-.315 6 6 0 0 0-.894-.078zm13.33.308c.3.002.591.085.86.244.315.185.567.477.762.865q.3.587.36 1.445c.058.817-.086 1.504-.448 2.038-.31.452-.77.709-1.336.75a1.7 1.7 0 0 1-1.423-.551c-.432-.468-.673-1.122-.73-1.942-.06-.821.098-1.525.48-2.09.309-.455.77-.713 1.34-.755h.003q.066-.004.131-.004zm-19.22.137.781.056c.383.028.681.124.891.309.265.232.395.552.37.912a1.15 1.15 0 0 1-.227.629 1.1 1.1 0 0 1-.502.365c-.213.074-.499.087-.875.06l-.6-.04a.146.146 0 0 1-.135-.157l.143-2a.146.146 0 0 1 .154-.135m8.342.43 1.158.003c.41.001.705.029.914.106.2.072.364.19.477.351a.93.93 0 0 1 .174.563c-.001.227-.064.434-.188.601-.122.17-.301.295-.527.38-.233.084-.55.118-.971.116l-1.049-.004a.146.146 0 0 1-.146-.144l.011-1.828a.146.146 0 0 1 .147-.145M192.08 247.308l-2.183.215-.08.522.252.195a.146.146 0 0 1 .022.21c-.37.42-.597.91-.686 1.49q-.11.72.077 1.35v.003c.124.419.317.74.576.974s.554.372.898.424q.358.056.707-.04.35-.101.586-.286.239-.19.512-.596.272-.42.38-.658l.52-1.113c.219-.476.411-.806.61-1.006v-.002c.196-.194.437-.292.683-.254a.75.75 0 0 1 .414.22.96.96 0 0 1 .246.489v.002q.061.295 0 .688a2.6 2.6 0 0 1-.828 1.535c-.424.391-.932.636-1.484.787l.062.74 2.524-.072.08-.531-.385-.247a.146.146 0 0 1-.031-.22q.4-.442.605-.862.202-.421.285-.959c.118-.769-.01-1.43-.365-2.007-.325-.515-.753-.803-1.318-.89a1.7 1.7 0 0 0-1.217.259c-.367.24-.718.702-1.04 1.398v.004l-.595 1.277v.002c-.174.385-.34.652-.539.805-.185.146-.398.22-.605.188-.198-.03-.355-.179-.46-.385v-.002c-.108-.22-.13-.487-.083-.793.072-.472.282-.9.619-1.272.313-.349.778-.616 1.334-.84zm-3.325 7.168-.73 2.518.658.191.056-.19c.049-.165.09-.277.18-.364a.46.46 0 0 1 .281-.127.6.6 0 0 1 .19.013q.109.022.267.069l2.42.709a.146.146 0 0 1-.017.285l-4.448.81-.74 2.53.656.191.067-.224c.04-.14.082-.243.164-.323a.47.47 0 0 1 .267-.13c.118-.02.244.003.403.05l3.886 1.139a.8.8 0 0 1 .35.18c.076.073.13.167.146.27v.003c.016.115-.013.233-.062.402l-.043.15.656.194.74-2.533-.656-.191-.053.183c-.048.165-.097.286-.18.375v.002a.45.45 0 0 1-.251.137h-.01c-.124.013-.243-.024-.45-.084l-3.492-1.023a.146.146 0 0 1 .016-.282l5.64-1.039.342-1.168-5.101-1.492c-.21-.061-.339-.103-.438-.184a.46.46 0 0 1-.156-.26v-.003c-.024-.123.001-.252.049-.418l.053-.174zm-2.875 8.924-2.43 5.092.62.293.068-.15c.08-.169.142-.28.246-.356a.43.43 0 0 1 .275-.086c.131.001.254.054.447.147l3.473 1.654q.163.077.264.133a.6.6 0 0 1 .152.103l.01.004a.45.45 0 0 1 .125.342c-.01.138-.067.285-.172.504l-.013.03.619.294 2.515-5.287-1.789-1.787-.498.508c.253.264.472.544.613.855v.004c.16.351.235.708.22 1.06q-.03.53-.327 1.147l-.254.534c-.072.151-.118.246-.197.32v.002a.33.33 0 0 1-.219.086c-.062-.001-.099-.018-.154-.04a3 3 0 0 1-.201-.085l-1.461-.698a.146.146 0 0 1-.069-.195l.137-.287c.127-.267.21-.43.318-.531a.53.53 0 0 1 .354-.133c.15-.006.31.046.506.139l.142.068.262-.55-2.432-1.159-.261.549.11.055c.228.109.378.19.472.306.081.1.119.231.11.364-.01.147-.078.313-.196.56l-.15.322a.146.146 0 0 1-.196.069l-1.59-.758a.146.146 0 0 1-.068-.195l.465-.973q.221-.466.5-.775c.192-.22.449-.38.76-.477v.002c.27-.087.594-.108.939-.105l.066-.711zm-3.488 6.736-1.768 2.612.566.384.096-.14q.078-.117.143-.192c.042-.05.08-.089.138-.119a.46.46 0 0 1 .309-.039c.13.024.248.1.434.225l3.252 2.195c.159.108.262.185.326.291a.42.42 0 0 1 .062.281v.006c-.022.124-.092.23-.207.4l-.074.112.566.383 1.764-2.61-.568-.382-.13.19a.8.8 0 0 1-.277.273.4.4 0 0 1-.279.043c-.12-.028-.23-.1-.41-.221l-3.238-2.186c-.168-.113-.276-.194-.344-.295v-.002a.44.44 0 0 1-.074-.289c.012-.129.081-.237.187-.394l.094-.14zm-2.76 5.358q-.4.008-.781.133-.757.242-1.616 1.132l-2.463 2.561.495.477.066-.07c.152-.159.252-.255.383-.3a.42.42 0 0 1 .297-.004c.128.042.224.132.382.284l2.782 2.673c.16.154.258.249.308.366v.01a.52.52 0 0 1 .02.322c-.038.131-.131.234-.28.389l-.066.07.496.475 2.154-2.247q.284-.292.684-.877c.267-.387.44-.71.524-.959q.17-.505.134-1.134a3.1 3.1 0 0 0-.308-1.182 3.7 3.7 0 0 0-.797-1.068c-.514-.493-1.046-.806-1.6-.948a3 3 0 0 0-.812-.101zm-.61 1.334a2 2 0 0 1 .141.006l.004-.002c.189.013.39.06.598.13q.633.21 1.207.76.582.56.806 1.198v.002c.144.42.17.823.069 1.199-.103.376-.357.764-.75 1.174-.141.146-.225.231-.319.283l-.01.006a.4.4 0 0 1-.257.018c-.06-.019-.088-.046-.13-.079a2 2 0 0 1-.144-.127l-3.164-3.04a.146.146 0 0 1-.01-.208l.541-.562c.354-.369.691-.606 1.025-.701q.187-.055.393-.057zm-6.09 3.888-4.683 3.153.383.568.139-.095c.155-.105.263-.17.392-.182a.43.43 0 0 1 .28.066c.112.068.192.178.312.356l2.15 3.19q.1.148.157.247c.038.066.065.108.082.166v.008a.48.48 0 0 1-.065.356c-.076.115-.205.212-.406.347l-.026.018.385.568 4.856-3.271-.637-2.45-.688.186c.084.356.135.707.098 1.047a2.3 2.3 0 0 1-.353 1.025v.002c-.196.294-.486.564-.864.819l-.49.332c-.14.094-.226.15-.332.174v.002a.33.33 0 0 1-.23-.037c-.054-.033-.077-.066-.114-.112a3 3 0 0 1-.129-.177l-.904-1.344a.146.146 0 0 1 .04-.201l.263-.178c.245-.165.4-.264.545-.295a.54.54 0 0 1 .373.064c.133.071.244.198.365.377l.088.131.508-.342-1.508-2.232-.506.34.069.101c.142.211.23.36.251.506v.004a.53.53 0 0 1-.09.36v.004c-.082.123-.226.234-.452.386l-.295.198a.146.146 0 0 1-.202-.041l-.984-1.46a.146.146 0 0 1 .04-.202l.894-.602q.427-.29.824-.416c.277-.092.578-.096.894-.022.278.064.568.21.864.387l.422-.574zm-7.337 4.686q-.057 0-.114.002-.223.01-.453.069a6 6 0 0 0-.853.275l-3.885 1.615.275.662.108-.047.125-.056.01-.002a.8.8 0 0 1 .33-.067.36.36 0 0 1 .271.12c.078.078.132.182.194.331l1.525 3.668q.064.149.098.247c.022.065.037.102.037.17v.009000000000000001a.52.52 0 0 1-.115.293v.004c-.081.093-.198.154-.36.221l-.152.065.262.632 2.918-1.212-.264-.635-.164.068c-.173.072-.291.114-.416.106h-.01a.46.46 0 0 1-.256-.13v-.001c-.093-.095-.153-.23-.248-.46l-.541-1.296a.146.146 0 0 1 .078-.193l.543-.225a.15.15 0 0 1 .129.008l3.201 1.9 1.887-.785-.264-.633-.146.06a1.3 1.3 0 0 1-.354.104 1 1 0 0 1-.304-.021v-.002h-.002a1.7 1.7 0 0 1-.37-.152l-.084-.045-1.988-1.002a.146.146 0 0 1-.018-.25q.636-.422.956-1.065c.209-.421.218-.843.025-1.306a1.6 1.6 0 0 0-.502-.678 1.7 1.7 0 0 0-.768-.332h-.01q-.164-.03-.332-.033zm-.657 1.113a.95.95 0 0 1 .874.592c.086.21.11.425.06.627v.002a1.1 1.1 0 0 1-.342.553c-.182.168-.463.323-.851.484l-.967.403a.146.146 0 0 1-.192-.078l-.7-1.686a.146.146 0 0 1 .077-.191l1.075-.45c.377-.157.662-.244.884-.254h.002zm-7.5 1.61-.498.111-.09.268a.146.146 0 0 1-.183.093 2.8 2.8 0 0 0-.8-.125 3.5 3.5 0 0 0-.895.082 3.35 3.35 0 0 0-1.57.819 3.2 3.2 0 0 0-.928 1.474c-.17.575-.182 1.184-.036 1.838.149.66.426 1.218.833 1.682.41.463.89.784 1.45.967.562.182 1.139.206 1.745.07a3.47 3.47 0 0 0 1.79-1.02.146.146 0 0 1 .216.008l.316.368.785-.176-.45-2.016c-.039-.189-.067-.315-.04-.437a.46.46 0 0 1 .152-.256v-.002c.096-.074.216-.108.389-.147l.111-.025-.152-.68-3.078.69.148.68.25-.057c.186-.042.31-.064.432-.033a.5.5 0 0 1 .254.154v.006c.08.098.096.202.137.383l.058.25v.002c.049.22.05.418-.017.59-.068.176-.213.33-.418.482q-.31.233-.696.32a1.8 1.8 0 0 1-1.072-.086c-.354-.143-.668-.41-.943-.785q-.412-.57-.598-1.408c-.114-.509-.133-.97-.047-1.377.085-.405.25-.745.5-1.008v-.002a1.75 1.75 0 0 1 1.664-.508q.412.08.762.307v-.002c.222.14.533.428.904.8l.631-.372zM29.56 252.578a1.8 1.8 0 0 0-.375.047h-.01q-.355.084-.642.305c-.192.149-.334.311-.434.484v.002a2.7 2.7 0 0 0-.25.74v.003c-.062.325-.093.579-.104.751v.002l-.064 1.225c-.024.523-.08.905-.19 1.164-.109.254-.296.433-.539.49a.75.75 0 0 1-.464-.05.96.96 0 0 1-.413-.36 1.9 1.9 0 0 1-.257-.637 2.6 2.6 0 0 1 .193-1.734v-.002c.247-.522.627-.937 1.082-1.283l-.336-.664-2.31 1.012.123.523.449.084a.146.146 0 0 1 .11.193 3.8 3.8 0 0 0-.237 1.026q-.03.466.096.996c.178.757.539 1.322 1.087 1.723.494.355 1 .461 1.557.33a1.7 1.7 0 0 0 1.031-.694c.25-.36.404-.921.44-1.687l.072-1.41c.018-.424.075-.735.201-.952.117-.205.284-.35.488-.398.196-.046.399.031.573.184.183.163.304.403.375.705.109.463.075.939-.098 1.41v.002c-.16.44-.49.864-.922 1.28l.363.651 1.942-1.017-.121-.51-.307-.088a.146.146 0 0 1-.1-.19 2.84 2.84 0 0 0 .08-1.638 3.1 3.1 0 0 0-.576-1.225c-.272-.342-.574-.567-.902-.687a1.7 1.7 0 0 0-.486-.104h-.006a2 2 0 0 0-.12-.002zm3.27 7.086-.645.252.06.154c.07.175.11.296.094.424v.002a.42.42 0 0 1-.12.254c-.091.096-.216.152-.417.23l-3.578 1.41a5 5 0 0 1-.275.102c-.073.024-.12.04-.18.043l-.01.002a.47.47 0 0 1-.33-.14c-.096-.099-.166-.246-.254-.47l-.014-.032-.638.254 2.148 5.443 2.531-.09-.03-.713c-.365.005-.721-.02-1.046-.13a2.3 2.3 0 0 1-.924-.565q-.366-.383-.615-1.021l-.219-.551c-.062-.156-.1-.254-.1-.361v-.004c0-.078.031-.158.089-.217.043-.045.078-.062.13-.088q.079-.038.203-.086l1.506-.594a.146.146 0 0 1 .19.082l.117.295c.109.275.17.45.17.598a.53.53 0 0 1-.143.345c-.097.116-.244.198-.447.278l-.148.058.222.567 2.508-.988-.224-.567-.114.045c-.236.093-.398.145-.547.135a.54.54 0 0 1-.334-.164v-.002c-.102-.107-.179-.271-.279-.526l-.129-.33a.146.146 0 0 1 .082-.19l1.639-.646a.146.146 0 0 1 .19.084l.394 1.002q.19.481.228.897c.03.29-.03.585-.172.877v.002c-.121.257-.325.507-.562.758l.469.533 1.594-1.403zm2.986 7.516-.578.37.129.202v.002c.075.12.126.224.136.334v.004a.45.45 0 0 1-.088.293c-.066.099-.16.162-.318.264l-3.326 2.142c-.163.105-.284.171-.41.188a.47.47 0 0 1-.303-.06v-.003c-.105-.065-.18-.169-.281-.326l-.073-.117-.578.373 1.407 2.184.576-.37-.106-.164a1 1 0 0 1-.158-.341v-.008a.53.53 0 0 1 .033-.272v-.006a.57.57 0 0 1 .219-.226l3.607-2.323a.146.146 0 0 1 .188.217l-3.787 4.383.412.639 5.744-1.69a.146.146 0 0 1 .12.262l-3.65 2.351c-.149.097-.262.157-.386.168a.44.44 0 0 1-.287-.072c-.106-.068-.185-.177-.293-.346l-.065-.1-.574.372 1.68 2.611.576-.37-.139-.216a.76.76 0 0 1-.128-.345v-.002a.42.42 0 0 1 .072-.274c.033-.051.068-.079.117-.117q.073-.056.186-.129l3.37-2.17c.198-.127.365-.203.536-.174.169.03.3.156.414.332l.11.172.577-.37-1.62-2.518-4.198 1.226a.146.146 0 0 1-.15-.236l2.877-3.274zm5.78 8.412-.485.486.137.137c.123.122.203.212.236.334a.43.43 0 0 1-.022.297v.002c-.05.116-.144.218-.3.375l-2.739 2.754c-.15.15-.25.244-.37.29a.45.45 0 0 1-.307-.003c-.123-.046-.224-.139-.377-.291l-.063-.067-.484.487 2.234 2.22.485-.486-.153-.15c-.112-.112-.188-.205-.226-.313a.45.45 0 0 1 .082-.433q.056-.072.148-.163l.93-.937a.146.146 0 0 1 .207 0l.855.85c.562.558 1.124.843 1.698.876.582.037 1.055-.14 1.455-.542a1.9 1.9 0 0 0 .435-.68q.148-.386.115-.801a2 2 0 0 0-.248-.818c-.141-.27-.375-.573-.703-.899zm1.019 2.297a.15.15 0 0 1 .1.039l.556.553c.272.27.439.54.477.816.05.35-.064.675-.319.932-.169.17-.364.283-.58.328a1.1 1.1 0 0 1-.62-.051v-.002c-.208-.082-.432-.26-.7-.525l-.428-.422a.146.146 0 0 1 0-.207l1.414-1.422a.15.15 0 0 1 .1-.04m4.326 2.822-.375.572.139.092c.155.103.258.178.318.291v.002a.44.44 0 0 1 .045.281c-.02.13-.09.247-.21.426l-2.116 3.211q-.1.15-.168.24c-.046.062-.076.101-.123.139l-.01.004a.47.47 0 0 1-.354.078c-.135-.026-.274-.106-.476-.24l-.026-.02-.379.575 4.889 3.224 2.018-1.527-.436-.565c-.297.214-.603.394-.932.49q-.557.167-1.082.07v-.001q-.52-.104-1.09-.48l-.494-.327c-.14-.092-.227-.15-.289-.238v-.002a.33.33 0 0 1-.054-.23c.01-.063.028-.095.056-.147q.042-.077.115-.186l.893-1.353a.146.146 0 0 1 .201-.04l.266.175c.247.163.398.27.482.392a.53.53 0 0 1 .084.365c-.014.15-.087.304-.207.485l-.088.13.508.337 1.485-2.248-.508-.336-.069.101c-.14.213-.241.35-.369.426v.002a.54.54 0 0 1-.369.057c-.145-.03-.303-.12-.531-.27l-.297-.195a.146.146 0 0 1-.04-.203l.972-1.47a.146.146 0 0 1 .2-.042l.9.594q.431.284.7.603c.191.22.311.496.364.817.048.28.029.605-.022.947l.692.168.498-2.067zm6.793 4.295-.277.662.107.043.13.047v.002q.164.067.276.186a.34.34 0 0 1 .114.283c0 .108-.036.22-.096.367l-1.496 3.68q-.06.15-.106.242c-.03.062-.048.1-.095.148v.004a.5.5 0 0 1-.291.13c-.123.008-.246-.029-.409-.095l-.154-.064-.258.635 2.928 1.191.256-.637-.164-.066c-.174-.07-.289-.123-.371-.217v-.006a.44.44 0 0 1-.096-.273v-.002c0-.133.057-.27.15-.5l.53-1.303a.146.146 0 0 1 .19-.082l.544.223a.15.15 0 0 1 .086.1l.937 3.599 1.893.768.258-.633-.147-.06a1.3 1.3 0 0 1-.324-.179 1 1 0 0 1-.201-.226v-.004a1.7 1.7 0 0 1-.156-.371v-.002l-.028-.09-.707-2.11a.146.146 0 0 1 .164-.189q.748.148 1.426-.086c.446-.152.749-.443.938-.908.12-.286.154-.562.119-.836a1.7 1.7 0 0 0-.309-.775 2.1 2.1 0 0 0-.664-.608 6 6 0 0 0-.8-.406zm1.89 1.717a.2.2 0 0 1 .057.011l1.08.436c.38.154.644.294.809.443a.97.97 0 0 1 .31.502c.05.19.03.393-.05.588a1 1 0 0 1-.397.487c-.176.111-.392.16-.633.154-.247-.01-.556-.096-.945-.254l-.97-.393a.146.146 0 0 1-.08-.191l.687-1.691a.15.15 0 0 1 .132-.092"/></g><path fill="#f7d417" stroke="#000" stroke-linejoin="round" stroke-width=".5" d="m147.32 167.55.092-3.496s-1.877-2.99.302-6.204c0 0-4.629-2.448-3.552-6.283 0 0-4.185-1.07-3.878-5.674 0 0-4.518-.314-4.985-4.16 0 0-4.518.744-6.507-3.004 0 0-4.407.862-5.65-2.228 0 0-4.284 1.484-6.827-2.147 0 0-4.524 1.827-6.42-1.6-1.87 3.416-6.395 1.6-6.395 1.6-2.511 3.618-6.826 2.117-6.826 2.117-1.2 3.101-5.596 2.221-5.596 2.221-1.982 3.749-6.493 3.004-6.493 3.004-.444 3.834-4.956 4.148-4.956 4.148.357 4.615-3.822 5.662-3.822 5.662 1.102 3.834-3.52 6.277-3.52 6.277 2.234 3.231.375 6.198.375 6.198l-.105 3.224 74.775.345h-.011z"/><g transform="translate(-3.128 -1.744)scale(1.0056)"><path fill="#cbaf9a" stroke="#000" stroke-linejoin="round" stroke-width=".398" d="M112.53 147.47c2.413 1.512.13 3.128-1.718 2.09-4.568-3.457-9.67-4.686-17.252-3.784-10.477 1.246-22.065-.362-26.885 5.5-.724.881-3.226 5.15 7.842-.82-.69 4.128 4.459.753 8.439-1.12-2.743 2.867 4.198 3.337 8.588.523-2.158 2.894 1.633 2.816 5.228 2.836 5.259.164 2.355 4.793-6.647 4.926-.657.01-3.228 1.353.224 2.016 1.55.297.294 2.276 5.751-.523-.339 1.638 2 1.32 5.302.299 1.874 1.472 3.394-.054 5.004-.821 6.894 2.694 15.997 5.392 18.446-3.956 5.754-.663 10.516-1.508 7.938-3.697 7.495 3.056 7.93 1.877 7.816.37 3.594 1.358 7.775 3.197 6.072.21 3.456.884 7.241 1.19 10.192 2.956 2.988 1.55 1.96-1.413 1.32-2.375-1.72-2.586-4.789-2.88-7.834-3.262-3.675-.463-21.055-4.914-30.081.307-1.27-1.082-2.48-2.238-3.696-3.378.826-.022 1.422-.438 1.9-1.056 3.521.177 7.042-.16 10.563-1.108 1.604-.5 2.518.454 2.482 1.16 1.467-2.58-.564-3.114-2.06-3.008-5.955.338-9.53.026-12.41-.475-5.708-2.847-12.579 1.521-6.231 5.12z"/><path d="M113.87 142.42c-1.194.178-2.427.321-2.904 1.148.035-1.36 2.061-1.455 2.904-1.148"/><ellipse cx="113.24" cy="142.92" rx=".515" ry=".528"/></g><g stroke="#000" stroke-linejoin="round"><g stroke-width=".5"><path fill="#da4823" d="M45.99 159.187c2.358 13.379 5.035 28.554 6.625 42.561 2.801 20.745-8.285 36.437-3.303 56.163 7.56 24.055 44.496 10.952 60.688 27.542 16.191-16.59 53.128-3.487 60.686-27.542 4.983-19.726-6.103-35.418-3.302-56.163 1.59-14.007 4.268-29.182 6.625-42.561-23.113 12.548-45.95-3.776-64.009 6.66-18.06-10.436-40.897 5.888-64.009-6.66z"/><path fill="#8fbee3" d="M91.731 168.847c-3.846.07-7.762.53-11.669.963-7.592.845-16.48 1.456-25.746-.417 1.68 9.627 3.52 19.165 4.468 29.364 1.662 12.448.33 23.723-2.016 32.865C44.19 280.634 82.91 260.026 110 277.33c27.089-17.304 65.809 3.304 53.232-45.708-2.346-9.143-3.678-20.418-2.017-32.865.949-10.2 2.789-19.737 4.469-29.364-9.266 1.873-18.154 1.262-25.746.417-10.42-1.155-20.906-2.505-29.938 3.876-5.645-3.988-11.858-4.956-18.268-4.839z"/></g><path fill="#fff" stroke-linecap="round" stroke-width=".5" d="m143.07 175.827-2.447 4.135-.718 19.248h-2.466v1.808h-2.26v1.808h-2.26v1.807h20.301v-1.807h-2.26v-1.808h-2.26v-1.808h-2.467l-.717-19.248z"/><g stroke-width=".977"><g fill="#008545" stroke-width=".318"><path stroke-linecap="square" stroke-width=".32550480000000004" d="m71.872 182.893 10.455.572-3.461 8.855-6.037-.31z"/><path stroke-width=".32550480000000004" d="M79.037 180.979c4.84 2.758 7.567 5.762 8.408 8.984-4.917.857-10.163-1.468-8.408-8.984zM72.78 185.718c.651 5.54-.147 9.52-2.239 12.108-3.604-3.458-4.845-9.067 2.238-12.108z"/><path stroke-width=".32550480000000004" d="M71.872 182.893c-1.97 5.217-4.51 8.382-7.557 9.714-1.608-4.733-.129-10.284 7.557-9.714z"/><path stroke-width=".32550480000000004" d="M71.861 183.282c-5.464-1.078-9.002-3.059-10.82-5.847 4.391-2.376 10.102-1.839 10.82 5.847zM82.31 183.466c5.546.493 9.496-.42 12.02-2.59-3.555-3.508-9.19-4.59-12.02 2.59z"/><path stroke-width=".32550480000000004" d="M82.327 183.466c3.345 4.46 6.665 6.789 9.962 7.216.226-4.994-2.741-9.911-9.962-7.216zM80.584 186.2c4.17 3.697 6.22 7.199 6.38 10.526-4.987-.176-9.642-3.533-6.38-10.527z"/><path stroke-width=".32550480000000004" d="M78.866 192.32c2.853 4.79 3.747 8.75 2.892 11.97-4.7-1.684-8.119-6.297-2.892-11.97z"/><path stroke-width=".32550480000000004" d="M76.858 192.013c.632 5.542-.18 9.52-2.281 12.1-3.592-3.47-4.813-9.085 2.281-12.1z"/></g><g fill="#f7d417" stroke-linecap="round"><g stroke-width=".751"><path d="M599.76 198.8c-2.218-5.39-.812-9.366 3.23-7.682 0 0-6.21-4.386.428-6.788 5.62-2.033 8.985-2.867 6.786 4.818 0 0 5.7-10.135 7.576-3.33 1.548 5.62 2.14 9.409-5.545 7.21 0 0 7.678 4.971.944 7.088-8.105 2.548-8.042 2.31-5.844-5.374 0 0-5.357 9.449-7.575 4.058z" transform="matrix(.41385 -.12718 .12702 .4138 -196.332 186.537)"/><path d="M604.75 189.67s1.735.407 2.914 1.843M608.35 189.03s-.386 1.071.643 1.971M610.41 191.13s.578-1.221 1.371-1.135M609.68 192.33s1.221.75 1.757 2.014M608.97 192.97s0 2.014.6 2.914M606.64 192.2s-1.243-.107-2.207.236M607.11 192.91a10 10 0 0 0-1.564 2.121" transform="matrix(.41385 -.12718 .12702 .4138 -196.332 186.537)"/></g><g stroke-width=".747"><path d="M599.76 198.8c-2.218-5.39-.812-9.366 3.23-7.682 0 0-6.21-4.386.428-6.788 5.62-2.033 8.985-2.867 6.786 4.818 0 0 5.7-10.135 7.576-3.33 1.548 5.62 2.14 9.409-5.545 7.21 0 0 7.678 4.971.944 7.088-8.105 2.548-8.042 2.31-5.844-5.374 0 0-5.357 9.449-7.575 4.058z" transform="matrix(.40588 -.15682 .15665 .40584 -202.167 198.85)"/><path d="M604.75 189.67s1.735.407 2.914 1.843M608.35 189.03s-.386 1.071.643 1.971M610.41 191.13s.578-1.221 1.371-1.135M609.68 192.33s1.221.75 1.757 2.014M608.97 192.97s0 2.014.6 2.914M606.64 192.2s-1.243-.107-2.207.236M607.11 192.91a10 10 0 0 0-1.564 2.121" transform="matrix(.40588 -.15682 .15665 .40584 -202.167 198.85)"/><path d="M599.76 198.8c-2.218-5.39-.812-9.366 3.23-7.682 0 0-6.21-4.386.428-6.788 5.62-2.033 8.985-2.867 6.786 4.818 0 0 5.7-10.135 7.576-3.33 1.548 5.62 2.14 9.409-5.545 7.21 0 0 7.678 4.971.944 7.088-8.105 2.548-8.042 2.31-5.844-5.374 0 0-5.357 9.449-7.575 4.058z" transform="matrix(.4145 .1324 -.1325 .41435 -155.388 27.666)"/><path d="M604.75 189.67s1.735.407 2.914 1.843M608.35 189.03s-.386 1.071.643 1.971M610.41 191.13s.578-1.221 1.371-1.135M609.68 192.33s1.221.75 1.757 2.014M608.97 192.97s0 2.014.6 2.914M606.64 192.2s-1.243-.107-2.207.236M607.11 192.91a10 10 0 0 0-1.564 2.121" transform="matrix(.4145 .1324 -.1325 .41435 -155.388 27.666)"/><path d="M599.76 198.8c-2.218-5.39-.812-9.366 3.23-7.682 0 0-6.21-4.386.428-6.788 5.62-2.033 8.985-2.867 6.786 4.818 0 0 5.7-10.135 7.576-3.33 1.548 5.62 2.14 9.409-5.545 7.21 0 0 7.678 4.971.944 7.088-8.105 2.548-8.042 2.31-5.844-5.374 0 0-5.357 9.449-7.575 4.058z" transform="matrix(.43294 -.0435 .04334 .43285 -190.2 126.667)"/><path d="M604.75 189.67s1.735.407 2.914 1.843M608.35 189.03s-.386 1.071.643 1.971M610.41 191.13s.578-1.221 1.371-1.135M609.68 192.33s1.221.75 1.757 2.014M608.97 192.97s0 2.014.6 2.914M606.64 192.2s-1.243-.107-2.207.236M607.11 192.91a10 10 0 0 0-1.564 2.121" transform="matrix(.43294 -.0435 .04334 .43285 -190.2 126.667)"/></g><g stroke-width=".679"><path stroke-width=".32519347000000004" d="M72.15 197.885c-1.063-2.582-.39-4.486 1.547-3.68 0 0-2.974-2.1.205-3.25 2.69-.974 4.303-1.373 3.25 2.307 0 0 2.73-4.854 3.628-1.595.742 2.692 1.025 4.507-2.656 3.454 0 0 3.677 2.38.452 3.394-3.881 1.22-3.851 1.107-2.798-2.574 0 0-2.566 4.526-3.628 1.944"/><path stroke-width=".32519347000000004" d="M74.54 193.512s.83.195 1.395.883M76.264 193.206s-.185.513.307.944M77.25 194.212s.277-.585.657-.544M76.9 194.786s.585.36.842.965M76.56 195.093s0 .964.288 1.395M75.445 194.724s-.595-.051-1.057.113M75.67 195.064a4.8 4.8 0 0 0-.75 1.016"/></g></g></g><g stroke-linecap="round" stroke-width=".977"><path fill="#fff" stroke-width=".5998296" d="m110 178.737-9.549 6.96v14.813L79.48 215.997v18.419h-3.727v2.491h.99v18.69h-3.921v5.113h74.356v-5.113h-3.921v-18.69h.991v-2.491h-3.728v-18.419L119.55 200.51v-14.813z"/><g fill="none"><g stroke-width=".586"><path stroke-width=".5998296" d="M79.48 234.42h61.04M79.48 215.996h61.04M100.45 200.509h19.098M100.45 185.698h19.098M76.744 255.6h66.513"/></g><g stroke-width=".488"><path stroke-width=".49951680000000004" d="M103.091 240.235h13.819v15.354h-13.819zM129.705 240.747h6.001v9.67h-6.001zM84.292 221.206h6.001v9.67h-6.001zM129.705 221.206h6.001v9.67h-6.001zM112.795 221.206h6.001v13.206h-6zM101.208 221.206h6.001v13.206h-6.001zM84.292 240.747h6.001v9.67h-6.001zM106.561 188.738h6.89v5.998h-6.89z"/></g><path stroke-width=".49951680000000004" d="M96.159 234.41h2.982v21.181H96.16zM120.861 234.41h2.983v21.182h-2.983z"/></g><path fill="#fff" stroke-width=".49951680000000004" d="M95.003 228.689H125v6.073H95.003z"/><g fill="#21468b" stroke-width=".391"><path stroke-width=".4002276" d="M98.222 228.689v6.073M97.075 228.689v6.073M122.925 228.689v6.073M121.778 228.689v6.073M101.75 228.689v6.073M100.604 228.689v6.073M105.28 228.689v6.073M104.133 228.689v6.073M108.809 228.689v6.073M107.662 228.689v6.073M112.338 228.689v6.073M111.191 228.689v6.073M115.867 228.689v6.073M114.72 228.689v6.073M119.395 228.689v6.073M118.249 228.689v6.073"/></g></g></g></svg>