<svg viewBox="0 0 400 220" fill="none" xmlns="http://www.w3.org/2000/svg">
<path d="M267.225 124.004C267.225 165.392 231.524 197.046 190.902 197.046C150.279 197.046 117.348 158.8 117.348 117.412C117.348 76.0247 150.279 47.1689 190.902 47.1689C231.524 47.1689 267.225 82.617 267.225 124.004Z" fill="white"/>
<path fill-rule="evenodd" clip-rule="evenodd" d="M190.901 47.5169C150.447 47.5169 117.696 76.2401 117.696 117.412C117.696 158.642 150.503 196.698 190.901 196.698C231.354 196.698 266.877 165.178 266.877 124.005C266.877 82.8085 231.331 47.5169 190.901 47.5169ZM117 117.412C117 75.8096 150.111 46.8213 190.901 46.8213C231.717 46.8213 267.573 82.4258 267.573 124.005C267.573 165.606 231.694 197.394 190.901 197.394C150.054 197.394 117 158.958 117 117.412Z" fill="#374151"/>
<path d="M254.559 124.027C254.559 158.225 225.06 184.381 191.494 184.381C157.928 184.381 130.717 152.778 130.717 118.58C130.717 84.3818 157.928 60.5386 191.494 60.5386C225.06 60.5386 254.559 89.8289 254.559 124.027Z" fill="#E5E7EB"/>
<path fill-rule="evenodd" clip-rule="evenodd" d="M191.494 60.8861C158.096 60.8861 131.065 84.5967 131.065 118.58C131.065 152.62 158.152 184.033 191.494 184.033C224.89 184.033 254.211 158.011 254.211 124.027C254.211 90.02 224.867 60.8861 191.494 60.8861ZM130.369 118.58C130.369 84.1663 157.76 60.1904 191.494 60.1904C225.253 60.1904 254.907 89.6373 254.907 124.027C254.907 158.439 225.23 184.728 191.494 184.728C157.703 184.728 130.369 152.936 130.369 118.58Z" fill="#374151"/>
<path d="M240.486 123.328C240.486 149.948 217.524 170.308 191.396 170.308C165.267 170.308 144.086 145.708 144.086 119.088C144.086 92.4675 165.267 73.9077 191.396 73.9077C217.524 73.9077 240.486 96.7076 240.486 123.328Z" fill="white"/>
<path fill-rule="evenodd" clip-rule="evenodd" d="M191.396 74.2557C165.436 74.2557 144.434 92.6829 144.434 119.088C144.434 145.55 165.492 169.96 191.396 169.96C217.354 169.96 240.138 149.734 240.138 123.328C240.138 96.8991 217.331 74.2557 191.396 74.2557ZM143.739 119.088C143.739 92.2525 165.099 73.5601 191.396 73.5601C217.716 73.5601 240.834 96.5164 240.834 123.328C240.834 150.162 217.693 170.656 191.396 170.656C165.043 170.656 143.739 145.866 143.739 119.088Z" fill="#374151"/>
<path d="M225.71 122.954C225.71 141.413 209.787 155.531 191.669 155.531C173.551 155.531 158.863 138.473 158.863 120.014C158.863 101.555 173.551 88.6846 191.669 88.6846C209.787 88.6846 225.71 104.495 225.71 122.954Z" fill="#E5E7EB"/>
<path fill-rule="evenodd" clip-rule="evenodd" d="M191.669 89.0321C173.719 89.0321 159.211 101.769 159.211 120.013C159.211 138.315 173.775 155.183 191.669 155.183C209.617 155.183 225.362 141.199 225.362 122.954C225.362 104.686 209.594 89.0321 191.669 89.0321ZM158.515 120.013C158.515 101.339 173.382 88.3364 191.669 88.3364C209.979 88.3364 226.057 104.303 226.057 122.954C226.057 141.627 209.956 155.879 191.669 155.879C173.326 155.879 158.515 138.631 158.515 120.013Z" fill="#374151"/>
<path d="M211.637 122.958C211.637 133.839 202.418 142.162 191.929 142.162C181.439 142.162 172.936 132.106 172.936 121.225C172.936 110.344 181.439 102.757 191.929 102.757C202.418 102.757 211.637 112.077 211.637 122.958Z" fill="white"/>
<path fill-rule="evenodd" clip-rule="evenodd" d="M191.929 103.105C181.614 103.105 173.284 110.553 173.284 121.225C173.284 131.955 181.669 141.814 191.929 141.814C202.242 141.814 211.289 133.631 211.289 122.958C211.289 112.263 202.219 103.105 191.929 103.105ZM172.588 121.225C172.588 110.134 181.265 102.41 191.929 102.41C202.617 102.41 211.984 111.892 211.984 122.958C211.984 134.048 202.594 142.51 191.929 142.51C181.209 142.51 172.588 132.258 172.588 121.225Z" fill="#374151"/>
<path d="M200.378 122.312C200.378 126.781 196.523 130.2 192.137 130.2C187.75 130.2 184.194 126.07 184.194 121.601C184.194 117.132 187.75 114.016 192.137 114.016C196.523 114.016 200.378 117.843 200.378 122.312Z" fill="#E5E7EB"/>
<path fill-rule="evenodd" clip-rule="evenodd" d="M192.137 114.364C187.919 114.364 184.542 117.347 184.542 121.601C184.542 125.912 187.975 129.852 192.137 129.852C196.354 129.852 200.031 126.568 200.031 122.313C200.031 118.035 196.331 114.364 192.137 114.364ZM183.847 121.601C183.847 116.916 187.582 113.668 192.137 113.668C196.716 113.668 200.726 117.652 200.726 122.313C200.726 126.996 196.693 130.548 192.137 130.548C187.526 130.548 183.847 126.228 183.847 121.601Z" fill="#374151"/>
<path d="M238.145 61.1031C237.685 62.0773 237.51 62.6845 237.378 63.7535C238.41 64.4259 238.882 65.0083 240.02 65.4752C242.265 66.3966 250.733 62.0921 251.193 61.5869C250.835 59.5685 249.666 57.0961 249.666 57.0961C249.666 57.0961 239.468 58.2946 238.145 61.1031Z" fill="#374151"/>
<path fill-rule="evenodd" clip-rule="evenodd" d="M249.981 56.9472L249.666 57.0959L249.626 56.7505L249.874 56.7213L249.981 56.9472ZM237.325 64.1359C237.613 64.3303 237.852 64.5138 238.088 64.6952C238.208 64.7872 238.327 64.8787 238.452 64.9708C238.855 65.2692 239.283 65.5488 239.888 65.7968C240.24 65.9415 240.68 65.9722 241.149 65.9402C241.625 65.9078 242.163 65.8083 242.733 65.6644C243.874 65.3766 245.175 64.902 246.41 64.3868C247.647 63.8709 248.827 63.3103 249.728 62.8462C250.179 62.6142 250.562 62.4051 250.849 62.2366C250.992 62.1526 251.115 62.0769 251.211 62.0124C251.297 61.9545 251.39 61.8873 251.45 61.8209L251.566 61.6944L251.536 61.526C251.351 60.4835 250.959 59.3361 250.62 58.4588C250.449 58.0181 250.29 57.6413 250.173 57.3744C250.115 57.2409 250.067 57.1347 250.034 57.0616C250.017 57.0251 250.004 56.9968 249.995 56.9775L249.984 56.9554L249.981 56.9479C249.981 56.9479 249.981 56.9472 249.666 57.0959C249.626 56.7505 249.626 56.7504 249.626 56.7505L249.617 56.7514L249.595 56.7541C249.575 56.7566 249.546 56.7602 249.508 56.765C249.432 56.7746 249.32 56.7889 249.179 56.8082C248.895 56.8468 248.489 56.905 247.997 56.9836C247.015 57.1407 245.689 57.3799 244.321 57.7079C242.954 58.0354 241.532 58.4543 240.362 58.974C239.777 59.234 239.245 59.5232 238.812 59.8452C238.381 60.1655 238.029 60.5326 237.83 60.9545C237.387 61.8934 237.196 62.5155 237.061 63.4903L228.953 66.1224L229.167 66.784L237.325 64.1359ZM237.75 63.5839C238.045 63.785 238.3 63.9804 238.534 64.1602C238.649 64.2481 238.759 64.3323 238.866 64.4116C239.241 64.6892 239.618 64.9343 240.152 65.1532C240.361 65.2389 240.676 65.2752 241.102 65.2461C241.521 65.2175 242.016 65.1279 242.563 64.9899C243.656 64.714 244.922 64.2537 246.142 63.7448C247.36 63.2366 248.524 62.684 249.41 62.2277C249.853 61.9995 250.224 61.7966 250.497 61.6366C250.628 61.56 250.733 61.4947 250.812 61.4422C250.626 60.5199 250.282 59.5134 249.971 58.71C249.805 58.2803 249.649 57.9129 249.536 57.6531C249.506 57.5855 249.479 57.5252 249.456 57.473C249.403 57.48 249.341 57.4882 249.272 57.4975C248.993 57.5355 248.592 57.5929 248.107 57.6705C247.136 57.8259 245.829 58.0618 244.483 58.3844C243.134 58.7077 241.758 59.1149 240.644 59.6098C240.087 59.8572 239.605 60.1223 239.227 60.4034C238.847 60.6862 238.591 60.971 238.459 61.2511C238.047 62.1256 237.875 62.681 237.75 63.5839Z" fill="#374151"/>
<path d="M251.338 61.5631C250.973 59.5495 249.793 57.0813 249.793 57.0813L271.285 51.5317C273.307 47.4522 277.919 39.0758 280.191 38.2064C283.031 37.1197 291.636 41.1994 285.229 46.9787C289.072 47.8785 295.062 52.2684 288.847 56.2943C284.731 59.1743 276.193 56.0259 272.439 54.0916L251.338 61.5631Z" fill="white"/>
<path fill-rule="evenodd" clip-rule="evenodd" d="M282.98 38.6401C281.905 38.329 280.922 38.299 280.315 38.5313C280.092 38.6168 279.809 38.8085 279.475 39.117C279.144 39.4217 278.782 39.8221 278.396 40.2999C277.625 41.2556 276.781 42.4983 275.94 43.8492C274.352 46.3985 272.79 49.307 271.772 51.3349C272.186 51.5098 272.457 51.7299 272.632 51.9388C272.676 51.9917 272.714 52.0431 272.746 52.0919C272.856 52.0464 272.993 51.9897 273.152 51.9236C273.596 51.7397 274.213 51.4829 274.91 51.1912C276.303 50.6076 278.009 49.8856 279.265 49.3293C280.711 48.6891 282.165 48.0229 283.257 47.5165C283.804 47.2633 284.259 47.0502 284.579 46.9004C284.738 46.8255 284.864 46.7665 284.949 46.7262L285.034 46.6863C286.567 45.2913 287.152 44.0456 287.196 43.0024C287.241 41.9542 286.742 41.0279 285.939 40.271C285.133 39.5124 284.044 38.9477 282.98 38.6401ZM285.917 46.8053C287.24 45.4802 287.842 44.2092 287.891 43.0318C287.947 41.7235 287.318 40.6142 286.416 39.7646C285.516 38.9168 284.322 38.3041 283.174 37.9718C282.037 37.643 280.879 37.5705 280.067 37.8816C279.722 38.0134 279.363 38.2737 279.003 38.6055C278.639 38.9413 278.253 39.3698 277.855 39.8632C277.059 40.8502 276.197 42.1195 275.349 43.4814C273.691 46.1437 272.064 49.1875 271.044 51.2347L249.707 56.7444L249.297 56.8502L249.479 57.2313L249.482 57.2375L249.492 57.2575C249.5 57.2754 249.513 57.3022 249.529 57.3371C249.561 57.407 249.608 57.5096 249.665 57.6392C249.78 57.8985 249.937 58.2652 250.105 58.6941C250.443 59.5559 250.819 60.6516 250.995 61.6251L251.068 62.0275L272.414 54.4695C274.321 55.4379 277.353 56.6774 280.434 57.3384C283.562 58.0093 286.854 58.1094 289.041 56.5829C290.632 55.5514 291.5 54.4601 291.781 53.3526C292.066 52.2353 291.735 51.1778 291.095 50.2646C289.956 48.6409 287.781 47.3789 285.917 46.8053ZM272.923 53.9469C274.798 54.8789 277.672 56.0345 280.58 56.6582C283.687 57.3247 286.719 57.3592 288.648 56.0093L288.653 56.0058L288.658 56.0024C290.172 55.0219 290.885 54.0559 291.107 53.1811C291.328 52.3149 291.086 51.4638 290.525 50.6639C289.411 49.0753 287.115 47.8081 285.266 47.3457L285.246 47.3554C285.16 47.3958 285.034 47.4551 284.874 47.5302C284.554 47.6804 284.097 47.894 283.55 48.1476C282.455 48.6549 280.998 49.323 279.547 49.9654C278.284 50.5248 276.572 51.2491 275.179 51.8329C274.481 52.1249 273.863 52.3821 273.419 52.5662C273.247 52.6374 273.101 52.6976 272.987 52.7448C273.007 52.8368 273.024 52.9447 273.035 53.0624C273.057 53.311 273.048 53.6357 272.923 53.9469ZM272.246 52.6606L272.245 52.6598L272.235 52.6321L272.231 52.6099C272.231 52.6095 272.231 52.6092 272.231 52.6087C272.229 52.6025 272.224 52.5885 272.216 52.5683C272.198 52.5282 272.164 52.463 272.099 52.3857C271.979 52.2432 271.742 52.0424 271.277 51.893L250.282 57.3143C250.288 57.3284 250.295 57.3429 250.301 57.3577C250.419 57.6241 250.58 58.0002 250.753 58.4402C251.052 59.2049 251.392 60.1752 251.599 61.1016L272.221 53.7999C272.336 53.613 272.363 53.3688 272.342 53.1235C272.33 52.9904 272.305 52.8716 272.283 52.7859C272.272 52.7435 272.262 52.7101 272.255 52.6882C272.253 52.6818 272.251 52.6765 272.25 52.6722C272.249 52.6691 272.248 52.6666 272.247 52.6647L272.246 52.6606Z" fill="#374151"/>
<path d="M272.999 171.393C272.061 171.923 271.567 172.317 270.841 173.113C271.295 174.258 271.344 175.007 272.003 176.045C273.303 178.095 282.702 179.474 283.369 179.328C284.243 177.474 284.718 174.78 284.718 174.78C284.718 174.78 275.702 169.866 272.999 171.393Z" fill="#374151"/>
<path fill-rule="evenodd" clip-rule="evenodd" d="M285.06 174.841L284.718 174.781L284.884 174.475L285.104 174.595L285.06 174.841ZM270.577 173.396C270.7 173.721 270.789 174.008 270.877 174.293C270.922 174.437 270.966 174.581 271.015 174.728C271.171 175.205 271.359 175.68 271.709 176.232C271.913 176.554 272.255 176.833 272.656 177.078C273.063 177.326 273.56 177.556 274.108 177.768C275.205 178.192 276.541 178.557 277.847 178.85C279.155 179.143 280.442 179.368 281.446 179.51C281.947 179.581 282.381 179.631 282.713 179.66C282.878 179.674 283.022 179.683 283.137 179.686C283.241 179.688 283.356 179.687 283.443 179.668L283.611 179.631L283.684 179.477C284.135 178.519 284.479 177.356 284.708 176.444C284.824 175.986 284.911 175.586 284.97 175.301C285 175.158 285.022 175.044 285.037 174.965C285.045 174.926 285.05 174.895 285.054 174.874L285.059 174.85L285.06 174.842C285.06 174.842 285.06 174.841 284.718 174.781C284.884 174.475 284.884 174.475 284.884 174.475L284.877 174.471L284.857 174.461C284.839 174.451 284.813 174.437 284.78 174.419C284.712 174.383 284.613 174.33 284.486 174.264C284.232 174.132 283.867 173.944 283.42 173.725C282.528 173.285 281.308 172.715 280.001 172.191C278.697 171.669 277.294 171.189 276.039 170.937C275.411 170.811 274.81 170.74 274.27 170.753C273.733 170.765 273.234 170.861 272.828 171.091C271.924 171.601 271.408 171.998 270.735 172.716L262.596 170.179L262.389 170.843L270.577 173.396ZM271.244 173.191C271.368 173.525 271.463 173.832 271.55 174.114C271.593 174.252 271.634 174.384 271.675 174.511C271.821 174.954 271.988 175.372 272.297 175.859C272.417 176.05 272.654 176.262 273.018 176.484C273.377 176.703 273.833 176.916 274.359 177.119C275.411 177.526 276.71 177.881 277.999 178.171C279.287 178.46 280.556 178.681 281.543 178.821C282.037 178.891 282.457 178.94 282.772 178.967C282.923 178.98 283.047 178.987 283.141 178.99C283.522 178.13 283.823 177.11 284.034 176.274C284.146 175.827 284.232 175.438 284.289 175.16C284.304 175.088 284.317 175.023 284.328 174.967C284.28 174.942 284.226 174.913 284.164 174.881C283.914 174.751 283.554 174.566 283.113 174.349C282.23 173.914 281.028 173.352 279.742 172.837C278.455 172.322 277.097 171.859 275.902 171.619C275.304 171.499 274.757 171.437 274.286 171.448C273.813 171.459 273.439 171.544 273.17 171.696C272.328 172.172 271.867 172.526 271.244 173.191Z" fill="#374151"/>
<path d="M283.5 179.393C284.366 177.538 284.829 174.842 284.829 174.842L305.577 182.732C309.585 180.57 318.189 176.399 320.545 177.002C323.491 177.756 328.157 186.058 319.588 187.072C322.205 190.028 324.557 197.072 317.159 196.766C312.135 196.738 306.986 189.235 305.039 185.487L283.5 179.393Z" fill="white"/>
<path fill-rule="evenodd" clip-rule="evenodd" d="M322.572 178.967C321.874 178.092 321.089 177.5 320.459 177.339C320.227 177.279 319.886 177.273 319.435 177.331C318.989 177.389 318.462 177.506 317.871 177.673C316.69 178.008 315.283 178.534 313.815 179.151C311.046 180.314 308.091 181.785 306.088 182.852C306.325 183.234 306.419 183.57 306.441 183.842C306.447 183.911 306.448 183.974 306.446 184.033C306.562 184.059 306.706 184.092 306.875 184.13C307.343 184.236 307.995 184.384 308.732 184.548C310.207 184.877 312.016 185.273 313.363 185.545C314.913 185.858 316.484 186.154 317.669 186.372C318.261 186.481 318.756 186.571 319.103 186.633C319.277 186.664 319.413 186.688 319.506 186.705L319.598 186.721C321.656 186.469 322.853 185.79 323.492 184.964C324.134 184.134 324.262 183.09 324.044 182.008C323.825 180.924 323.262 179.833 322.572 178.967ZM320.25 187.328C322.096 187.011 323.321 186.322 324.042 185.39C324.843 184.354 324.971 183.085 324.726 181.87C324.481 180.658 323.861 179.469 323.115 178.534C322.378 177.609 321.475 176.881 320.632 176.665C320.274 176.573 319.831 176.578 319.346 176.641C318.854 176.705 318.291 176.831 317.681 177.004C316.461 177.35 315.025 177.888 313.546 178.509C310.654 179.724 307.568 181.268 305.553 182.35L284.954 174.517L284.558 174.367L284.487 174.783L284.486 174.79L284.482 174.812C284.478 174.831 284.473 174.86 284.466 174.898C284.452 174.974 284.431 175.085 284.403 175.224C284.347 175.501 284.263 175.891 284.152 176.339C283.93 177.237 283.604 178.349 283.185 179.245L283.012 179.616L304.801 185.781C305.798 187.674 307.556 190.437 309.689 192.757C311.854 195.112 314.484 197.096 317.151 197.114C319.045 197.191 320.383 196.802 321.253 196.061C322.131 195.313 322.472 194.259 322.477 193.144C322.487 191.161 321.44 188.874 320.25 187.328ZM305.519 185.649C306.51 187.493 308.188 190.097 310.201 192.286C312.352 194.625 314.806 196.405 317.161 196.418L317.167 196.418L317.173 196.419C318.975 196.493 320.115 196.117 320.802 195.531C321.483 194.952 321.777 194.117 321.782 193.14C321.791 191.2 320.648 188.839 319.407 187.394L319.385 187.39C319.291 187.373 319.154 187.349 318.98 187.318C318.632 187.255 318.136 187.166 317.543 187.056C316.356 186.838 314.781 186.541 313.225 186.227C311.871 185.954 310.056 185.556 308.581 185.227C307.843 185.062 307.19 184.915 306.721 184.809C306.54 184.767 306.386 184.732 306.266 184.705C306.228 184.791 306.18 184.89 306.121 184.992C305.995 185.207 305.8 185.467 305.519 185.649ZM305.709 184.208L305.709 184.207L305.717 184.178L305.726 184.158C305.726 184.158 305.727 184.157 305.727 184.157C305.729 184.151 305.733 184.137 305.738 184.115C305.747 184.072 305.756 183.999 305.748 183.899C305.733 183.713 305.655 183.412 305.362 183.022L285.094 175.315C285.091 175.33 285.088 175.346 285.085 175.361C285.027 175.647 284.941 176.047 284.827 176.506C284.63 177.303 284.347 178.291 283.98 179.167L305.03 185.123C305.233 185.037 305.396 184.854 305.52 184.641C305.587 184.526 305.635 184.414 305.667 184.332C305.682 184.291 305.694 184.257 305.7 184.236C305.703 184.229 305.704 184.224 305.705 184.219C305.706 184.216 305.707 184.214 305.708 184.212L305.709 184.208Z" fill="#374151"/>
<path d="M290.09 117.291C289.806 118.33 289.737 118.959 289.791 120.034C290.923 120.519 291.489 121.011 292.69 121.275C295.061 121.797 302.661 116.099 303.028 115.522C302.327 113.595 300.75 111.361 300.75 111.361C300.75 111.361 290.911 114.297 290.09 117.291Z" fill="#374151"/>
<path fill-rule="evenodd" clip-rule="evenodd" d="M301.035 111.161L300.75 111.361L300.651 111.028L300.89 110.956L301.035 111.161ZM289.805 120.42C290.122 120.562 290.389 120.702 290.653 120.84C290.787 120.91 290.92 120.98 291.059 121.049C291.508 121.273 291.977 121.475 292.615 121.615C292.988 121.697 293.426 121.652 293.883 121.54C294.346 121.426 294.859 121.235 295.396 120.995C296.47 120.515 297.67 119.824 298.798 119.104C299.927 118.383 300.993 117.627 301.801 117.015C302.205 116.709 302.547 116.437 302.8 116.222C302.927 116.114 303.035 116.019 303.118 115.939C303.193 115.867 303.273 115.784 303.321 115.709L303.413 115.564L303.354 115.403C302.993 114.408 302.41 113.345 301.924 112.54C301.68 112.135 301.459 111.791 301.298 111.548C301.217 111.427 301.152 111.33 301.106 111.264C301.084 111.231 301.066 111.206 301.054 111.188L301.04 111.168L301.035 111.161C301.035 111.161 301.035 111.161 300.75 111.361C300.651 111.028 300.651 111.028 300.651 111.028L300.643 111.03L300.621 111.037C300.602 111.043 300.574 111.051 300.537 111.062C300.464 111.085 300.357 111.118 300.22 111.162C299.948 111.249 299.557 111.376 299.087 111.538C298.146 111.862 296.882 112.325 295.59 112.884C294.3 113.442 292.971 114.099 291.908 114.813C291.376 115.17 290.902 115.546 290.531 115.938C290.162 116.328 289.878 116.75 289.755 117.2C289.481 118.201 289.399 118.847 289.434 119.83L281.9 123.818L282.225 124.433L289.805 120.42ZM290.129 119.803C290.454 119.951 290.739 120.099 291 120.236C291.129 120.303 291.251 120.367 291.37 120.427C291.788 120.636 292.201 120.812 292.765 120.936C292.985 120.984 293.303 120.966 293.717 120.864C294.125 120.764 294.597 120.59 295.112 120.36C296.142 119.9 297.309 119.229 298.423 118.517C299.536 117.807 300.587 117.063 301.381 116.461C301.778 116.159 302.109 115.896 302.35 115.691C302.466 115.593 302.558 115.511 302.627 115.446C302.285 114.569 301.773 113.637 301.328 112.899C301.091 112.504 300.874 112.169 300.718 111.933C300.677 111.871 300.64 111.816 300.608 111.769C300.557 111.785 300.498 111.804 300.431 111.825C300.163 111.91 299.778 112.036 299.313 112.196C298.383 112.516 297.137 112.973 295.866 113.523C294.593 114.073 293.308 114.711 292.296 115.391C291.79 115.73 291.36 116.074 291.036 116.416C290.71 116.76 290.508 117.085 290.426 117.383C290.17 118.316 290.097 118.893 290.129 119.803Z" fill="#374151"/>
<path d="M303.166 115.474C302.46 113.553 300.873 111.325 300.873 111.325L321.089 102.159C322.379 97.792 325.48 88.7468 327.568 87.4994C330.178 85.9401 339.357 88.4777 334.041 95.2735C337.982 95.4984 344.638 98.7917 339.209 103.827C335.65 107.373 326.697 105.741 322.666 104.482L303.166 115.474Z" fill="white"/>
<path fill-rule="evenodd" clip-rule="evenodd" d="M330.391 87.4465C329.278 87.3251 328.305 87.4647 327.747 87.7981C327.541 87.9208 327.296 88.1582 327.019 88.5198C326.746 88.8768 326.458 89.3336 326.161 89.8707C325.566 90.9447 324.948 92.3142 324.352 93.7897C323.226 96.5743 322.188 99.7083 321.535 101.881C321.973 101.982 322.278 102.152 322.486 102.328C322.539 102.372 322.585 102.417 322.624 102.459C322.725 102.396 322.85 102.316 322.996 102.223C323.401 101.966 323.965 101.607 324.601 101.2C325.873 100.385 327.429 99.3799 328.571 98.6156C329.885 97.7362 331.202 96.8296 332.192 96.1427C332.686 95.7993 333.098 95.511 333.387 95.3085C333.531 95.2072 333.645 95.1275 333.722 95.073L333.798 95.0192C335.069 93.3811 335.431 92.0532 335.295 91.018C335.158 89.9779 334.508 89.1512 333.586 88.5439C332.662 87.9352 331.491 87.5665 330.391 87.4465ZM334.689 94.9845C335.764 93.4513 336.138 92.0957 335.984 90.9273C335.814 89.629 335.003 88.6446 333.969 87.9629C332.936 87.2827 331.655 86.8846 330.466 86.7549C329.29 86.6267 328.137 86.7546 327.39 87.2009C327.073 87.39 326.765 87.7082 326.467 88.097C326.166 88.4905 325.859 88.9792 325.552 89.5337C324.938 90.6429 324.308 92.0416 323.707 93.5291C322.532 96.4372 321.453 99.7154 320.801 101.908L300.73 111.008L300.345 111.183L300.59 111.527L300.594 111.532L300.607 111.55C300.618 111.567 300.635 111.591 300.657 111.622C300.701 111.686 300.764 111.779 300.843 111.897C301.001 112.132 301.218 112.467 301.458 112.86C301.939 113.651 302.498 114.665 302.839 115.594L302.98 115.978L322.706 104.859C324.752 105.484 327.952 106.183 331.101 106.304C334.297 106.427 337.558 105.958 339.45 104.078C340.839 102.788 341.506 101.564 341.593 100.425C341.681 99.275 341.173 98.2902 340.385 97.5008C338.984 96.0973 336.624 95.2286 334.689 94.9845ZM323.118 104.256C325.126 104.851 328.156 105.495 331.128 105.609C334.303 105.731 337.295 105.243 338.963 103.581L338.968 103.577L338.972 103.572C340.295 102.346 340.831 101.272 340.899 100.372C340.967 99.4804 340.583 98.6836 339.893 97.9922C338.522 96.619 336.041 95.766 334.141 95.6287L334.123 95.6417C334.045 95.6964 333.931 95.7764 333.787 95.878C333.497 96.081 333.084 96.37 332.588 96.7141C331.597 97.4023 330.277 98.3112 328.958 99.1937C327.81 99.9622 326.249 100.97 324.976 101.785C324.34 102.193 323.775 102.553 323.369 102.811C323.212 102.91 323.079 102.995 322.975 103.061C323.009 103.148 323.046 103.251 323.076 103.366C323.14 103.607 323.188 103.928 323.118 104.256ZM322.23 103.106L322.229 103.105L322.214 103.079L322.207 103.058C322.206 103.058 322.206 103.057 322.206 103.057C322.203 103.051 322.196 103.038 322.184 103.02C322.16 102.983 322.115 102.925 322.038 102.86C321.896 102.74 321.627 102.583 321.144 102.516L301.395 111.47C301.404 111.483 301.412 111.496 301.421 111.51C301.583 111.752 301.807 112.095 302.052 112.498C302.479 113.2 302.981 114.098 303.344 114.975L322.401 104.232C322.483 104.028 322.467 103.783 322.404 103.545C322.369 103.416 322.324 103.303 322.288 103.223C322.27 103.183 322.254 103.151 322.243 103.131C322.24 103.125 322.238 103.12 322.236 103.116C322.234 103.113 322.233 103.111 322.232 103.109L322.23 103.106Z" fill="#374151"/>
<path d="M310.804 67.476C312.51 70.1796 316.395 75.4992 318.288 75.1497C320.654 74.7127 309.49 64.4687 310.804 67.476Z" fill="#374151"/>
<path d="M329.224 71.3663C328.859 70.5309 327.184 64.8959 329.312 64.364C331.44 63.8321 330.304 72.4864 329.224 71.3663Z" fill="#374151"/>
<path fill-rule="evenodd" clip-rule="evenodd" d="M318.891 75.1123C318.781 75.3356 318.574 75.4504 318.351 75.4915C318.027 75.5514 317.689 75.4853 317.362 75.3536C317.034 75.2212 316.694 75.0131 316.351 74.7566C315.666 74.2437 314.931 73.5064 314.214 72.6866C312.777 71.0446 311.369 69.0229 310.51 67.6615L310.496 67.6392L310.485 67.6151C310.4 67.4204 310.333 67.2128 310.352 67.027C310.362 66.9225 310.403 66.7991 310.508 66.7032C310.612 66.6089 310.735 66.5805 310.832 66.5767C311.008 66.5698 311.197 66.6395 311.357 66.715C311.532 66.7968 311.73 66.9135 311.943 67.0544C312.794 67.6158 314.01 68.6448 315.182 69.7703C316.353 70.8962 317.504 72.141 318.215 73.1416C318.565 73.6335 318.837 74.104 318.93 74.4894C318.976 74.6823 318.992 74.9085 318.891 75.1123ZM311.166 67.3969C311.278 67.4567 311.41 67.5361 311.56 67.635C312.359 68.1622 313.54 69.1576 314.7 70.2719C315.859 71.3856 316.973 72.5958 317.648 73.5448C317.992 74.0278 318.194 74.4058 318.253 74.6525C318.273 74.7349 318.271 74.7782 318.269 74.7957C318.261 74.799 318.247 74.8034 318.225 74.8075C318.075 74.835 317.878 74.8113 317.623 74.7085C317.369 74.6063 317.082 74.435 316.768 74.1997C316.139 73.729 315.441 73.0329 314.737 72.2286C313.369 70.6643 312.018 68.7362 311.166 67.3969ZM318.279 74.79C318.279 74.7901 318.278 74.791 318.275 74.7925C318.277 74.7906 318.279 74.7899 318.279 74.79ZM329.46 71.013C329.519 70.9167 329.59 70.7669 329.664 70.5553C329.876 69.9476 330.049 69.0194 330.124 68.0585C330.2 67.095 330.173 66.1405 330.01 65.4737C329.928 65.1362 329.82 64.9141 329.709 64.7947C329.619 64.6982 329.532 64.6674 329.396 64.7013C329.05 64.7878 328.813 65.0817 328.689 65.6401C328.565 66.1982 328.581 66.9318 328.678 67.7078C328.847 69.0518 329.247 70.422 329.46 71.013ZM329.366 71.1307C329.365 71.1312 329.365 71.1315 329.365 71.1314L329.366 71.1307ZM328.01 65.4896C328.159 64.8158 328.51 64.2058 329.228 64.0264C329.624 63.9273 329.967 64.0507 330.218 64.3213C330.448 64.5689 330.593 64.9269 330.686 65.3085C330.874 66.0798 330.895 67.1191 330.818 68.1127C330.74 69.1088 330.559 70.101 330.321 70.7843C330.206 71.1143 330.06 71.4246 329.869 71.6128C329.77 71.711 329.624 71.8091 329.435 71.814C329.24 71.819 329.084 71.7222 328.974 71.6075L328.93 71.5626L328.905 71.5054C328.708 71.0543 328.19 69.404 327.988 67.7945C327.887 66.9908 327.86 66.1638 328.01 65.4896Z" fill="#374151"/>
<path d="M361.79 105.338C358.854 104.073 352.642 101.883 351.279 103.242C349.574 104.94 364.575 107.075 361.79 105.338Z" fill="#374151"/>
<path d="M344.399 112.547C345.173 113.03 349.741 116.729 348.287 118.372C346.833 120.014 342.875 112.234 344.399 112.547Z" fill="#374151"/>
<path fill-rule="evenodd" clip-rule="evenodd" d="M350.802 103.613C350.767 103.367 350.872 103.155 351.033 102.995C351.266 102.762 351.582 102.626 351.926 102.55C352.272 102.473 352.67 102.452 353.098 102.47C353.953 102.506 354.976 102.698 356.031 102.968C358.145 103.51 360.449 104.381 361.928 105.018L361.952 105.028L361.974 105.042C362.155 105.155 362.328 105.288 362.417 105.451C362.468 105.544 362.504 105.668 362.471 105.807C362.439 105.943 362.354 106.036 362.276 106.094C362.134 106.2 361.939 106.249 361.764 106.278C361.574 106.309 361.345 106.325 361.089 106.329C360.07 106.347 358.485 106.186 356.883 105.921C355.279 105.655 353.627 105.279 352.474 104.856C351.907 104.648 351.417 104.414 351.122 104.149C350.975 104.016 350.834 103.838 350.802 103.613ZM361.537 105.607C361.41 105.621 361.256 105.63 361.077 105.634C360.12 105.651 358.583 105.498 356.996 105.234C355.41 104.972 353.807 104.604 352.713 104.203C352.157 103.999 351.776 103.802 351.588 103.632C351.525 103.575 351.502 103.538 351.494 103.522C351.499 103.515 351.508 103.504 351.524 103.488C351.631 103.381 351.808 103.288 352.076 103.229C352.343 103.17 352.677 103.149 353.069 103.165C353.854 103.198 354.823 103.377 355.858 103.642C357.872 104.158 360.077 104.984 361.537 105.607ZM351.489 103.533C351.489 103.533 351.489 103.532 351.491 103.529C351.49 103.531 351.489 103.533 351.489 103.533ZM344.405 112.971C344.41 113.085 344.436 113.248 344.495 113.464C344.664 114.085 345.046 114.949 345.528 115.784C346.01 116.621 346.572 117.393 347.084 117.851C347.343 118.082 347.557 118.205 347.716 118.24C347.845 118.269 347.934 118.245 348.027 118.141C348.263 117.874 348.293 117.497 348.079 116.966C347.865 116.436 347.438 115.84 346.918 115.255C346.019 114.242 344.914 113.338 344.405 112.971ZM344.415 112.821C344.416 112.82 344.416 112.82 344.416 112.82L344.415 112.821ZM348.724 116.706C348.982 117.346 349.038 118.048 348.547 118.602C348.276 118.908 347.924 119 347.564 118.919C347.234 118.845 346.912 118.631 346.62 118.369C346.028 117.84 345.423 116.995 344.925 116.131C344.426 115.266 344.014 114.345 343.824 113.647C343.732 113.31 343.677 112.972 343.728 112.708C343.754 112.571 343.819 112.408 343.972 112.297C344.13 112.182 344.313 112.174 344.469 112.206L344.53 112.219L344.583 112.252C345.001 112.512 346.362 113.58 347.439 114.793C347.976 115.399 348.466 116.066 348.724 116.706Z" fill="#374151"/>
</svg>
