<svg viewBox="0 0 16 16" fill="currentColor" xmlns="http://www.w3.org/2000/svg">
<path d="M8.02544 8.60469C8.18252 8.60391 8.33701 8.56474 8.47532 8.49063C8.61363 8.41652 8.73153 8.30974 8.81866 8.17966C8.9058 8.04958 8.95949 7.9002 8.97503 7.74463C8.99057 7.58906 8.96748 7.43208 8.90779 7.28747C8.86214 7.17031 8.7937 7.06326 8.70638 6.97249C8.59662 6.85906 8.46036 6.77443 8.30975 6.72613C8.15915 6.67784 7.99888 6.66738 7.84322 6.69568C7.7797 6.70453 7.71811 6.72389 7.661 6.75295L7.48837 6.83886L7.3445 6.9534C7.16471 7.1411 7.06501 7.39086 7.06638 7.65018C7.06638 7.90333 7.16742 8.14612 7.34728 8.32512C7.52714 8.50412 7.77108 8.60469 8.02544 8.60469Z" fill="currentColor"/>
<path d="M4.8701 6.97249C4.78095 6.88302 4.67487 6.81201 4.558 6.76356C4.44113 6.7151 4.31577 6.69015 4.18917 6.69015C4.06256 6.69015 3.9372 6.7151 3.82033 6.76356C3.70346 6.81201 3.59738 6.88302 3.50823 6.97249C3.42091 7.06326 3.35247 7.17031 3.30682 7.28747C3.23338 7.4613 3.21331 7.65288 3.24915 7.83804C3.285 8.02321 3.37515 8.19366 3.50823 8.32788C3.60145 8.41219 3.70849 8.47999 3.82472 8.52833C3.93854 8.58176 4.06336 8.60791 4.18917 8.60469C4.34624 8.60391 4.50073 8.56474 4.63904 8.49063C4.77735 8.41652 4.89525 8.30974 4.98238 8.17966C5.06951 8.04958 5.12321 7.9002 5.13875 7.74463C5.15429 7.58906 5.1312 7.43208 5.07151 7.28747C5.02586 7.17031 4.95742 7.06326 4.8701 6.97249Z" fill="currentColor"/>
<path d="M12.2306 6.76356C12.3474 6.81201 12.4535 6.88302 12.5427 6.97249C12.63 7.06326 12.6984 7.17031 12.7441 7.28747C12.7978 7.40075 12.824 7.52498 12.8208 7.65018C12.8225 7.79218 12.7923 7.93276 12.7325 8.06168C12.6726 8.19059 12.5846 8.3046 12.4749 8.39538C12.3652 8.48617 12.2365 8.55144 12.0982 8.58645C11.9599 8.62146 11.8156 8.62532 11.6756 8.59775C11.5356 8.57018 11.4036 8.51187 11.2891 8.42708C11.1747 8.34229 11.0807 8.23315 11.014 8.10761C10.9473 7.98208 10.9095 7.84331 10.9036 7.70143C10.8976 7.55955 10.9235 7.41813 10.9794 7.28747C11.025 7.17031 11.0935 7.06326 11.1808 6.97249C11.2699 6.88302 11.376 6.81201 11.4929 6.76356C11.6098 6.7151 11.7351 6.69015 11.8617 6.69015C11.9883 6.69015 12.1137 6.7151 12.2306 6.76356Z" fill="currentColor"/>
<path d="M8.47532 12.5274C8.33701 12.6015 8.18252 12.6407 8.02544 12.6415C7.77108 12.6415 7.52714 12.5409 7.34728 12.3619C7.16742 12.1829 7.06638 11.9401 7.06638 11.687C7.06501 11.4276 7.16471 11.1779 7.3445 10.9902L7.48837 10.8756L7.661 10.7897C7.71811 10.7607 7.7797 10.7413 7.84322 10.7325C7.99888 10.7042 8.15915 10.7146 8.30975 10.7629C8.46036 10.8112 8.59662 10.8959 8.70638 11.0093C8.7937 11.1001 8.86214 11.2071 8.90779 11.3243C8.96748 11.4689 8.99057 11.6258 8.97503 11.7814C8.95949 11.937 8.9058 12.0864 8.81866 12.2164C8.73153 12.3465 8.61363 12.4533 8.47532 12.5274Z" fill="currentColor"/>
<path d="M4.558 10.8003C4.67487 10.8488 4.78095 10.9198 4.8701 11.0093C4.95742 11.1001 5.02586 11.2071 5.07151 11.3243C5.1312 11.4689 5.15429 11.6258 5.13875 11.7814C5.12321 11.937 5.06951 12.0864 4.98238 12.2164C4.89525 12.3465 4.77735 12.4533 4.63904 12.5274C4.50073 12.6015 4.34624 12.6407 4.18917 12.6415C4.06336 12.6447 3.93854 12.6185 3.82472 12.5651C3.70849 12.5168 3.60145 12.449 3.50823 12.3647C3.37515 12.2304 3.285 12.06 3.24915 11.8748C3.21331 11.6897 3.23338 11.4981 3.30682 11.3243C3.35247 11.2071 3.42091 11.1001 3.50823 11.0093C3.59738 10.9198 3.70346 10.8488 3.82033 10.8003C3.9372 10.7519 4.06256 10.7269 4.18917 10.7269C4.31577 10.7269 4.44113 10.7519 4.558 10.8003Z" fill="currentColor"/>
<path d="M12.5427 11.0093C12.4535 10.9198 12.3474 10.8488 12.2306 10.8003C12.1137 10.7519 11.9883 10.7269 11.8617 10.7269C11.7351 10.7269 11.6098 10.7519 11.4929 10.8003C11.376 10.8488 11.2699 10.9198 11.1808 11.0093C11.0935 11.1001 11.025 11.2071 10.9794 11.3243C10.9235 11.4549 10.8976 11.5963 10.9036 11.7382C10.9095 11.8801 10.9473 12.0189 11.014 12.1444C11.0807 12.2699 11.1747 12.3791 11.2891 12.4639C11.4036 12.5487 11.5356 12.607 11.6756 12.6345C11.8156 12.6621 11.9599 12.6582 12.0982 12.6232C12.2365 12.5882 12.3652 12.523 12.4749 12.4322C12.5846 12.3414 12.6726 12.2274 12.7325 12.0985C12.7923 11.9695 12.8225 11.829 12.8208 11.687C12.824 11.5618 12.7978 11.4375 12.7441 11.3243C12.6984 11.2071 12.63 11.1001 12.5427 11.0093Z" fill="currentColor"/>
<path fill-rule="evenodd" clip-rule="evenodd" d="M-0.000488281 2.40629C-0.000488281 1.07733 1.07684 0 2.4058 0H13.5932C14.9222 0 15.9995 1.07733 15.9995 2.40629V13.5937C15.9995 14.9227 14.9222 16 13.5932 16H2.4058C1.07684 16 -0.000488281 14.9227 -0.000488281 13.5937V2.40629ZM1.61567 2.40629C1.61567 1.96991 1.96942 1.61616 2.4058 1.61616H13.5932C14.0296 1.61616 14.3834 1.96991 14.3834 2.40629V3.2862H1.61567V2.40629ZM1.61567 4.90236H14.3834V13.5937C14.3834 14.0301 14.0296 14.3838 13.5932 14.3838H2.4058C1.96942 14.3838 1.61567 14.0301 1.61567 13.5937V4.90236Z" fill="currentColor"/>
</svg>
