<svg viewBox="0 0 24 24" fill="none" xmlns="http://www.w3.org/2000/svg">
<path fill-rule="evenodd" clip-rule="evenodd" d="M12 0C5.37258 0 0 5.37258 0 12C0 18.6274 5.37258 24 12 24C18.6274 24 24 18.6274 24 12C24 5.37258 18.6274 0 12 0ZM2.57518 9.23963C2.31914 10.1153 2.18182 11.0416 2.18182 12C2.18182 16.785 5.60482 20.7705 10.1357 21.6414C10.1154 21.5263 10.1048 21.4085 10.1048 21.2893C10.1048 20.9048 9.952 20.536 9.68002 20.2642L9.14016 19.7246C8.75802 19.3427 8.54331 18.8246 8.54331 18.2843V17.3899C8.54331 17.004 8.38995 16.6339 8.11699 16.3611L7.39048 15.635C7.12883 15.3735 6.98182 15.0188 6.98182 14.6488C6.98182 13.8788 7.60606 13.2545 8.37611 13.2545H13.5187C14.5416 13.2545 15.3711 14.0833 15.3711 15.1061V16.1465C15.3711 16.2729 15.4738 16.3758 15.6007 16.3758C16.3361 16.3758 16.9326 16.9717 16.9326 17.7071C16.9326 17.8335 17.0353 17.9364 17.1622 17.9364H17.1987C17.997 17.9364 18.636 18.3715 18.9271 18.9579C20.7129 17.18 21.8182 14.7191 21.8182 12C21.8182 7.76555 19.1375 4.1572 15.3807 2.77937C15.3814 2.80195 15.3818 2.82459 15.3818 2.84726V4.21058C15.3818 5.232 14.5557 6.06132 13.5351 6.06132H11.9793C11.2814 6.06132 10.7144 6.62873 10.7144 7.33024C10.7144 8.35167 9.88828 9.18098 8.86765 9.18098H8.4154C7.96659 9.18098 7.60275 9.54482 7.60275 9.99363C7.60275 10.3628 7.45633 10.717 7.19559 10.9784L7.06212 11.1122C6.34091 11.8353 5.17131 11.8353 4.45005 11.1123L4.44993 11.1122L2.57518 9.23963Z" fill="currentColor"/>
</svg>
