<svg viewBox="0 0 24 24" fill="none" xmlns="http://www.w3.org/2000/svg">
<path fill-rule="evenodd" clip-rule="evenodd" d="M7.65941 4.35794C5.83575 4.35794 4.35739 5.8363 4.35739 7.65995C4.35739 9.4836 5.83575 10.962 7.65941 10.962C9.48306 10.962 10.9614 9.4836 10.9614 7.65995C10.9614 5.8363 9.48306 4.35794 7.65941 4.35794ZM6.29028 7.65995C6.29028 6.9038 6.90326 6.29083 7.65941 6.29083C8.41555 6.29083 9.02853 6.9038 9.02853 7.65995C9.02853 8.4161 8.41555 9.02908 7.65941 9.02908C6.90326 9.02908 6.29028 8.4161 6.29028 7.65995Z" fill="currentColor"/>
<path fill-rule="evenodd" clip-rule="evenodd" d="M-0.000488281 3.60626C-0.000488281 1.61458 1.61409 0 3.60578 0H20.3932C22.3849 0 23.9995 1.61458 23.9995 3.60626V20.3937C23.9995 22.3854 22.3849 24 20.3932 24H3.60578C1.61409 24 -0.000488281 22.3854 -0.000488281 20.3937V3.60626ZM3.60578 2.41611C2.94847 2.41611 2.41562 2.94896 2.41562 3.60626V20.3937C2.41562 20.6263 2.48235 20.8434 2.5977 21.0267L15.5229 8.1015C16.6569 6.96752 18.5072 7.00677 19.592 8.18784L21.5834 10.3558V3.60626C21.5834 2.94896 21.0506 2.41611 20.3932 2.41611H3.60578ZM20.3932 21.5839H5.4574L17.2313 9.80994C17.3933 9.64795 17.6577 9.65356 17.8127 9.82228L21.5834 13.9274V20.3937C21.5834 21.051 21.0506 21.5839 20.3932 21.5839Z" fill="currentColor"/>
</svg>
