<svg viewBox="0 0 16 14" fill="none" xmlns="http://www.w3.org/2000/svg">
<path fill-rule="evenodd" clip-rule="evenodd" d="M14.1756 2.04441C14.0904 1.95924 13.9221 1.86351 13.5938 1.86351L2.35784 1.86351C2.03102 1.86351 1.88326 1.95785 1.81326 2.03109C1.73794 2.10992 1.6435 2.27932 1.6435 2.62618V3.80778C1.6435 4.15464 1.73794 4.32404 1.81326 4.40287C1.88326 4.47611 2.03102 4.57045 2.35784 4.57045L13.5938 4.57045C13.9221 4.57045 14.0904 4.47472 14.1756 4.38955C14.2608 4.30437 14.3565 4.13608 14.3565 3.80778V2.62618C14.3565 2.29788 14.2608 2.12959 14.1756 2.04441ZM15.3377 0.88228C15.7977 1.34224 16 1.96616 16 2.62618V3.80778C16 4.46781 15.7977 5.09172 15.3377 5.55168C14.8778 6.01164 14.2538 6.21396 13.5938 6.21396L2.35784 6.21396C1.69634 6.21396 1.07605 6.01025 0.625088 5.53836C0.179453 5.07205 -2.80391e-08 4.44924 0 3.80778L5.16496e-08 2.62618C7.96887e-08 1.98472 0.179453 1.36191 0.625089 0.895599C1.07605 0.423713 1.69634 0.220001 2.35784 0.220001L13.5938 0.220002C14.2538 0.220002 14.8778 0.42232 15.3377 0.88228Z" fill="currentColor"/>
<path fill-rule="evenodd" clip-rule="evenodd" d="M14.1756 9.60937C14.0904 9.52419 13.9221 9.42846 13.5938 9.42846H2.35784C2.03102 9.42846 1.88326 9.5228 1.81326 9.59605C1.73794 9.67487 1.6435 9.84427 1.6435 10.1911V11.3727C1.6435 11.7196 1.73794 11.889 1.81326 11.9678C1.88326 12.0411 2.03102 12.1354 2.35784 12.1354H13.5938C13.9221 12.1354 14.0904 12.0397 14.1756 11.9545C14.2608 11.8693 14.3565 11.701 14.3565 11.3727V10.1911C14.3565 9.86284 14.2608 9.69454 14.1756 9.60937ZM15.3377 8.44723C15.7977 8.9072 16 9.53111 16 10.1911V11.3727C16 12.0328 15.7977 12.6567 15.3377 13.1166C14.8778 13.5766 14.2538 13.7789 13.5938 13.7789H2.35784C1.69634 13.7789 1.07605 13.5752 0.625088 13.1033C0.179453 12.637 -2.80391e-08 12.0142 0 11.3727L5.16496e-08 10.1911C7.96887e-08 9.54967 0.179453 8.92686 0.625089 8.46055C1.07605 7.98867 1.69634 7.78496 2.35784 7.78496H13.5938C14.2538 7.78496 14.8778 7.98727 15.3377 8.44723Z" fill="currentColor"/>
</svg>
