<svg viewBox="0 0 77 20" fill="none" xmlns="http://www.w3.org/2000/svg">
<path fill-rule="evenodd" clip-rule="evenodd" d="M13.9027 6.74461L13.8172 6.69474L13.8025 6.68622C13.7518 6.65684 13.6867 6.61908 13.6176 6.57963C13.4664 6.49321 13.2937 6.39689 13.2158 6.36205C13.0499 6.28827 12.9092 6.32619 12.773 6.39962C12.6875 6.44608 12.6003 6.50209 12.5261 6.5506L12.4529 6.59944C12.4123 6.62677 12.3796 6.64863 12.3582 6.66161L12.3367 6.67527L9.88461 8.3148C9.58934 8.50915 9.38704 8.60445 9.16737 8.61128C8.9477 8.61811 8.70146 8.53545 8.32104 8.35783L2.97405 5.81213C2.80853 5.72537 2.7571 5.59523 2.7697 5.475C2.7775 5.41279 2.80015 5.35339 2.83572 5.30184C2.8713 5.25028 2.91875 5.2081 2.97405 5.17886L8.36872 2.01525C8.61973 1.85438 8.86392 1.7806 9.10436 1.78367C9.3448 1.78675 9.58525 1.86531 9.82569 2.01525L16.3545 5.87498C16.3643 5.88048 16.3739 5.88652 16.3831 5.89308C16.4875 5.96696 16.5732 6.06438 16.6333 6.1775C16.6934 6.29062 16.7262 6.4163 16.7291 6.54445V6.54616C16.7298 6.55662 16.7298 6.56712 16.7291 6.57758L16.1781 14.1385C16.1781 14.5915 15.816 14.9125 15.3563 14.9125C15.3563 14.9125 10.1663 15.3023 9.86622 15.3125C9.58317 15.3222 9.38431 15.36 9.23412 15.4303C9.12025 15.4871 9.01405 15.5581 8.91807 15.6418L8.87788 15.6742C8.87788 15.6742 8.19444 16.2074 7.42467 16.9517L7.41455 16.9615L7.40344 16.9723C7.27437 17.0975 6.97329 17.3898 6.82867 17.42C6.68972 17.449 6.51022 17.3879 6.43699 17.2714C6.35509 17.1417 6.29949 16.9579 6.24555 16.7795L6.24553 16.7795L6.24551 16.7794L6.24549 16.7793L6.24529 16.7787C6.23494 16.7445 6.22466 16.7104 6.21426 16.6771C6.15957 16.5013 6.12865 16.3877 6.10045 16.2841L6.10044 16.2841L6.10043 16.284L6.10042 16.284L6.10041 16.284L6.10041 16.2839C6.07787 16.2011 6.05708 16.1247 6.02728 16.0281C5.96019 15.8105 5.88254 15.6401 5.67854 15.4447C5.4902 15.2777 5.26985 15.2288 4.93813 15.193C4.93813 15.193 3.43961 14.9938 3.26251 14.9539L3.24319 14.9495C3.06781 14.9101 2.83322 14.8573 2.70057 14.7404C2.56298 14.6191 2.46932 14.4255 2.43867 14.143L2.12227 10.3686C2.11955 10.3345 2.11717 10.3031 2.11512 10.2706V10.2655C2.11463 10.258 2.11415 10.2506 2.11368 10.2432L2.11368 10.2432C2.11219 10.2199 2.11072 10.1967 2.10865 10.174C2.10443 10.1111 2.093 10.049 2.07459 9.98882C2.03509 9.86722 1.95267 9.76441 1.77796 9.68858L0.808004 9.23123C0.752244 9.20093 0.689271 9.18653 0.625926 9.1896C0.562581 9.19267 0.501286 9.21309 0.4487 9.24864C0.421431 9.27159 0.399253 9.30001 0.383592 9.33207C0.367931 9.36413 0.359134 9.39913 0.357767 9.4348C0.352403 9.49635 0.350811 9.55818 0.352999 9.61993V9.69132V9.71933L0.659514 14.0999C0.711622 15.0481 0.979312 15.721 1.42819 16.164C1.87706 16.607 2.49963 16.7789 3.25979 16.8472C3.56017 16.8735 3.87793 16.9237 3.96035 16.9517C3.96409 16.9517 4.12178 17.0026 4.21067 17.0962C4.25601 17.1385 4.29098 17.1907 4.31284 17.2489C4.34511 17.3235 4.37319 17.3999 4.39696 17.4777C4.47427 17.738 4.72664 18.5837 4.8002 18.8245C4.88739 19.1107 5.026 19.3966 5.26372 19.6296C5.48339 19.8451 5.89208 20.0159 6.26671 19.9988C6.64134 19.9817 6.86305 19.8851 7.16037 19.6573C7.89707 19.0975 9.37727 17.8037 9.7574 17.4714L9.75752 17.4713C9.79487 17.4387 9.82158 17.4153 9.83591 17.4029C9.99598 17.2639 10.1466 17.1872 10.3669 17.1758C11.5797 17.1126 13.4078 16.9995 15.3546 16.8451C16.3136 16.771 17.0888 16.5319 17.5124 16.0295C17.9361 15.527 18.0914 14.8548 18.0914 14.143C18.0912 14.1399 18.0912 14.1368 18.0914 14.1338L18.6462 6.5851V6.57451V6.54479C18.6394 5.69087 18.0822 4.89536 17.382 4.4158L17.3524 4.39735L10.5964 0.439942C10.1696 0.154144 9.66819 0.00109967 9.15501 5.90386e-06C8.64183 -0.00108786 8.13975 0.149817 7.71176 0.433794L7.69371 0.444382L0.876119 4.3082L0.842062 4.3287C-0.158542 5.01183 0.0304763 6.47614 1.11997 7.00796L7.96991 10.2785C8.85508 10.7594 9.62137 10.7252 10.5579 10.0592L14.2828 7.69212C14.3809 7.63729 14.4638 7.55889 14.5242 7.46395C14.5538 7.41495 14.5691 7.35864 14.5685 7.30136C14.5655 7.23655 14.5416 7.17447 14.5004 7.12443L14.4823 7.09984C14.4729 7.08669 14.4614 7.07516 14.4483 7.06568L14.3832 7.0223L14.3754 7.01752L13.9041 6.74427L13.9027 6.74461ZM41.6945 7.40293C39.0945 7.40293 38.4857 8.53895 38.4857 11.2259V15.0906C38.4857 15.1833 38.449 15.2722 38.3837 15.3377C38.3185 15.4032 38.2299 15.44 38.1376 15.44H36.5635C36.5177 15.4401 36.4724 15.4311 36.4301 15.4136C36.3879 15.396 36.3494 15.3703 36.3171 15.3379C36.2847 15.3054 36.259 15.2669 36.2415 15.2245C36.224 15.182 36.2149 15.1366 36.2149 15.0906V5.46699C36.2149 5.42107 36.224 5.3756 36.2415 5.33318C36.259 5.29076 36.2847 5.25222 36.3171 5.21977C36.3494 5.18732 36.3879 5.1616 36.4301 5.14408C36.4724 5.12655 36.5177 5.11757 36.5635 5.11764H38.0962C38.1885 5.11764 38.277 5.15444 38.3423 5.21996C38.4075 5.28548 38.4442 5.37434 38.4442 5.46699V6.34673C38.4442 6.5806 38.6427 6.56674 38.7805 6.32928C39.5016 5.08676 40.9405 4.98794 41.7584 4.99381C41.8069 4.99485 41.8547 5.00611 41.8986 5.02685C41.9425 5.0476 41.9815 5.07736 42.0133 5.11423C42.045 5.15109 42.0686 5.19423 42.0826 5.24084C42.0967 5.28746 42.1008 5.33652 42.0948 5.38484L41.9095 7.21062C41.9042 7.26388 41.8792 7.3132 41.8394 7.34881C41.7995 7.38442 41.7479 7.40373 41.6945 7.40293ZM52.711 13.7303C52.6967 13.746 52.6887 13.7666 52.6886 13.7879V15.0899C52.6886 15.1358 52.6977 15.1813 52.7152 15.2237C52.7328 15.2661 52.7585 15.3046 52.7909 15.337C52.8233 15.3694 52.8618 15.3951 52.9042 15.4126C52.9465 15.4302 52.9919 15.4391 53.0377 15.4391H60.9657C61.0114 15.4391 61.0568 15.43 61.099 15.4125C61.1413 15.3949 61.1798 15.3692 61.2121 15.3368C61.2445 15.3044 61.2702 15.2659 61.2877 15.2235C61.3052 15.1812 61.3142 15.1358 61.3142 15.0899V13.797C61.3142 13.7044 61.2775 13.6156 61.2121 13.5501C61.1468 13.4847 61.0581 13.4479 60.9657 13.4479H55.7767C55.7598 13.448 55.7433 13.4431 55.7292 13.434C55.715 13.4249 55.7038 13.4118 55.697 13.3965C55.6901 13.3811 55.6878 13.364 55.6904 13.3474C55.693 13.3307 55.7004 13.3152 55.7116 13.3027L61.2258 7.01762C61.2824 6.95377 61.3137 6.87134 61.3137 6.78594V5.4914C61.3137 5.39881 61.277 5.31001 61.2116 5.24453C61.1463 5.17906 61.0576 5.14228 60.9652 5.14228H53.2435C53.1511 5.14228 53.0624 5.17906 52.997 5.24453C52.9317 5.31001 52.8949 5.39881 52.8949 5.4914V6.87616C52.8949 6.96875 52.9317 7.05755 52.997 7.12303C53.0624 7.1885 53.1511 7.22529 53.2435 7.22529H58.2257C58.2425 7.2252 58.259 7.23001 58.2732 7.23914C58.2873 7.24826 58.2985 7.26131 58.3054 7.27669C58.3123 7.29207 58.3146 7.30912 58.312 7.32577C58.3093 7.34242 58.302 7.35795 58.2907 7.37049L52.711 13.7303ZM65.3422 1.37214C65.4352 1.37214 65.5245 1.40889 65.5902 1.47429C65.656 1.5397 65.6929 1.62841 65.6929 1.7209L65.6929 15.0958C65.6929 15.1427 65.6833 15.1891 65.6649 15.2323C65.6464 15.2754 65.6193 15.3144 65.5853 15.3469C65.5513 15.3794 65.5111 15.4048 65.467 15.4215C65.4229 15.4382 65.3759 15.4459 65.3288 15.4441H63.7431C63.6524 15.4406 63.5665 15.4024 63.5036 15.3373C63.4406 15.2723 63.4053 15.1856 63.4053 15.0953L63.4053 1.7209C63.4053 1.67506 63.4144 1.62966 63.432 1.58731C63.4497 1.54497 63.4756 1.5065 63.5082 1.4741C63.5408 1.44171 63.5795 1.41603 63.6222 1.39854C63.6648 1.38104 63.7104 1.37207 63.7565 1.37214H65.3422ZM74.8317 5.17415C74.7725 5.2162 74.728 5.27561 74.7043 5.34413L72.5071 11.7001C72.5013 11.7171 72.4905 11.7319 72.476 11.7425C72.4615 11.753 72.444 11.7589 72.4261 11.7591C72.4082 11.7594 72.3906 11.7542 72.3757 11.7441C72.3609 11.734 72.3495 11.7196 72.3432 11.7028L69.4707 5.33666C69.4454 5.27054 69.4007 5.21364 69.3424 5.17346C69.284 5.13328 69.2149 5.11173 69.1441 5.11164H67.4794C67.4223 5.11172 67.366 5.12582 67.3156 5.15271C67.2652 5.17959 67.2221 5.21843 67.1903 5.26582C67.1584 5.3132 67.1386 5.36768 67.1327 5.42448C67.1269 5.48127 67.135 5.53864 67.1565 5.59155L71.2621 14.5359C71.2626 14.537 71.2632 14.5384 71.264 14.5401L71.2662 14.5448C71.2736 14.5609 71.2866 14.5892 71.2866 14.5986C71.2866 14.6102 71.2244 14.7996 71.0448 15.2985C70.8652 15.7975 70.5544 16.4893 69.9308 16.5283C69.4729 16.557 69.2211 16.4697 68.8302 16.2319C68.7443 16.1796 68.6822 16.1626 68.5863 16.1791C68.4821 16.197 68.4504 16.2488 68.4085 16.3176L68.4048 16.3237L68.4018 16.3284C68.336 16.4356 68.2189 16.6087 68.0942 16.7931L68.0941 16.7932L68.094 16.7933C67.9254 17.0426 67.7428 17.3124 67.6542 17.4679C67.6184 17.5308 67.6095 17.6266 67.6419 17.7194C67.6743 17.8124 67.7248 17.8567 67.8084 17.9084C68.4404 18.2992 69.1614 18.6335 69.9998 18.6234C71.5699 18.6044 72.4146 17.6631 73.2046 15.5936L76.9773 5.58302C76.9976 5.53019 77.0047 5.47323 76.998 5.41705C76.9913 5.36087 76.9711 5.30717 76.939 5.26056C76.9069 5.21395 76.8639 5.17585 76.8138 5.14953C76.7637 5.12321 76.7079 5.10948 76.6513 5.1095H75.0341C74.9615 5.1095 74.8908 5.1321 74.8317 5.17415ZM34.8097 10.2877C34.8097 13.655 32.792 15.5632 30.421 15.5632C28.9065 15.5632 27.9076 14.8426 27.2154 13.9922C27.2036 13.9785 27.188 13.9687 27.1706 13.9639C27.1531 13.9591 27.1347 13.9596 27.1175 13.9653C27.1004 13.971 27.0853 13.9817 27.0742 13.9959C27.0632 14.0102 27.0566 14.0274 27.0553 14.0454V18.2757C27.0553 18.3214 27.0463 18.3667 27.0288 18.4089C27.0112 18.4512 26.9855 18.4896 26.9531 18.5219C26.9207 18.5543 26.8822 18.5799 26.8399 18.5974C26.7975 18.6149 26.7522 18.6239 26.7063 18.6239H25.1257C25.0799 18.6239 25.0345 18.6149 24.9921 18.5974C24.9498 18.5799 24.9113 18.5543 24.8789 18.5219C24.8465 18.4896 24.8208 18.4512 24.8033 18.4089C24.7857 18.3667 24.7767 18.3214 24.7767 18.2757V5.46654C24.7767 5.37417 24.8135 5.28558 24.8789 5.22026C24.9444 5.15494 25.0331 5.11825 25.1257 5.11825H26.7042C26.7968 5.11825 26.8855 5.15494 26.951 5.22026C27.0164 5.28558 27.0532 5.37417 27.0532 5.46654V6.62745C27.0539 6.64619 27.0603 6.66426 27.0717 6.67922C27.083 6.69418 27.0986 6.70532 27.1165 6.71112C27.1344 6.71693 27.1536 6.71713 27.1716 6.71169C27.1895 6.70625 27.2054 6.69544 27.217 6.68071C27.9396 5.73543 28.9375 5.01115 30.4189 5.01115C32.7728 5.01222 34.8097 6.92037 34.8097 10.2877ZM30.0069 7.03487C31.4872 7.03487 32.7327 8.29755 32.7327 10.2877C32.7327 12.2965 31.5054 13.54 30.0069 13.54C28.5266 13.54 27.2896 12.2581 27.2896 10.2877C27.2896 8.31726 28.5292 7.02101 30.0096 7.02101L30.0069 7.03487ZM44.8298 11.0877C44.8412 11.0825 44.8537 11.0798 44.8663 11.0799L51.5425 11.081C51.7243 11.081 51.8863 10.9418 51.9615 10.7765C52.0045 10.6955 52.0288 10.6058 52.0324 10.5141C52.0324 7.58282 50.4986 4.9885 47.341 4.9885C44.5005 4.9885 42.4896 7.36418 42.4896 10.2763C42.4896 13.4183 44.7074 15.6004 47.5835 15.6004C48.7175 15.6004 49.7139 15.1711 50.7129 14.3989C50.7687 14.3551 50.8095 14.295 50.8296 14.227C50.8496 14.1589 50.848 14.0863 50.8249 14.0192L50.4885 13.0258C50.4059 12.781 50.0945 12.7085 49.8951 12.8722C49.2351 13.4151 48.5368 13.7025 47.6209 13.7025C46.1852 13.7025 44.8298 12.679 44.7815 11.1807C44.7792 11.1683 44.7797 11.1556 44.7829 11.1434C44.7861 11.1313 44.792 11.12 44.8001 11.1103C44.8082 11.1007 44.8183 11.093 44.8298 11.0877ZM49.8251 9.30282C49.8288 9.29121 49.8299 9.27895 49.8285 9.26685C49.651 7.81852 48.7916 6.88424 47.3181 6.88424C45.9586 6.88424 44.9931 7.74599 44.7591 9.26418C44.7573 9.27642 44.7582 9.2889 44.7617 9.30076C44.7652 9.31263 44.7712 9.32361 44.7793 9.33296C44.7874 9.34231 44.7974 9.34982 44.8086 9.35497C44.8198 9.36013 44.832 9.36281 44.8444 9.36284H49.7427C49.7548 9.36292 49.7669 9.36041 49.778 9.35548C49.7892 9.35055 49.7991 9.3433 49.8072 9.33422C49.8154 9.32514 49.8215 9.31444 49.8251 9.30282Z" fill="currentColor"/>
</svg>
