<svg viewBox="0 0 24 24" fill="none" xmlns="http://www.w3.org/2000/svg">
    <path
        d="M12.0003 8.05577C12.6429 8.05577 13.1639 8.57469 13.1639 9.2148V12.6919C13.1639 13.332 12.6429 13.8509 12.0003 13.8509C11.3576 13.8509 10.8366 13.332 10.8366 12.6919V9.2148C10.8366 8.57469 11.3576 8.05577 12.0003 8.05577Z"
        fill="currentColor" />
    <path
        d="M12.0003 15.2252C11.3175 15.2252 10.7639 15.7765 10.7639 16.4566C10.7639 17.1367 11.3175 17.6881 12.0003 17.6881H12.0107C12.6936 17.6881 13.2471 17.1367 13.2471 16.4566C13.2471 15.7765 12.6936 15.2252 12.0107 15.2252H12.0003Z"
        fill="currentColor" />
    <path fill-rule="evenodd" clip-rule="evenodd"
        d="M10.4403 1.90727C10.9164 1.64027 11.4536 1.5 12 1.5C12.5464 1.5 13.0836 1.64027 13.5597 1.90727C14.0358 2.17427 14.4348 2.55899 14.7182 3.02431L14.7213 3.02948L23.5651 17.735C23.5664 17.7372 23.5677 17.7393 23.5689 17.7415C23.5706 17.7443 23.5723 17.7472 23.574 17.7501C23.8515 18.2289 23.9984 18.7717 24 19.3247C24.0015 19.8776 23.8577 20.4213 23.5828 20.9016C23.3079 21.382 22.9115 21.7823 22.4331 22.0627C21.9547 22.3431 21.4109 22.4939 20.8558 22.4999C20.8518 22.5 20.8478 22.5 20.8438 22.5H3.15622C3.15222 22.5 3.14822 22.5 3.14423 22.4999C2.58914 22.4939 2.04533 22.3431 1.5669 22.0627C1.08846 21.7823 0.692075 21.382 0.417179 20.9016C0.142283 20.4213 -0.00154185 19.8776 1.24656e-05 19.3247C0.00156678 18.7717 0.148447 18.2289 0.426039 17.7501C0.428952 17.745 0.431906 17.74 0.4349 17.735L9.27868 3.02948L9.28181 3.02431C9.56519 2.55899 9.96418 2.17427 10.4403 1.90727ZM11.1486 4.14925L11.1473 4.15138L2.31192 18.843C2.22713 18.9917 2.1823 19.1597 2.18182 19.3308C2.18133 19.5042 2.22645 19.6748 2.31269 19.8255C2.39893 19.9762 2.52328 20.1018 2.67338 20.1897C2.82205 20.2769 2.99085 20.3241 3.16326 20.3268H20.8367C21.0091 20.3241 21.1779 20.2769 21.3266 20.1897C21.4767 20.1018 21.6011 19.9762 21.6873 19.8255C21.7735 19.6748 21.8187 19.5042 21.8182 19.3308C21.8177 19.1597 21.7729 18.9917 21.6881 18.843L12.8527 4.15138L12.8514 4.14925C12.7626 4.00423 12.6379 3.8843 12.4893 3.80095C12.3399 3.71719 12.1714 3.67318 12 3.67318C11.8286 3.67318 11.6601 3.71719 11.5107 3.80095C11.3621 3.8843 11.2374 4.00423 11.1486 4.14925Z"
        fill="currentColor" />
</svg>