<svg viewBox="0 0 24 24" fill="none" xmlns="http://www.w3.org/2000/svg">
<path fill-rule="evenodd" clip-rule="evenodd" d="M2.25 21.3749C2.25 21.582 2.4179 21.7499 2.625 21.7499H6V19.8749C6 19.2536 6.50368 18.7499 7.125 18.7499H10.875C11.4963 18.7499 12 19.2536 12 19.8749V21.7499H15.375C15.5822 21.7499 15.75 21.582 15.75 21.3749V2.62498C15.75 2.41788 15.5822 2.24999 15.375 2.24999H2.625C2.4179 2.24999 2.25 2.41788 2.25 2.62498V21.3749ZM2.625 23.9999C1.17525 23.9999 0 22.8246 0 21.3749V2.62498C0 1.17524 1.17525 0 2.625 0H15.375C16.8248 0 18 1.17524 18 2.62498V21.3749C18 21.5022 17.991 21.6275 17.9734 21.75H21.375C21.5821 21.75 21.75 21.5822 21.75 21.375V12.4278C21.75 12.3024 21.6873 12.1854 21.583 12.1158L20.001 11.0611C19.4839 10.7165 19.3443 10.018 19.689 9.50102C20.0336 8.98406 20.7321 8.84437 21.249 9.189L22.8311 10.2437C23.5614 10.7305 24 11.5502 24 12.4278V21.375C24 22.8248 22.8248 24 21.375 24H16.125C16.0227 24 15.9236 23.9864 15.8292 23.9607C15.6818 23.9865 15.53 23.9999 15.375 23.9999H10.875C10.2537 23.9999 9.75 23.4962 9.75 22.8749V20.9999H8.25V22.8749C8.25 23.4962 7.74632 23.9999 7.125 23.9999H2.625ZM4.5 5.62497C4.5 5.00365 5.00368 4.49997 5.625 4.49997H6.375C6.99632 4.49997 7.5 5.00365 7.5 5.62497C7.5 6.24628 6.99632 6.74996 6.375 6.74996H5.625C5.00368 6.74996 4.5 6.24628 4.5 5.62497ZM5.625 8.99994C5.00368 8.99994 4.5 9.50363 4.5 10.1249C4.5 10.7462 5.00368 11.2499 5.625 11.2499H6.375C6.99632 11.2499 7.5 10.7462 7.5 10.1249C7.5 9.50363 6.99632 8.99994 6.375 8.99994H5.625ZM4.5 14.6249C4.5 14.0036 5.00368 13.4999 5.625 13.4999H6.375C6.99632 13.4999 7.5 14.0036 7.5 14.6249C7.5 15.2462 6.99632 15.7499 6.375 15.7499H5.625C5.00368 15.7499 4.5 15.2462 4.5 14.6249ZM11.625 13.4999C11.0037 13.4999 10.5 14.0036 10.5 14.6249C10.5 15.2462 11.0037 15.7499 11.625 15.7499H12.375C12.9963 15.7499 13.5 15.2462 13.5 14.6249C13.5 14.0036 12.9963 13.4999 12.375 13.4999H11.625ZM10.5 10.1249C10.5 9.50363 11.0037 8.99994 11.625 8.99994H12.375C12.9963 8.99994 13.5 9.50363 13.5 10.1249C13.5 10.7462 12.9963 11.2499 12.375 11.2499H11.625C11.0037 11.2499 10.5 10.7462 10.5 10.1249ZM11.625 4.49997C11.0037 4.49997 10.5 5.00365 10.5 5.62497C10.5 6.24628 11.0037 6.74996 11.625 6.74996H12.375C12.9963 6.74996 13.5 6.24628 13.5 5.62497C13.5 5.00365 12.9963 4.49997 12.375 4.49997H11.625Z" fill="currentColor"/>
</svg>
