<svg viewBox="0 0 20 20" fill="none" xmlns="http://www.w3.org/2000/svg">
<path d="M17.1914 4.29881C17.6029 3.88731 17.6029 3.22013 17.1914 2.80863C16.7799 2.39712 16.1127 2.39712 15.7012 2.80863L10 8.50982L4.29881 2.80863C3.88731 2.39712 3.22013 2.39712 2.80863 2.80863C2.39712 3.22013 2.39712 3.88731 2.80863 4.29881L8.50982 10L2.80863 15.7012C2.39712 16.1127 2.39712 16.7799 2.80863 17.1914C3.22013 17.6029 3.88731 17.6029 4.29881 17.1914L10 11.4902L15.7012 17.1914C16.1127 17.6029 16.7799 17.6029 17.1914 17.1914C17.6029 16.7799 17.6029 16.1127 17.1914 15.7012L11.4902 10L17.1914 4.29881Z" fill="currentColor"/>
</svg>
