<svg viewBox="0 0 24 24" fill="none" xmlns="http://www.w3.org/2000/svg">
<path fill-rule="evenodd" clip-rule="evenodd" d="M8.87769e-05 5.75898C-2.96621e-05 5.76819 -2.95225e-05 5.77739 8.87769e-05 5.78659V18.2604C8.87769e-05 20.0459 1.47151 21.5 3.27279 21.5H20.7272C22.5285 21.5 23.9999 20.0459 23.9999 18.2604V5.78726C24 5.77762 24 5.76797 23.9999 5.75831V5.73955C23.9999 3.95414 22.5285 2.5 20.7272 2.5H3.27279C1.47151 2.5 8.87769e-05 3.95414 8.87769e-05 5.73955V5.75898ZM2.28581 5.28365C2.46105 4.91806 2.83896 4.66139 3.27279 4.66139H20.7272C21.161 4.66139 21.5389 4.91806 21.7142 5.28365L12 12.0289L2.28581 5.28365ZM21.8181 7.85096V18.2604C21.8181 18.8498 21.3259 19.3386 20.7272 19.3386H3.27279C2.67408 19.3386 2.18189 18.8498 2.18189 18.2604V7.85095L11.0399 14.0017C11.6162 14.4019 12.3838 14.4019 12.9601 14.0017L21.8181 7.85096Z" fill="currentColor"/>
</svg>
