<svg width="24" height="24" viewBox="0 0 24 24" fill="none" xmlns="http://www.w3.org/2000/svg">
<path d="M17.2492 8.09353L17.2225 8.07755L17.1492 8.03369C17.0878 7.99721 17.0046 7.94761 16.9157 7.89556C16.7387 7.79186 16.5367 7.67627 16.4454 7.63446C16.2513 7.54593 16.0867 7.59142 15.9273 7.67955C15.8273 7.73529 15.7253 7.80251 15.6384 7.86072L15.5527 7.91933C15.5053 7.95212 15.467 7.97835 15.4419 7.99393L15.4168 8.01032L12.5474 9.97776C12.2018 10.211 11.9651 10.3253 11.7081 10.3335C11.451 10.3417 11.1629 10.2425 10.7177 10.0294L4.46076 6.97455C4.26708 6.87044 4.2069 6.71428 4.22165 6.57C4.23077 6.49535 4.25727 6.42407 4.2989 6.3622C4.34053 6.30034 4.39605 6.24972 4.46076 6.21463L10.7735 2.41831C11.0672 2.22525 11.353 2.13672 11.6343 2.14041C11.9157 2.14409 12.1971 2.23837 12.4784 2.41831L20.1183 7.04997C20.1298 7.05657 20.141 7.06383 20.1518 7.07169C20.274 7.16035 20.3743 7.27725 20.4446 7.413C20.5149 7.54875 20.5533 7.69957 20.5567 7.85334V7.85539C20.5575 7.86794 20.5575 7.88054 20.5567 7.8931L19.9118 16.9662C19.9118 17.5097 19.4882 17.895 18.9502 17.895C18.9502 17.895 12.877 18.3627 12.5259 18.375C12.1946 18.3866 11.9619 18.432 11.7862 18.5164C11.6529 18.5845 11.5287 18.6698 11.4163 18.7701L11.3693 18.8091C11.3693 18.8091 10.5696 19.4489 9.6688 20.342C9.53569 20.474 9.15071 20.8655 8.97137 20.904C8.80877 20.9388 8.59872 20.8654 8.51304 20.7257C8.39866 20.54 8.32812 20.2617 8.2524 20.0125C8.13722 19.6329 8.11211 19.4948 8.0336 19.2337C7.95509 18.9726 7.86423 18.7681 7.6255 18.5336C7.40512 18.3332 7.14727 18.2746 6.7591 18.2315C6.7591 18.2315 5.00556 17.9926 4.79832 17.9446C4.59108 17.8967 4.30175 17.834 4.14074 17.6885C3.97974 17.5429 3.87014 17.3105 3.83427 16.9716L3.46404 12.4424C3.46085 12.4014 3.45806 12.3637 3.45567 12.3247V12.3186C3.45328 12.2817 3.45128 12.2448 3.4481 12.2087C3.44315 12.1334 3.42978 12.0588 3.40824 11.9866C3.36201 11.8407 3.26557 11.7173 3.06112 11.6263L1.9261 11.0775C1.86085 11.0411 1.78716 11.0238 1.71304 11.0275C1.63891 11.0312 1.56719 11.0557 1.50565 11.0984C1.47374 11.1259 1.44779 11.16 1.42946 11.1985C1.41114 11.237 1.40084 11.2789 1.39924 11.3218C1.39297 11.3956 1.3911 11.4698 1.39366 11.5439C1.39366 11.5718 1.39366 11.6005 1.39366 11.6296V11.6632L1.75234 16.9199C1.81332 18.0578 2.12656 18.8652 2.65183 19.3968C3.17709 19.9285 3.90561 20.1346 4.79513 20.2166C5.14664 20.2482 5.51847 20.3084 5.61491 20.342C5.6193 20.342 5.80382 20.4031 5.90783 20.5154C5.96089 20.5662 6.00181 20.6289 6.02739 20.6986C6.06515 20.7882 6.09801 20.8799 6.12583 20.9732C6.2163 21.2856 6.51161 22.3004 6.59769 22.5894C6.69972 22.9329 6.86192 23.276 7.14009 23.5555C7.39715 23.8141 7.87538 24.0191 8.31377 23.9986C8.75215 23.9781 9.0116 23.8621 9.35952 23.5887C10.3064 22.8509 12.3031 21.0503 12.4904 20.8835C12.6777 20.7167 12.854 20.6247 13.1117 20.6109C14.5309 20.5351 16.6702 20.3994 18.9482 20.2141C20.0705 20.1252 20.9775 19.8383 21.4733 19.2353C21.9691 18.6324 22.1508 17.8258 22.1508 16.9716C22.1506 16.9679 22.1506 16.9642 22.1508 16.9605L22.8 7.90211C22.8 7.89802 22.8 7.89351 22.8 7.88941V7.85375C22.792 6.82904 22.14 5.87443 21.3207 5.29896L21.286 5.27682L13.3803 0.52793C12.8809 0.184973 12.2941 0.00131961 11.6936 7.08463e-06C11.0931 -0.00130544 10.5056 0.179781 10.0047 0.520552L9.98362 0.533259L2.00581 5.16984L1.96596 5.19444C0.79507 6.0142 1.01625 7.77136 2.29116 8.40955L10.3068 12.3342C11.3426 12.9113 12.2393 12.8703 13.3353 12.071L17.694 9.23054C17.8088 9.16475 17.9059 9.07066 17.9766 8.95674C18.0112 8.89794 18.0291 8.83037 18.0284 8.76164C18.0248 8.68386 17.9969 8.60936 17.9487 8.54932L17.9276 8.51981C17.9165 8.50403 17.903 8.49019 17.8877 8.47882L17.8116 8.42676L17.8024 8.42103L17.2508 8.09312L17.2492 8.09353Z" fill="white"/>
</svg>
