<svg viewBox="0 0 24 24" fill="none" xmlns="http://www.w3.org/2000/svg">
<g clip-path="url(#clip0_36:1941)">
<path opacity="0.2" fill-rule="evenodd" clip-rule="evenodd" d="M16.0001 5.07177C12.1738 2.86263 7.28103 4.17363 5.07189 7.99998C2.86276 11.8263 4.17376 16.719 8.0001 18.9282C11.8264 21.1373 16.7192 19.8263 18.9283 16C21.1374 12.1736 19.8264 7.28091 16.0001 5.07177ZM3.33984 6.99998C6.10127 2.21705 12.2172 0.578298 17.0001 3.33972C21.783 6.10115 23.4218 12.217 20.6604 17C17.8989 21.7829 11.783 23.4217 7.0001 20.6602C2.21717 17.8988 0.57842 11.7829 3.33984 6.99998Z" fill="currentColor"/>
<path fill-rule="evenodd" clip-rule="evenodd" d="M13.3054 2.08553C15.2662 2.34369 17.1066 3.17752 18.5936 4.48158C20.0806 5.78564 21.1475 7.50137 21.6594 9.41179C21.8023 9.94525 21.4857 10.4936 20.9522 10.6365C20.4188 10.7795 19.8704 10.4629 19.7275 9.92943C19.318 8.40109 18.4645 7.02851 17.2749 5.98526C16.0853 4.94201 14.613 4.27495 13.0443 4.06842C11.4756 3.8619 9.88086 4.12519 8.46178 4.825C7.04271 5.52481 5.86302 6.62971 5.07189 7.99998C4.28077 9.37025 3.91374 10.9443 4.01722 12.5232C4.12071 14.1021 4.69006 15.6148 5.65327 16.8701C6.61648 18.1254 7.9303 19.0668 9.42858 19.5754C10.9269 20.084 12.5423 20.1369 14.0706 19.7274C14.6041 19.5844 15.1525 19.901 15.2954 20.4345C15.4383 20.968 15.1218 21.5163 14.5883 21.6592C12.6779 22.1711 10.6586 22.105 8.7857 21.4693C6.91285 20.8335 5.27058 19.6567 4.06656 18.0876C2.86255 16.5185 2.15086 14.6276 2.02151 12.654C1.89215 10.6804 2.35094 8.71282 3.33984 6.99998C4.32875 5.28714 5.80336 3.90602 7.57721 3.03125C9.35105 2.15649 11.3445 1.82737 13.3054 2.08553Z" fill="currentColor"/>
</g>
<defs>
<clipPath id="clip0_36:1941">
<rect width="24" height="24" fill="white"/>
</clipPath>
</defs>
</svg>
