<svg viewBox="0 0 24 24" fill="none" xmlns="http://www.w3.org/2000/svg">
    <path
        d="M12 20.4512C12.8875 20.4512 13.6069 19.7305 13.6069 18.8415C13.6069 17.9524 12.8875 17.2317 12 17.2317C11.1125 17.2317 10.393 17.9524 10.393 18.8415C10.393 19.7305 11.1125 20.4512 12 20.4512Z"
        fill="currentColor" />
    <path fill-rule="evenodd" clip-rule="evenodd"
        d="M3.59998 2.625C3.59998 1.17525 4.77318 0 6.22041 0H17.7795C19.2268 0 20.4 1.17525 20.4 2.625V21.375C20.4 22.8248 19.2268 24 17.7795 24H6.22041C4.77318 24 3.59998 22.8248 3.59998 21.375V2.625ZM6.22041 2.25C6.01367 2.25 5.84606 2.41789 5.84606 2.625V21.375C5.84606 21.5821 6.01367 21.75 6.22041 21.75H17.7795C17.9863 21.75 18.1539 21.5821 18.1539 21.375V2.625C18.1539 2.41789 17.9863 2.25 17.7795 2.25H6.22041Z"
        fill="currentColor" />
</svg>