<svg viewBox="0 0 24 24" fill="none" xmlns="http://www.w3.org/2000/svg">
<path d="M13.8817 1.0019C13.9498 0.384314 14.5056 -0.0611765 15.1231 0.00686399C17.3846 0.256014 19.495 1.26047 21.1072 2.85736C22.7196 4.45443 23.7379 6.54923 23.9928 8.79841C24.0627 9.41577 23.6189 9.97296 23.0016 10.0429C22.3842 10.1129 21.827 9.66909 21.7571 9.05172C21.5602 7.31448 20.7735 5.69365 19.5239 4.45594C18.2741 3.21806 16.6355 2.43709 14.8768 2.24332C14.2592 2.17528 13.8137 1.61948 13.8817 1.0019Z" fill="currentColor"/>
<path fill-rule="evenodd" clip-rule="evenodd" d="M8.22287 2.48238C7.64688 1.98801 6.91123 1.71921 6.15242 1.72518L3.13574 1.72518C2.70032 1.72559 2.2697 1.81648 1.87127 1.99212C1.47283 2.16776 1.11524 2.42435 0.821333 2.74568C0.527423 3.06702 0.303652 3.44604 0.164396 3.85869C0.0251387 4.27133 -0.0265182 4.70846 0.012756 5.14221C0.0132871 5.14807 0.0138642 5.15393 0.0144874 5.15979C0.36354 8.44023 1.48156 11.5924 3.27788 14.3612C4.91129 16.9253 7.08964 19.0993 9.65842 20.7292C12.4197 22.5154 15.562 23.6306 18.8331 23.9853C18.8398 23.986 18.8466 23.9867 18.8533 23.9873C19.2883 24.0265 19.7267 23.9747 20.1405 23.835C20.5543 23.6953 20.9345 23.4709 21.2567 23.1759C21.5788 22.881 21.8358 22.522 22.0111 22.1219C22.1861 21.7225 22.2757 21.2911 22.2743 20.8551V17.855C22.2895 17.0911 22.0248 16.3481 21.5302 15.7655C21.0323 15.179 20.3361 14.796 19.5744 14.6887C19.5728 14.6885 19.5712 14.6883 19.5696 14.6881C19.5679 14.6878 19.5661 14.6876 19.5643 14.6874C18.6822 14.5712 17.8161 14.356 16.9824 14.0456C16.4213 13.8354 15.8116 13.7899 15.2255 13.9147C14.639 14.0395 14.1004 14.3296 13.6736 14.7508L13.6691 14.7552L13.0138 15.4093C11.2326 14.2604 9.71602 12.7472 8.56462 10.9702L9.21745 10.3187L9.22189 10.3142C9.644 9.88821 9.93513 9.35011 10.0605 8.76358C10.1857 8.17747 10.1401 7.56783 9.9291 7.00689C9.61825 6.1752 9.40263 5.31113 9.28633 4.43114C9.28588 4.42768 9.2854 4.42423 9.28491 4.42077C9.17816 3.66699 8.80047 2.97814 8.22287 2.48238ZM6.75746 4.18973C6.59403 4.04946 6.38468 3.973 6.16839 3.97512C6.16471 3.97516 6.16102 3.97517 6.15734 3.97517H3.13743C3.01387 3.97535 2.89175 4.00117 2.77886 4.05094C2.66585 4.10076 2.56463 4.17344 2.48159 4.26424C2.39854 4.35503 2.33547 4.46195 2.29626 4.57813C2.25782 4.69205 2.24311 4.81251 2.25296 4.93217C2.56598 7.85833 3.56443 10.6701 5.16782 13.1403L5.17146 13.146L5.17316 13.1486C6.63023 15.4371 8.57442 17.3775 10.8678 18.8319L10.8711 18.834L10.8765 18.8375C13.3404 20.4321 16.1443 21.4286 19.0637 21.7471C19.1845 21.7569 19.3061 21.7419 19.421 21.7032C19.5384 21.6635 19.6461 21.5999 19.7372 21.5165C19.8283 21.4331 19.9008 21.3317 19.9502 21.219C19.9996 21.1063 20.0248 20.9846 20.0243 20.8617L20.0243 20.8571V17.8426C20.0243 17.8333 20.0244 17.8239 20.0247 17.8146C20.03 17.5983 19.9556 17.3873 19.815 17.2217C19.6752 17.057 19.4795 16.9485 19.2646 16.9173C18.2161 16.7788 17.1866 16.5226 16.1957 16.1536L16.1931 16.1526C16.0338 16.0929 15.8605 16.0799 15.6939 16.1154C15.5282 16.1507 15.3762 16.2323 15.2558 16.3505L15.2541 16.3522L13.9798 17.624C13.6219 17.9812 13.0697 18.0557 12.6299 17.8061C9.93327 16.2758 7.70023 14.0473 6.16657 11.3555C5.91549 10.9148 5.99035 10.3606 6.34935 10.0023L7.62536 8.7288C7.74371 8.60868 7.82506 8.45759 7.86015 8.29338C7.89541 8.12837 7.88255 7.95673 7.82303 7.79869L7.82208 7.79615C7.4522 6.80688 7.1954 5.77907 7.05657 4.73225C7.02578 4.52183 6.9198 4.32907 6.75746 4.18973Z" fill="currentColor"/>
<path d="M14.9904 4.22089C14.3805 4.10191 13.7897 4.49981 13.6708 5.10963C13.5518 5.71945 13.9497 6.31026 14.5595 6.42924C15.3041 6.57451 15.9884 6.93868 16.5249 7.47512C17.0613 8.01156 17.4255 8.69587 17.5707 9.44048C17.6897 10.0503 18.2805 10.4482 18.8904 10.3292C19.5002 10.2102 19.8981 9.61944 19.7791 9.00962C19.5481 7.82549 18.9689 6.73723 18.1159 5.88413C17.2628 5.03104 16.1745 4.45192 14.9904 4.22089Z" fill="currentColor"/>
</svg>
