<svg viewBox="0 0 16 16" fill="none" xmlns="http://www.w3.org/2000/svg">
<path fill-rule="evenodd" clip-rule="evenodd" d="M6.5429 0.666626C3.29719 0.666626 0.666016 3.2978 0.666016 6.54351C0.666016 9.78923 3.29719 12.4204 6.5429 12.4204C7.85237 12.4204 9.06181 11.9921 10.0388 11.268L13.8496 15.0788C14.1889 15.4181 14.739 15.4181 15.0782 15.0788C15.4175 14.7396 15.4175 14.1895 15.0782 13.8502L11.2674 10.0394C11.9915 9.06242 12.4198 7.85298 12.4198 6.54351C12.4198 3.2978 9.78862 0.666626 6.5429 0.666626ZM2.40353 6.54351C2.40353 4.2574 4.25679 2.40414 6.5429 2.40414C8.82901 2.40414 10.6823 4.2574 10.6823 6.54351C10.6823 8.82963 8.82901 10.6829 6.5429 10.6829C4.25679 10.6829 2.40353 8.82963 2.40353 6.54351Z" fill="currentColor"/>
</svg>
