<svg viewBox="0 0 24 24" fill="none" xmlns="http://www.w3.org/2000/svg">
<g opacity="0.9">
<path fill-rule="evenodd" clip-rule="evenodd" d="M5.05602 3.05606C5.49928 2.61272 6.10049 2.36363 6.72741 2.36363H13.8178C13.9786 2.36363 14.1327 2.4275 14.2464 2.54118L19.459 7.75467C19.5727 7.86833 19.6365 8.02247 19.6365 8.18319V19.2724C19.6365 19.8993 19.3875 20.5006 18.9442 20.9439C18.501 21.3873 17.8998 21.6364 17.2729 21.6364H6.72741C6.10049 21.6364 5.49928 21.3873 5.05602 20.9439C4.61277 20.5006 4.36377 19.8993 4.36377 19.2724V4.72759C4.36377 4.10067 4.61277 3.4994 5.05602 3.05606ZM6.72741 3.57575C6.42204 3.57575 6.12916 3.69708 5.9132 3.91308C5.69724 4.12908 5.57589 4.42207 5.57589 4.72759V19.2724C5.57589 19.5779 5.69724 19.8709 5.9132 20.0869C6.12916 20.3029 6.42204 20.4242 6.72741 20.4242H17.2729C17.5782 20.4242 17.8711 20.3029 18.0871 20.0869C18.303 19.8709 18.4244 19.5779 18.4244 19.2724V8.4342L13.5667 3.57575H6.72741Z" fill="currentColor"/>
<path d="M9.91004 15L10.205 14.02H11.895L12.19 15H13.69L12 9.88H10.1L8.41005 15H9.91004ZM10.52 12.98L11.03 11.29H11.07L11.58 12.98H10.52Z" fill="currentColor"/>
<path d="M14.2032 15H15.5832V11.16H14.2032V15ZM14.8932 10.76C15.2682 10.76 15.5732 10.4775 15.5732 10.13C15.5732 9.7825 15.2682 9.5 14.8932 9.5C14.5182 9.5 14.2132 9.7825 14.2132 10.13C14.2132 10.4775 14.5182 10.76 14.8932 10.76Z" fill="currentColor"/>
</g>
</svg>
