<svg viewBox="0 0 24 24" fill="none" xmlns="http://www.w3.org/2000/svg">
<g>
<path d="M8.01659 11.8089L10.9065 8.96261C11.1055 8.74253 11.4784 8.73307 11.6879 8.9437C11.8971 9.15408 11.8858 9.5269 11.6655 9.72202L8.777 12.5707C8.41322 12.9315 8.22729 13.409 8.22729 13.9568C8.22729 14.8987 9.03739 15.6547 10.0496 15.6547C10.5096 15.6547 10.9673 15.4624 11.3256 15.1054L15.4569 10.9957C15.662 10.7914 15.7724 10.5389 15.7724 10.3153C15.7724 9.98542 15.6648 9.70298 15.4605 9.49884C15.0416 9.08014 14.3868 9.08014 13.9679 9.49883C13.6165 9.85003 13.5304 9.93579 13.3965 10.0692C13.2468 10.2184 13.0364 10.428 12.3298 11.1337L11.0706 12.3907C10.76 12.7007 10.5521 12.9082 10.1568 13.3031C10.0035 13.4855 10.0084 13.6651 10.0877 13.7661C10.2467 13.8846 10.4318 13.8684 10.5251 13.7821C10.9672 13.3433 11.1771 13.1363 11.4176 12.8991L11.5413 12.7772C11.8422 12.4803 12.2444 12.083 13.1656 11.1685L13.1675 11.1704L13.8675 10.4757C14.0664 10.2555 14.4395 10.2459 14.649 10.4566C14.8582 10.667 14.8469 11.0397 14.6267 11.2348L11.272 14.5533L11.267 14.5572C10.6335 15.0649 9.81119 15.0852 9.33143 14.5363C8.82211 14.0076 8.85755 13.169 9.34427 12.598L9.34741 12.5943L13.2062 8.73831C14.0371 7.90786 15.3913 7.90788 16.2222 8.73831C16.6393 9.15511 16.8483 9.72216 16.8483 10.3154C16.8483 10.8457 16.6124 11.3603 16.2144 11.7568L12.0831 15.8664C11.5291 16.4184 10.7998 16.7282 10.0498 16.7291C8.47481 16.7291 7.15137 15.5083 7.15137 13.9568C7.15137 13.1411 7.44558 12.3751 8.01659 11.8089Z" fill="currentColor"/>
<path fill-rule="evenodd" clip-rule="evenodd" d="M6.72692 2.36353C6.10001 2.36353 5.49879 2.61261 5.05553 3.05595C4.61228 3.49929 4.36328 4.10056 4.36328 4.72748V19.2723C4.36328 19.8992 4.61228 20.5005 5.05553 20.9438C5.49879 21.3872 6.10001 21.6363 6.72692 21.6363H17.2724C17.8993 21.6363 18.5005 21.3872 18.9438 20.9438C19.387 20.5005 19.636 19.8992 19.636 19.2723V8.18308C19.636 8.02236 19.5722 7.86822 19.4585 7.75457L14.2459 2.54107C14.1322 2.42739 13.9781 2.36353 13.8173 2.36353H6.72692ZM5.91271 3.91297C6.12867 3.69697 6.42155 3.57565 6.72692 3.57565H13.5662L18.4239 8.43409V19.2723C18.4239 19.5778 18.3025 19.8708 18.0866 20.0868C17.8706 20.3028 17.5777 20.4241 17.2724 20.4241H6.72692C6.42155 20.4241 6.12867 20.3028 5.91271 20.0868C5.69675 19.8708 5.5754 19.5778 5.5754 19.2723V4.72748C5.5754 4.42196 5.69675 4.12898 5.91271 3.91297Z" fill="currentColor"/>
</g>
</svg>
