<svg viewBox="0 0 24 24" fill="none" xmlns="http://www.w3.org/2000/svg">
<g opacity="0.9">
<path fill-rule="evenodd" clip-rule="evenodd" d="M5.05602 3.05606C5.49928 2.61272 6.10049 2.36363 6.72741 2.36363H13.8178C13.9786 2.36363 14.1327 2.4275 14.2464 2.54118L19.459 7.75467C19.5727 7.86833 19.6365 8.02247 19.6365 8.18319V19.2724C19.6365 19.8993 19.3875 20.5006 18.9442 20.9439C18.501 21.3873 17.8998 21.6364 17.2729 21.6364H6.72741C6.10049 21.6364 5.49928 21.3873 5.05602 20.9439C4.61277 20.5006 4.36377 19.8993 4.36377 19.2724V4.72759C4.36377 4.10067 4.61277 3.4994 5.05602 3.05606ZM6.72741 3.57575C6.42204 3.57575 6.12916 3.69708 5.9132 3.91308C5.69724 4.12908 5.57589 4.42207 5.57589 4.72759V19.2724C5.57589 19.5779 5.69724 19.8709 5.9132 20.0869C6.12916 20.3029 6.42204 20.4242 6.72741 20.4242H17.2729C17.5782 20.4242 17.8711 20.3029 18.0871 20.0869C18.303 19.8709 18.4244 19.5779 18.4244 19.2724V8.4342L13.5667 3.57575H6.72741Z" fill="currentColor"/>
<path d="M10.329 9.5H8.85023V14.9468H10.329V9.5Z" fill="currentColor"/>
<path d="M12.5298 15C13.1042 15 13.4978 14.6915 13.6681 14.2766H13.7V14.9468H15.1574V9.5H13.6893V11.5745H13.6681C13.5085 11.1596 13.1255 10.8085 12.5191 10.8085C11.7106 10.8085 10.9234 11.4255 10.9234 12.9043C10.9234 14.3191 11.6574 15 12.5298 15ZM13.0723 13.8723C12.6681 13.8723 12.434 13.5106 12.434 12.9043C12.434 12.2979 12.6681 11.9362 13.0723 11.9362C13.4766 11.9362 13.7212 12.2979 13.7212 12.9043C13.7212 13.5 13.4766 13.8723 13.0723 13.8723Z" fill="currentColor"/>
</g>
</svg>
