<svg viewBox="0 0 24 24" fill="none" xmlns="http://www.w3.org/2000/svg">
<g opacity="0.9">
<path d="M9.99972 8.18188C9.33028 8.18188 8.7876 8.72457 8.7876 9.39401C8.7876 10.0634 9.33028 10.6061 9.99972 10.6061C10.6692 10.6061 11.2118 10.0634 11.2118 9.39401C11.2118 8.72457 10.6692 8.18188 9.99972 8.18188Z" fill="currentColor"/>
<path fill-rule="evenodd" clip-rule="evenodd" d="M6.72692 2.36353C6.10001 2.36353 5.49879 2.61261 5.05553 3.05595C4.61228 3.49929 4.36328 4.10056 4.36328 4.72748V19.2723C4.36328 19.8992 4.61228 20.5005 5.05553 20.9438C5.49879 21.3872 6.10001 21.6363 6.72692 21.6363H17.2724C17.8993 21.6363 18.5005 21.3872 18.9438 20.9438C19.387 20.5005 19.636 19.8992 19.636 19.2723V8.18308C19.636 8.02236 19.5722 7.86822 19.4585 7.75457L14.2459 2.54107C14.1322 2.42739 13.9781 2.36353 13.8173 2.36353H6.72692ZM5.91271 3.91297C6.12867 3.69697 6.42155 3.57565 6.72692 3.57565H13.5662L18.4239 8.43409V13.2184L15.8552 10.6555C15.6288 10.4296 15.3221 10.303 15.0025 10.303C14.6829 10.303 14.3761 10.4296 14.1498 10.6555L10.7986 13.9991L9.24914 12.4531C9.02275 12.2272 8.71599 12.1006 8.39641 12.1006C8.07684 12.1006 7.77008 12.2272 7.54369 12.4531L5.5754 14.417V4.72748C5.5754 4.42196 5.69675 4.12898 5.91271 3.91297ZM5.5754 16.0328V19.2723C5.5754 19.5778 5.69675 19.8708 5.91271 20.0868C6.12867 20.3028 6.42155 20.4241 6.72692 20.4241H17.2724C17.5777 20.4241 17.8706 20.3028 18.0866 20.0868C18.3025 19.8708 18.4239 19.5778 18.4239 19.2723V14.8343C18.3339 14.8061 18.2491 14.7563 18.1777 14.6851L15.0025 11.517L11.6513 14.8606C11.425 15.0865 11.1182 15.2131 10.7986 15.2131C10.479 15.2131 10.1723 15.0865 9.9459 14.8606L8.39641 13.3146L5.82173 15.8835C5.75028 15.9548 5.66548 16.0046 5.5754 16.0328Z" fill="currentColor"/>
</g>
</svg>
