<svg viewBox="0 0 24 24" fill="none" xmlns="http://www.w3.org/2000/svg">
<g opacity="0.9">
<path fill-rule="evenodd" clip-rule="evenodd" d="M12.4382 7.24852C12.6091 7.47879 12.7036 7.79139 12.7345 8.15584L12.7389 8.15561C12.8141 9.17344 12.6215 10.025 12.336 10.7996C12.4467 10.9423 12.5689 11.0898 12.7049 11.254C12.8386 11.4155 12.9856 11.593 13.1481 11.7978L13.1489 11.7987C13.451 12.1814 13.7317 12.5187 13.9934 12.8118C14.084 12.8098 14.175 12.8087 14.2659 12.8087C15.0469 12.8087 15.8833 12.8892 16.5183 13.1648C16.8495 13.3085 17.1166 13.5156 17.2591 13.7909C17.4104 14.0834 17.3943 14.4063 17.2321 14.6715C16.927 15.1704 16.2378 15.323 15.5716 15.1448L15.5703 15.1445C15.0918 15.0149 14.609 14.689 14.1114 14.2335C13.9493 14.0851 13.7819 13.9194 13.6088 13.7368C13.1022 13.7651 12.6207 13.8213 12.2347 13.8806C11.6789 13.97 11.1795 14.0797 10.7274 14.2195C10.6496 14.3616 10.5694 14.5047 10.4876 14.6469C10.055 15.3985 9.54702 16.1765 9.08198 16.6135C8.8138 16.8717 8.52041 17.0424 8.22502 17.1C7.92586 17.1584 7.60213 17.0997 7.37092 16.8646C7.14061 16.6304 7.0849 16.3055 7.14279 16.0025C7.20024 15.7019 7.36974 15.3957 7.63182 15.1045C8.32266 14.3283 9.13447 13.8194 10.0975 13.4719C10.356 12.9836 10.577 12.5283 10.7248 12.2014C10.7985 12.0389 10.8721 11.8804 10.9442 11.7253C11.0718 11.4507 11.195 11.1854 11.3072 10.9221C11.2746 10.8718 11.2431 10.8213 11.2129 10.7703C10.8748 10.2001 10.6754 9.56296 10.6362 8.62602L10.6361 8.62413L10.6361 8.62225C10.6219 8.1988 10.6971 7.82651 10.8424 7.53276C10.9829 7.24863 11.215 6.99256 11.5345 6.90704C11.8924 6.81121 12.2268 6.9638 12.4382 7.24852ZM11.7652 12.1178C11.8219 11.9965 11.879 11.8745 11.9355 11.7513L12.0537 11.8943C12.1789 12.0456 12.3072 12.2007 12.4356 12.3624C12.5798 12.5451 12.7206 12.7193 12.858 12.8849C12.5802 12.9135 12.3217 12.9475 12.095 12.9823L12.0935 12.9826L12.092 12.9828C11.8151 13.0273 11.5478 13.0771 11.2898 13.1338C11.3913 12.9262 11.4803 12.7371 11.553 12.5765C11.622 12.4241 11.6934 12.2715 11.7652 12.1178ZM11.84 8.34649C11.8648 8.8387 11.8173 9.28128 11.7209 9.70111C11.6254 9.40254 11.5639 9.04786 11.5446 8.58998C11.5347 8.28807 11.5906 8.07058 11.6573 7.93576C11.6839 7.88185 11.7091 7.84646 11.7292 7.82356C11.7711 7.89993 11.8256 8.05979 11.8354 8.34664L11.84 8.34649ZM15.8072 14.2668C15.5779 14.2046 15.2894 14.0434 14.929 13.7417C15.4108 13.7787 15.8376 13.8604 16.1564 13.9987C16.3644 14.089 16.4329 14.1754 16.45 14.2056C16.4346 14.2228 16.392 14.2594 16.2982 14.285C16.1872 14.3152 16.0207 14.3238 15.8072 14.2668ZM8.31013 15.7098C8.60538 15.3779 8.92901 15.101 9.29099 14.8685C8.9929 15.3338 8.70306 15.7227 8.45785 15.9525L8.45541 15.9548L8.453 15.9571C8.2721 16.1317 8.12928 16.1925 8.05102 16.2077C8.04333 16.2092 8.03655 16.2103 8.0306 16.211C8.03129 16.2009 8.03282 16.1884 8.03573 16.1732C8.05342 16.0806 8.1211 15.9196 8.30818 15.712L8.30915 15.7109L8.31013 15.7098Z" fill="currentColor"/>
<path fill-rule="evenodd" clip-rule="evenodd" d="M6.72741 2.36353C6.10049 2.36353 5.49928 2.61261 5.05602 3.05595C4.61277 3.49929 4.36377 4.10056 4.36377 4.72748V19.2723C4.36377 19.8992 4.61277 20.5005 5.05602 20.9438C5.49928 21.3872 6.10049 21.6363 6.72741 21.6363H17.2729C17.8998 21.6363 18.501 21.3872 18.9442 20.9438C19.3875 20.5005 19.6365 19.8992 19.6365 19.2723V8.18308C19.6365 8.02236 19.5727 7.86822 19.459 7.75457L14.2464 2.54107C14.1327 2.42739 13.9786 2.36353 13.8178 2.36353H6.72741ZM5.9132 3.91297C6.12916 3.69697 6.42204 3.57565 6.72741 3.57565H13.5667L18.4244 8.43409V19.2723C18.4244 19.5778 18.303 19.8708 18.0871 20.0868C17.8711 20.3028 17.5782 20.4241 17.2729 20.4241H6.72741C6.42204 20.4241 6.12916 20.3028 5.9132 20.0868C5.69724 19.8708 5.57589 19.5778 5.57589 19.2723V4.72748C5.57589 4.42196 5.69724 4.12898 5.9132 3.91297Z" fill="currentColor"/>
</g>
</svg>
