<svg viewBox="0 0 24 24" fill="none" xmlns="http://www.w3.org/2000/svg">
<g opacity="0.9">
<path d="M6.72692 2.36353C6.10001 2.36353 5.49879 2.61261 5.05553 3.05595C4.61228 3.49929 4.36328 4.10056 4.36328 4.72748V19.2723C4.36328 19.8992 4.61228 20.5005 5.05553 20.9438C5.49879 21.3872 6.10001 21.6363 6.72692 21.6363H7.87964C8.01771 21.6363 8.12964 21.5243 8.12964 21.3863V20.6741C8.12964 20.5361 8.01771 20.4241 7.87964 20.4241H6.72692C6.42155 20.4241 6.12867 20.3028 5.91271 20.0868C5.69675 19.8708 5.5754 19.5778 5.5754 19.2723V4.72748C5.5754 4.42196 5.69675 4.12898 5.91271 3.91297C6.12867 3.69697 6.42155 3.57565 6.72692 3.57565H13.5662L18.4239 8.43409V19.2723C18.4239 19.5778 18.3025 19.8708 18.0866 20.0868C17.8706 20.3028 17.5777 20.4241 17.2724 20.4241H16.1296C15.9916 20.4241 15.8796 20.5361 15.8796 20.6741V21.3863C15.8796 21.5243 15.9916 21.6363 16.1296 21.6363H17.2724C17.8993 21.6363 18.5005 21.3872 18.9438 20.9438C19.387 20.5005 19.636 19.8992 19.636 19.2723V8.18308C19.636 8.02236 19.5722 7.86822 19.4585 7.75457L14.2459 2.54107C14.1322 2.42739 13.9781 2.36353 13.8173 2.36353H6.72692Z" fill="currentColor"/>
<path fill-rule="evenodd" clip-rule="evenodd" d="M11.739 16.5C10.7121 16.5 9.87964 17.3325 9.87964 18.3594V20.8257C9.87964 21.2657 10.2364 21.6225 10.6765 21.6225H13.3328C13.7729 21.6225 14.1296 21.2657 14.1296 20.8257V18.3594C14.1296 17.3325 13.2972 16.5 12.2703 16.5H11.739ZM11.739 18.0938C11.5923 18.0938 11.4734 18.2126 11.4734 18.3594V20.0288H12.5359V18.3594C12.5359 18.2126 12.417 18.0938 12.2703 18.0938H11.739Z" fill="currentColor"/>
<path d="M11.9678 5.25038C11.9678 4.69789 11.5199 4.25 10.9674 4.25H10.3005C9.74803 4.25 9.30014 4.69789 9.30014 5.25038C9.30014 5.80288 9.74803 6.25077 10.3005 6.25077H10.9674C11.5199 6.25077 11.9678 5.80288 11.9678 5.25038Z" fill="currentColor"/>
<path d="M13.6998 6.50945C14.2523 6.50945 14.7002 6.95735 14.7002 7.50984C14.7002 8.06233 14.2523 8.51022 13.6998 8.51022H13.0329C12.4804 8.51022 12.0325 8.06233 12.0325 7.50984C12.0325 6.95735 12.4804 6.50945 13.0329 6.50945H13.6998Z" fill="currentColor"/>
<path d="M11.9678 9.76929C11.9678 9.2168 11.5199 8.76891 10.9674 8.76891H10.3005C9.74803 8.76891 9.30014 9.2168 9.30014 9.76929C9.30014 10.3218 9.74803 10.7697 10.3005 10.7697H10.9674C11.5199 10.7697 11.9678 10.3218 11.9678 9.76929Z" fill="currentColor"/>
<path d="M14.7002 12.0287C14.7002 11.4763 14.2523 11.0284 13.6998 11.0284H13.0329C12.4804 11.0284 12.0325 11.4763 12.0325 12.0287C12.0325 12.5812 12.4804 13.0291 13.0329 13.0291H13.6998C14.2523 13.0291 14.7002 12.5812 14.7002 12.0287Z" fill="currentColor"/>
<path d="M11.9678 14.2882C11.9678 13.7357 11.5199 13.2878 10.9674 13.2878H10.3005C9.74803 13.2878 9.30014 13.7357 9.30014 14.2882C9.30014 14.8407 9.74803 15.2886 10.3005 15.2886H10.9674C11.5199 15.2886 11.9678 14.8407 11.9678 14.2882Z" fill="currentColor"/>
</g>
</svg>
